# MagicaVoxel @ Ephtracy

# group
o HandL

# material
mtllib hands-0-HandL.mtl
usemtl palette

# normals
vn -1 0 0
vn 1 0 0
vn 0 0 1
vn 0 0 -1
vn 0 -1 0
vn 0 1 0

# texcoords
vt 0.341797 0.5
vt 0.345703 0.5

# verts
v -3.5 3.6 0.7
v -3.5 3.6 0.2
v -3.5 4.1 0.7
v -3.5 4.1 0.2
v -3.4 3.6 0.8
v -3.4 3.6 0.7
v -3.4 3.6 0.2
v -3.4 3.6 0
v -3.4 4.1 0.8
v -3.4 4.1 0.7
v -3.4 4.1 0.2
v -3.4 4.3 0.7
v -3.4 4.3 0
v -3.3 4.3 0.7
v -3.3 4.3 0.1
v -3.3 4.4 0.7
v -3.3 4.4 0.1
v -3.2 3.5 0.7
v -3.2 3.5 0.1
v -3.2 3.6 0.7
v -3.2 3.6 0.1
v -3.2 3.7 0.6
v -3.2 3.7 0.2
v -3.2 3.8 0.6
v -3.2 3.8 0.2
v -3.1 3.4 0.7
v -3.1 3.4 0.1
v -3.1 3.5 0.7
v -3.1 3.5 0.1
v -2.8 3.8 0.7
v -2.8 3.8 0.6
v -2.8 3.9 0.6
v -2.8 3.9 0.2
v -2.8 4 0.7
v -2.8 4 0.6
v -2.8 4 0.2
v -2.7 3.8 0.6
v -2.7 3.8 0.2
v -2.7 3.9 0.6
v -2.7 3.9 0.2
v -3.3 3.7 0.6
v -3.3 3.7 0.2
v -3.3 3.9 0.2
v -3.3 4 0.6
v -3.3 4 0.2
v -3.2 3.8 0.7
v -3.2 3.8 0.6
v -3.2 4 0.7
v -3.2 4 0.6
v -2.8 3.6 0.8
v -2.8 3.6 0.7
v -2.8 4 0.8
v -2.8 4 0.7
v -2.8 4.1 0.8
v -2.8 4.1 0.7
v -2.6 3.4 0.7
v -2.6 3.4 0.1
v -2.6 3.5 0.7
v -2.6 3.5 0.1
v -2.6 4.3 0.7
v -2.6 4.3 0.1
v -2.6 4.4 0.7
v -2.6 4.4 0.1
v -2.5 3.5 0.7
v -2.5 3.5 0.1
v -2.5 3.6 0.1
v -2.5 3.6 0
v -2.5 4.3 0.7
v -2.5 4.3 0
v -3.4 3.6 0.8
v -3.4 4.1 0.8
v -3.2 3.6 0.8
v -3.2 4 0.8
v -2.8 3.6 0.8
v -2.8 4 0.8
v -2.8 4.1 0.8
v -3.5 3.6 0.7
v -3.5 4.1 0.7
v -3.4 3.6 0.7
v -3.4 4.1 0.7
v -3.4 4.3 0.7
v -3.3 4.3 0.7
v -3.3 4.4 0.7
v -3.2 3.5 0.7
v -3.2 3.6 0.7
v -3.1 3.4 0.7
v -3.1 3.5 0.7
v -2.8 3.6 0.7
v -2.8 4 0.7
v -2.8 4.1 0.7
v -2.6 3.4 0.7
v -2.6 3.5 0.7
v -2.6 4.3 0.7
v -2.6 4.4 0.7
v -2.5 3.5 0.7
v -2.5 4.3 0.7
v -3.3 3.7 0.2
v -3.3 3.9 0.2
v -3.3 4 0.2
v -3.2 3.7 0.2
v -3.2 3.8 0.2
v -2.8 3.9 0.2
v -2.8 4 0.2
v -2.7 3.8 0.2
v -2.7 3.9 0.2
v -3.2 3.8 0.7
v -3.2 4 0.7
v -2.8 3.8 0.7
v -2.8 4 0.7
v -3.3 3.7 0.6
v -3.3 4 0.6
v -3.2 3.7 0.6
v -3.2 3.8 0.6
v -3.2 4 0.6
v -2.8 3.8 0.6
v -2.8 3.9 0.6
v -2.7 3.8 0.6
v -2.7 3.9 0.6
v -3.5 3.6 0.2
v -3.5 4.1 0.2
v -3.4 3.6 0.2
v -3.4 4.1 0.2
v -3.3 4.3 0.1
v -3.3 4.4 0.1
v -3.2 3.5 0.1
v -3.2 3.6 0.1
v -3.1 3.4 0.1
v -3.1 3.5 0.1
v -2.8 3.6 0.1
v -2.6 3.4 0.1
v -2.6 3.5 0.1
v -2.6 4.3 0.1
v -2.6 4.4 0.1
v -2.5 3.5 0.1
v -2.5 3.6 0.1
v -3.4 3.6 0
v -3.4 4.3 0
v -3.2 3.6 0
v -3.2 4 0
v -3 3.8 0
v -3 4 0
v -2.8 3.6 0
v -2.8 3.8 0
v -2.5 3.6 0
v -2.5 4.3 0
v -3.1 3.4 0.7
v -2.6 3.4 0.7
v -3.1 3.4 0.1
v -2.6 3.4 0.1
v -3.2 3.5 0.7
v -3.1 3.5 0.7
v -2.6 3.5 0.7
v -2.5 3.5 0.7
v -3.2 3.5 0.1
v -3.1 3.5 0.1
v -2.6 3.5 0.1
v -2.5 3.5 0.1
v -3.4 3.6 0.8
v -3.2 3.6 0.8
v -2.8 3.6 0.8
v -3.5 3.6 0.7
v -3.4 3.6 0.7
v -3.2 3.6 0.7
v -2.8 3.6 0.7
v -3.5 3.6 0.2
v -3.4 3.6 0.2
v -3.2 3.6 0.1
v -2.8 3.6 0.1
v -2.5 3.6 0.1
v -3.4 3.6 0
v -3.2 3.6 0
v -2.8 3.6 0
v -2.5 3.6 0
v -2.8 3.9 0.6
v -2.7 3.9 0.6
v -2.8 3.9 0.2
v -2.7 3.9 0.2
v -3.2 4 0.7
v -2.8 4 0.7
v -3.3 4 0.6
v -3.2 4 0.6
v -2.8 4 0.6
v -3.3 4 0.2
v -2.8 4 0.2
v -3.3 3.7 0.6
v -3.2 3.7 0.6
v -3.3 3.7 0.2
v -3.2 3.7 0.2
v -3.2 3.8 0.7
v -2.8 3.8 0.7
v -3.2 3.8 0.6
v -2.8 3.8 0.6
v -2.7 3.8 0.6
v -3.2 3.8 0.2
v -2.7 3.8 0.2
v -3.4 4.1 0.8
v -2.8 4.1 0.8
v -3.5 4.1 0.7
v -3.4 4.1 0.7
v -2.8 4.1 0.7
v -3.5 4.1 0.2
v -3.4 4.1 0.2
v -3.4 4.3 0.7
v -3.3 4.3 0.7
v -2.6 4.3 0.7
v -2.5 4.3 0.7
v -3.3 4.3 0.1
v -2.6 4.3 0.1
v -3.4 4.3 0
v -2.5 4.3 0
v -3.3 4.4 0.7
v -2.6 4.4 0.7
v -3.3 4.4 0.1
v -2.6 4.4 0.1

# faces
f 3/1/1 2/1/1 1/1/1
f 4/1/1 2/1/1 3/1/1
f 9/2/1 6/2/1 5/2/1
f 10/2/1 6/2/1 9/2/1
f 11/2/1 8/2/1 7/2/1
f 12/2/1 11/2/1 10/2/1
f 13/2/1 8/2/1 11/2/1
f 13/2/1 11/2/1 12/2/1
f 16/2/1 15/2/1 14/2/1
f 17/2/1 15/2/1 16/2/1
f 20/2/1 19/2/1 18/2/1
f 21/2/1 19/2/1 20/2/1
f 24/2/1 23/2/1 22/2/1
f 25/2/1 23/2/1 24/2/1
f 28/2/1 27/2/1 26/2/1
f 29/2/1 27/2/1 28/2/1
f 32/2/1 31/2/1 30/2/1
f 34/2/1 32/2/1 30/2/1
f 35/1/1 33/1/1 32/1/1
f 35/2/1 32/2/1 34/2/1
f 36/1/1 33/1/1 35/1/1
f 39/2/1 38/2/1 37/2/1
f 40/2/1 38/2/1 39/2/1
f 41/1/2 42/1/2 43/1/2
f 41/1/2 43/1/2 44/1/2
f 44/1/2 43/1/2 45/1/2
f 46/2/2 47/2/2 48/2/2
f 48/2/2 47/2/2 49/2/2
f 50/1/2 51/1/2 52/1/2
f 52/1/2 51/1/2 53/1/2
f 52/2/2 53/2/2 54/2/2
f 54/2/2 53/2/2 55/2/2
f 56/2/2 57/2/2 58/2/2
f 58/2/2 57/2/2 59/2/2
f 60/2/2 61/2/2 62/2/2
f 62/2/2 61/2/2 63/2/2
f 64/2/2 65/2/2 66/2/2
f 64/2/2 66/2/2 68/2/2
f 66/2/2 67/2/2 68/2/2
f 68/2/2 67/2/2 69/2/2
f 72/2/3 71/2/3 70/2/3
f 73/2/3 71/2/3 72/2/3
f 74/1/3 73/1/3 72/1/3
f 75/2/3 71/2/3 73/2/3
f 75/1/3 73/1/3 74/1/3
f 76/2/3 71/2/3 75/2/3
f 79/1/3 78/1/3 77/1/3
f 80/1/3 78/1/3 79/1/3
f 82/2/3 81/2/3 80/2/3
f 87/2/3 85/2/3 84/2/3
f 88/2/3 85/2/3 87/2/3
f 88/2/3 87/2/3 86/2/3
f 90/2/3 82/2/3 80/2/3
f 90/2/3 83/2/3 82/2/3
f 91/2/3 89/2/3 88/2/3
f 91/2/3 90/2/3 89/2/3
f 91/2/3 88/2/3 86/2/3
f 92/2/3 90/2/3 91/2/3
f 93/2/3 83/2/3 90/2/3
f 93/2/3 90/2/3 92/2/3
f 94/2/3 83/2/3 93/2/3
f 95/2/3 93/2/3 92/2/3
f 96/2/3 93/2/3 95/2/3
f 100/2/3 98/2/3 97/2/3
f 101/2/3 98/2/3 100/2/3
f 102/1/3 99/1/3 98/1/3
f 102/2/3 98/2/3 101/2/3
f 103/1/3 99/1/3 102/1/3
f 104/2/3 102/2/3 101/2/3
f 105/2/3 102/2/3 104/2/3
f 106/1/4 107/1/4 108/1/4
f 108/1/4 107/1/4 109/1/4
f 110/2/4 111/2/4 112/2/4
f 112/2/4 111/2/4 113/2/4
f 113/2/4 111/2/4 114/2/4
f 115/2/4 116/2/4 117/2/4
f 117/2/4 116/2/4 118/2/4
f 119/1/4 120/1/4 121/1/4
f 121/1/4 120/1/4 122/1/4
f 125/2/4 126/2/4 128/2/4
f 128/2/4 126/2/4 129/2/4
f 127/2/4 128/2/4 129/2/4
f 127/2/4 129/2/4 130/2/4
f 130/2/4 129/2/4 131/2/4
f 123/2/4 124/2/4 132/2/4
f 132/2/4 124/2/4 133/2/4
f 131/2/4 129/2/4 134/2/4
f 134/2/4 129/2/4 135/2/4
f 136/2/4 137/2/4 138/2/4
f 138/2/4 137/2/4 139/2/4
f 138/1/4 139/1/4 140/1/4
f 139/2/4 137/2/4 141/2/4
f 140/1/4 139/1/4 141/1/4
f 138/1/4 140/1/4 142/1/4
f 140/2/4 141/2/4 143/2/4
f 142/1/4 140/1/4 143/1/4
f 142/2/4 143/2/4 144/2/4
f 141/2/4 137/2/4 145/2/4
f 144/2/4 143/2/4 145/2/4
f 143/2/4 141/2/4 145/2/4
f 148/2/5 147/2/5 146/2/5
f 149/2/5 147/2/5 148/2/5
f 154/2/5 151/2/5 150/2/5
f 155/2/5 151/2/5 154/2/5
f 156/2/5 153/2/5 152/2/5
f 157/2/5 153/2/5 156/2/5
f 162/2/5 159/2/5 158/2/5
f 163/1/5 160/1/5 159/1/5
f 163/2/5 159/2/5 162/2/5
f 164/1/5 160/1/5 163/1/5
f 165/1/5 162/1/5 161/1/5
f 166/2/5 163/2/5 162/2/5
f 166/1/5 162/1/5 165/1/5
f 167/2/5 163/2/5 166/2/5
f 170/2/5 167/2/5 166/2/5
f 171/1/5 168/1/5 167/1/5
f 171/2/5 167/2/5 170/2/5
f 172/2/5 169/2/5 168/2/5
f 172/1/5 168/1/5 171/1/5
f 173/2/5 169/2/5 172/2/5
f 176/1/5 175/1/5 174/1/5
f 177/1/5 175/1/5 176/1/5
f 181/2/5 179/2/5 178/2/5
f 182/2/5 179/2/5 181/2/5
f 183/1/5 181/1/5 180/1/5
f 183/1/5 182/1/5 181/1/5
f 184/1/5 182/1/5 183/1/5
f 185/2/6 186/2/6 187/2/6
f 187/2/6 186/2/6 188/2/6
f 189/2/6 190/2/6 191/2/6
f 191/2/6 190/2/6 192/2/6
f 191/2/6 192/2/6 194/2/6
f 192/2/6 193/2/6 194/2/6
f 194/2/6 193/2/6 195/2/6
f 196/2/6 197/2/6 199/2/6
f 199/2/6 197/2/6 200/2/6
f 198/1/6 199/1/6 201/1/6
f 201/1/6 199/1/6 202/1/6
f 203/2/6 204/2/6 207/2/6
f 205/2/6 206/2/6 208/2/6
f 203/2/6 207/2/6 209/2/6
f 207/2/6 208/2/6 209/2/6
f 208/2/6 206/2/6 210/2/6
f 209/2/6 208/2/6 210/2/6
f 211/2/6 212/2/6 213/2/6
f 213/2/6 212/2/6 214/2/6
