# MagicaVoxel @ Ephtracy

# group
o Tile_DirtFloor_4

# material
mtllib Tiles-5-Tile_DirtFloor_4.mtl
usemtl palette

# normals
vn -1 0 0
vn 1 0 0
vn 0 0 1
vn 0 0 -1
vn 0 -1 0
vn 0 1 0

# texcoords
vt 0.310547 0.5
vt 0.318359 0.5
vt 0.369141 0.5

# verts
v 5.1 0.1 -4.4
v 5.1 0.1 -8.4
v 5.1 0.5 -4.4
v 5.1 0.5 -8.4
v 5.2 0.5 -4.5
v 5.2 0.5 -8.3
v 5.2 0.6 -4.5
v 5.2 0.6 -8.3
v 9 0.5 -4.5
v 9 0.5 -8.3
v 9 0.6 -4.5
v 9 0.6 -8.3
v 9.1 0.1 -4.4
v 9.1 0.1 -8.4
v 9.1 0.5 -4.4
v 9.1 0.5 -8.4
v 5.1 0.1 -4.4
v 5.1 0.5 -4.4
v 9.1 0.1 -4.4
v 9.1 0.5 -4.4
v 5.2 0.5 -4.5
v 5.2 0.6 -4.5
v 9 0.5 -4.5
v 9 0.6 -4.5
v 5.2 0.5 -8.3
v 5.2 0.6 -8.3
v 9 0.5 -8.3
v 9 0.6 -8.3
v 5.1 0.1 -8.4
v 5.1 0.5 -8.4
v 9.1 0.1 -8.4
v 9.1 0.5 -8.4
v 5.1 0.1 -4.4
v 9.1 0.1 -4.4
v 5.2 0.1 -4.5
v 9 0.1 -4.5
v 5.2 0.1 -8.3
v 9 0.1 -8.3
v 5.1 0.1 -8.4
v 9.1 0.1 -8.4
v 5.1 0.5 -4.4
v 9.1 0.5 -4.4
v 5.2 0.5 -4.5
v 9 0.5 -4.5
v 5.2 0.5 -8.3
v 9 0.5 -8.3
v 5.1 0.5 -8.4
v 9.1 0.5 -8.4
v 5.2 0.6 -4.5
v 9 0.6 -4.5
v 5.2 0.6 -8.3
v 9 0.6 -8.3

# faces
f 3/1/1 2/1/1 1/1/1
f 4/1/1 2/1/1 3/1/1
f 7/2/1 6/2/1 5/2/1
f 8/2/1 6/2/1 7/2/1
f 9/2/2 10/2/2 11/2/2
f 11/2/2 10/2/2 12/2/2
f 13/1/2 14/1/2 15/1/2
f 15/1/2 14/1/2 16/1/2
f 19/1/3 18/1/3 17/1/3
f 20/1/3 18/1/3 19/1/3
f 23/2/3 22/2/3 21/2/3
f 24/2/3 22/2/3 23/2/3
f 25/2/4 26/2/4 27/2/4
f 27/2/4 26/2/4 28/2/4
f 29/1/4 30/1/4 31/1/4
f 31/1/4 30/1/4 32/1/4
f 35/1/5 34/1/5 33/1/5
f 36/1/5 34/1/5 35/1/5
f 37/1/5 35/1/5 33/1/5
f 37/3/5 36/3/5 35/3/5
f 38/1/5 34/1/5 36/1/5
f 38/3/5 36/3/5 37/3/5
f 39/1/5 37/1/5 33/1/5
f 39/1/5 38/1/5 37/1/5
f 40/1/5 34/1/5 38/1/5
f 40/1/5 38/1/5 39/1/5
f 41/1/6 42/1/6 43/1/6
f 43/1/6 42/1/6 44/1/6
f 41/1/6 43/1/6 45/1/6
f 44/1/6 42/1/6 46/1/6
f 41/1/6 45/1/6 47/1/6
f 45/1/6 46/1/6 47/1/6
f 46/1/6 42/1/6 48/1/6
f 47/1/6 46/1/6 48/1/6
f 49/2/6 50/2/6 51/2/6
f 51/2/6 50/2/6 52/2/6
