# MagicaVoxel @ Ephtracy

# group
o Tile_Lawns_3

# material
mtllib Tiles-1-Tile_Lawns_3.mtl
usemtl palette

# normals
vn -1 0 0
vn 1 0 0
vn 0 0 1
vn 0 0 -1
vn 0 -1 0
vn 0 1 0

# texcoords
vt 0.369141 0.5
vt 0.568359 0.5
vt 0.572266 0.5

# verts
v 10.1 0.1 0.1
v 10.1 0.1 -3.9
v 10.1 0.5 0.1
v 10.1 0.5 -3.9
v 10.2 0.5 0
v 10.2 0.5 -3.8
v 10.2 0.6 0
v 10.2 0.6 -3.8
v 14 0.5 0
v 14 0.5 -3.8
v 14 0.6 0
v 14 0.6 -3.8
v 14.1 0.1 0.1
v 14.1 0.1 -3.9
v 14.1 0.5 0.1
v 14.1 0.5 -3.9
v 10.1 0.1 0.1
v 10.1 0.5 0.1
v 14.1 0.1 0.1
v 14.1 0.5 0.1
v 10.2 0.5 0
v 10.2 0.6 0
v 14 0.5 0
v 14 0.6 0
v 10.2 0.5 -3.8
v 10.2 0.6 -3.8
v 14 0.5 -3.8
v 14 0.6 -3.8
v 10.1 0.1 -3.9
v 10.1 0.5 -3.9
v 14.1 0.1 -3.9
v 14.1 0.5 -3.9
v 10.1 0.1 0.1
v 14.1 0.1 0.1
v 10.2 0.1 0
v 14 0.1 0
v 10.2 0.1 -3.8
v 14 0.1 -3.8
v 10.1 0.1 -3.9
v 14.1 0.1 -3.9
v 10.1 0.5 0.1
v 14.1 0.5 0.1
v 10.2 0.5 0
v 14 0.5 0
v 10.2 0.5 -3.8
v 14 0.5 -3.8
v 10.1 0.5 -3.9
v 14.1 0.5 -3.9
v 10.2 0.6 0
v 14 0.6 0
v 10.2 0.6 -3.8
v 14 0.6 -3.8

# faces
f 3/2/1 2/2/1 1/2/1
f 4/2/1 2/2/1 3/2/1
f 7/3/1 6/3/1 5/3/1
f 8/3/1 6/3/1 7/3/1
f 9/3/2 10/3/2 11/3/2
f 11/3/2 10/3/2 12/3/2
f 13/2/2 14/2/2 15/2/2
f 15/2/2 14/2/2 16/2/2
f 19/2/3 18/2/3 17/2/3
f 20/2/3 18/2/3 19/2/3
f 23/3/3 22/3/3 21/3/3
f 24/3/3 22/3/3 23/3/3
f 25/3/4 26/3/4 27/3/4
f 27/3/4 26/3/4 28/3/4
f 29/2/4 30/2/4 31/2/4
f 31/2/4 30/2/4 32/2/4
f 35/2/5 34/2/5 33/2/5
f 36/2/5 34/2/5 35/2/5
f 37/2/5 35/2/5 33/2/5
f 37/1/5 36/1/5 35/1/5
f 38/2/5 34/2/5 36/2/5
f 38/1/5 36/1/5 37/1/5
f 39/2/5 37/2/5 33/2/5
f 39/2/5 38/2/5 37/2/5
f 40/2/5 34/2/5 38/2/5
f 40/2/5 38/2/5 39/2/5
f 41/2/6 42/2/6 43/2/6
f 43/2/6 42/2/6 44/2/6
f 41/2/6 43/2/6 45/2/6
f 44/2/6 42/2/6 46/2/6
f 41/2/6 45/2/6 47/2/6
f 45/2/6 46/2/6 47/2/6
f 46/2/6 42/2/6 48/2/6
f 47/2/6 46/2/6 48/2/6
f 49/3/6 50/3/6 51/3/6
f 51/3/6 50/3/6 52/3/6
