# MagicaVoxel @ Ephtracy

# group
o Tile_BRoad_2

# material
mtllib Tiles-13-Tile_BRoad_2.mtl
usemtl palette

# normals
vn -1 0 0
vn 1 0 0
vn 0 0 1
vn 0 0 -1
vn 0 -1 0
vn 0 1 0

# texcoords
vt 0.935547 0.5
vt 0.978516 0.5
vt 0.982422 0.5
vt 0.986328 0.5

# verts
v 0.1 0.1 5
v 0.1 0.1 1
v 0.1 0.5 5
v 0.1 0.5 1
v 0.2 0.5 4.9
v 0.2 0.5 4.3
v 0.2 0.5 4.2
v 0.2 0.5 2.3
v 0.2 0.5 2.2
v 0.2 0.5 1.1
v 0.2 0.6 4.9
v 0.2 0.6 4.3
v 0.2 0.6 4.2
v 0.2 0.6 2.3
v 0.2 0.6 2.2
v 0.2 0.6 1.1
v 1.7 0.5 4.9
v 1.7 0.5 3.5
v 1.7 0.5 3.4
v 1.7 0.5 2.3
v 1.7 0.6 4.9
v 1.7 0.6 3.5
v 1.7 0.6 3.4
v 1.7 0.6 2.3
v 2.9 0.5 3.4
v 2.9 0.5 2.7
v 2.9 0.5 2.6
v 2.9 0.5 1.1
v 2.9 0.6 3.4
v 2.9 0.6 2.7
v 2.9 0.6 2.6
v 2.9 0.6 1.1
v 1.6 0.5 4.9
v 1.6 0.5 4.3
v 1.6 0.5 4.2
v 1.6 0.5 2.3
v 1.6 0.6 4.9
v 1.6 0.6 4.3
v 1.6 0.6 4.2
v 1.6 0.6 2.3
v 2.8 0.5 3.4
v 2.8 0.5 2.3
v 2.8 0.5 2.2
v 2.8 0.5 1.8
v 2.8 0.5 1.7
v 2.8 0.5 1.1
v 2.8 0.6 3.4
v 2.8 0.6 2.3
v 2.8 0.6 2.2
v 2.8 0.6 1.8
v 2.8 0.6 1.7
v 2.8 0.6 1.1
v 4 0.5 4.9
v 4 0.5 4.6
v 4 0.5 4.5
v 4 0.5 3.5
v 4 0.5 3.4
v 4 0.5 2.7
v 4 0.5 2.6
v 4 0.5 1.1
v 4 0.6 4.9
v 4 0.6 4.6
v 4 0.6 4.5
v 4 0.6 3.5
v 4 0.6 3.4
v 4 0.6 2.7
v 4 0.6 2.6
v 4 0.6 1.1
v 4.1 0.1 5
v 4.1 0.1 1
v 4.1 0.5 5
v 4.1 0.5 1
v 0.1 0.1 5
v 0.1 0.5 5
v 4.1 0.1 5
v 4.1 0.5 5
v 0.2 0.5 4.9
v 0.2 0.6 4.9
v 1.6 0.5 4.9
v 1.6 0.6 4.9
v 1.7 0.5 4.9
v 1.7 0.6 4.9
v 3.3 0.5 4.9
v 3.3 0.6 4.9
v 3.4 0.5 4.9
v 3.4 0.6 4.9
v 4 0.5 4.9
v 4 0.6 4.9
v 0.2 0.5 4.2
v 0.2 0.6 4.2
v 1.6 0.5 4.2
v 1.6 0.6 4.2
v 1.7 0.5 3.4
v 1.7 0.6 3.4
v 2.8 0.5 3.4
v 2.8 0.6 3.4
v 2.9 0.5 3.4
v 2.9 0.6 3.4
v 4 0.5 3.4
v 4 0.6 3.4
v 2.9 0.5 2.6
v 2.9 0.6 2.6
v 4 0.5 2.6
v 4 0.6 2.6
v 0.2 0.5 2.2
v 0.2 0.6 2.2
v 1.7 0.5 2.2
v 1.7 0.6 2.2
v 1.8 0.5 2.2
v 1.8 0.6 2.2
v 2.8 0.5 2.2
v 2.8 0.6 2.2
v 0.2 0.5 4.3
v 0.2 0.6 4.3
v 1.6 0.5 4.3
v 1.6 0.6 4.3
v 1.7 0.5 3.5
v 1.7 0.6 3.5
v 4 0.5 3.5
v 4 0.6 3.5
v 2.9 0.5 2.7
v 2.9 0.6 2.7
v 4 0.5 2.7
v 4 0.6 2.7
v 0.2 0.5 2.3
v 0.2 0.6 2.3
v 1.6 0.5 2.3
v 1.6 0.6 2.3
v 1.7 0.5 2.3
v 1.7 0.6 2.3
v 2.8 0.5 2.3
v 2.8 0.6 2.3
v 0.2 0.5 1.1
v 0.2 0.6 1.1
v 2.1 0.5 1.1
v 2.1 0.6 1.1
v 2.2 0.5 1.1
v 2.2 0.6 1.1
v 2.8 0.5 1.1
v 2.8 0.6 1.1
v 2.9 0.5 1.1
v 2.9 0.6 1.1
v 3.4 0.5 1.1
v 3.4 0.6 1.1
v 3.6 0.5 1.1
v 3.6 0.6 1.1
v 4 0.5 1.1
v 4 0.6 1.1
v 0.1 0.1 1
v 0.1 0.5 1
v 4.1 0.1 1
v 4.1 0.5 1
v 0.1 0.1 5
v 4.1 0.1 5
v 0.2 0.1 4.9
v 4 0.1 4.9
v 0.2 0.1 1.1
v 4 0.1 1.1
v 0.1 0.1 1
v 4.1 0.1 1
v 0.1 0.5 5
v 4.1 0.5 5
v 0.2 0.5 4.9
v 1.6 0.5 4.9
v 1.7 0.5 4.9
v 3.3 0.5 4.9
v 3.4 0.5 4.9
v 4 0.5 4.9
v 4 0.5 4.6
v 4 0.5 4.5
v 0.2 0.5 4.3
v 1.6 0.5 4.3
v 0.2 0.5 4.2
v 1.6 0.5 4.2
v 1.7 0.5 3.5
v 4 0.5 3.5
v 1.7 0.5 3.4
v 2.8 0.5 3.4
v 2.9 0.5 3.4
v 4 0.5 3.4
v 2.9 0.5 2.7
v 4 0.5 2.7
v 2.9 0.5 2.6
v 4 0.5 2.6
v 0.2 0.5 2.3
v 1.6 0.5 2.3
v 1.7 0.5 2.3
v 2.8 0.5 2.3
v 0.2 0.5 2.2
v 1.7 0.5 2.2
v 1.8 0.5 2.2
v 2.8 0.5 2.2
v 2.8 0.5 1.8
v 2.8 0.5 1.7
v 0.2 0.5 1.1
v 2.1 0.5 1.1
v 2.2 0.5 1.1
v 2.8 0.5 1.1
v 2.9 0.5 1.1
v 3.4 0.5 1.1
v 3.6 0.5 1.1
v 4 0.5 1.1
v 0.1 0.5 1
v 4.1 0.5 1
v 0.2 0.6 4.9
v 1.6 0.6 4.9
v 1.7 0.6 4.9
v 3.3 0.6 4.9
v 3.4 0.6 4.9
v 4 0.6 4.9
v 0.5 0.6 4.8
v 0.7 0.6 4.8
v 3.4 0.6 4.8
v 3.7 0.6 4.8
v 0.5 0.6 4.7
v 0.6 0.6 4.7
v 0.7 0.6 4.7
v 1.1 0.6 4.7
v 3.3 0.6 4.7
v 3.6 0.6 4.7
v 3.7 0.6 4.7
v 3.8 0.6 4.7
v 0.6 0.6 4.6
v 1 0.6 4.6
v 1.1 0.6 4.6
v 1.2 0.6 4.6
v 3.6 0.6 4.6
v 3.7 0.6 4.6
v 3.8 0.6 4.6
v 4 0.6 4.6
v 1 0.6 4.5
v 1.1 0.6 4.5
v 1.2 0.6 4.5
v 1.3 0.6 4.5
v 3.7 0.6 4.5
v 4 0.6 4.5
v 1.1 0.6 4.4
v 1.3 0.6 4.4
v 2.1 0.6 4.4
v 2.2 0.6 4.4
v 0.2 0.6 4.3
v 1.6 0.6 4.3
v 2.2 0.6 4.3
v 2.3 0.6 4.3
v 2.9 0.6 4.3
v 3.2 0.6 4.3
v 0.2 0.6 4.2
v 1.6 0.6 4.2
v 2.1 0.6 4.2
v 2.2 0.6 4.2
v 2.8 0.6 4.2
v 2.9 0.6 4.2
v 3 0.6 4.2
v 3.2 0.6 4.2
v 2.2 0.6 4.1
v 2.3 0.6 4.1
v 2.4 0.6 4.1
v 2.7 0.6 4.1
v 2.8 0.6 4.1
v 2.9 0.6 4.1
v 3 0.6 4.1
v 1 0.6 4
v 1.2 0.6 4
v 2.4 0.6 4
v 2.5 0.6 4
v 2.8 0.6 4
v 2.9 0.6 4
v 0.5 0.6 3.9
v 1 0.6 3.9
v 1.1 0.6 3.9
v 1.2 0.6 3.9
v 2.5 0.6 3.9
v 2.7 0.6 3.9
v 0.4 0.6 3.8
v 0.5 0.6 3.8
v 0.8 0.6 3.8
v 1.1 0.6 3.8
v 2.4 0.6 3.8
v 2.8 0.6 3.8
v 3 0.6 3.8
v 0.4 0.6 3.7
v 0.8 0.6 3.7
v 2.2 0.6 3.7
v 2.3 0.6 3.7
v 2.8 0.6 3.7
v 2.9 0.6 3.7
v 2.2 0.6 3.6
v 2.4 0.6 3.6
v 2.9 0.6 3.6
v 3 0.6 3.6
v 1.7 0.6 3.5
v 4 0.6 3.5
v 0.8 0.6 3.4
v 0.9 0.6 3.4
v 1.7 0.6 3.4
v 2.8 0.6 3.4
v 2.9 0.6 3.4
v 4 0.6 3.4
v 0.7 0.6 3.2
v 0.8 0.6 3.2
v 3.1 0.6 3.2
v 3.2 0.6 3.2
v 0.6 0.6 3.1
v 0.7 0.6 3.1
v 0.9 0.6 3.1
v 1.1 0.6 3.1
v 1.8 0.6 3.1
v 2.1 0.6 3.1
v 3.2 0.6 3.1
v 3.3 0.6 3.1
v 3.4 0.6 3.1
v 3.5 0.6 3.1
v 0.5 0.6 3
v 0.6 0.6 3
v 0.7 0.6 3
v 1.1 0.6 3
v 1.8 0.6 3
v 2 0.6 3
v 2.1 0.6 3
v 2.2 0.6 3
v 3.1 0.6 3
v 3.2 0.6 3
v 3.3 0.6 3
v 3.4 0.6 3
v 0.6 0.6 2.9
v 0.7 0.6 2.9
v 2 0.6 2.9
v 2.1 0.6 2.9
v 3.2 0.6 2.9
v 3.5 0.6 2.9
v 0.6 0.6 2.8
v 0.7 0.6 2.8
v 2.2 0.6 2.8
v 2.3 0.6 2.8
v 0.5 0.6 2.7
v 0.6 0.6 2.7
v 0.7 0.6 2.7
v 1.2 0.6 2.7
v 2.1 0.6 2.7
v 2.2 0.6 2.7
v 2.9 0.6 2.7
v 4 0.6 2.7
v 0.6 0.6 2.6
v 0.7 0.6 2.6
v 0.9 0.6 2.6
v 1.2 0.6 2.6
v 2.2 0.6 2.6
v 2.3 0.6 2.6
v 2.9 0.6 2.6
v 4 0.6 2.6
v 0.7 0.6 2.5
v 0.8 0.6 2.5
v 0.9 0.6 2.5
v 1.1 0.6 2.5
v 0.8 0.6 2.4
v 1.1 0.6 2.4
v 0.2 0.6 2.3
v 1.6 0.6 2.3
v 1.7 0.6 2.3
v 2.8 0.6 2.3
v 0.2 0.6 2.2
v 1.7 0.6 2.2
v 1.8 0.6 2.2
v 2.8 0.6 2.2
v 3.2 0.6 2.2
v 3.4 0.6 2.2
v 1.7 0.6 2.1
v 1.8 0.6 2.1
v 1.9 0.6 2.1
v 3.2 0.6 2.1
v 3.3 0.6 2.1
v 0.7 0.6 2
v 0.9 0.6 2
v 1.3 0.6 2
v 1.4 0.6 2
v 0.6 0.6 1.9
v 0.7 0.6 1.9
v 0.8 0.6 1.9
v 0.9 0.6 1.9
v 3.4 0.6 1.9
v 3.5 0.6 1.9
v 0.7 0.6 1.8
v 0.8 0.6 1.8
v 1 0.6 1.8
v 1.1 0.6 1.8
v 1.8 0.6 1.8
v 1.9 0.6 1.8
v 2.2 0.6 1.8
v 2.6 0.6 1.8
v 2.8 0.6 1.8
v 3.3 0.6 1.8
v 3.4 0.6 1.8
v 0.5 0.6 1.7
v 0.6 0.6 1.7
v 0.7 0.6 1.7
v 1.2 0.6 1.7
v 1.3 0.6 1.7
v 1.4 0.6 1.7
v 1.9 0.6 1.7
v 2.1 0.6 1.7
v 2.2 0.6 1.7
v 2.4 0.6 1.7
v 2.5 0.6 1.7
v 2.6 0.6 1.7
v 2.7 0.6 1.7
v 2.8 0.6 1.7
v 3.4 0.6 1.7
v 3.5 0.6 1.7
v 0.6 0.6 1.6
v 1 0.6 1.6
v 1.1 0.6 1.6
v 1.2 0.6 1.6
v 1.3 0.6 1.6
v 1.4 0.6 1.6
v 2.1 0.6 1.6
v 2.3 0.6 1.6
v 2.4 0.6 1.6
v 2.5 0.6 1.6
v 2.6 0.6 1.6
v 2.7 0.6 1.6
v 0.6 0.6 1.5
v 0.8 0.6 1.5
v 1 0.6 1.5
v 1.3 0.6 1.5
v 1.4 0.6 1.5
v 1.6 0.6 1.5
v 2.3 0.6 1.5
v 2.4 0.6 1.5
v 2.5 0.6 1.5
v 2.6 0.6 1.5
v 3.7 0.6 1.5
v 3.9 0.6 1.5
v 0.4 0.6 1.4
v 0.5 0.6 1.4
v 0.8 0.6 1.4
v 1 0.6 1.4
v 1.3 0.6 1.4
v 1.5 0.6 1.4
v 2.3 0.6 1.4
v 2.4 0.6 1.4
v 2.5 0.6 1.4
v 3.6 0.6 1.4
v 3.7 0.6 1.4
v 3.8 0.6 1.4
v 3.9 0.6 1.4
v 0.4 0.6 1.3
v 0.6 0.6 1.3
v 1.5 0.6 1.3
v 1.6 0.6 1.3
v 2.2 0.6 1.3
v 2.3 0.6 1.3
v 3.5 0.6 1.3
v 3.6 0.6 1.3
v 3.7 0.6 1.3
v 3.8 0.6 1.3
v 2.1 0.6 1.2
v 2.2 0.6 1.2
v 2.4 0.6 1.2
v 3.4 0.6 1.2
v 3.5 0.6 1.2
v 3.6 0.6 1.2
v 3.7 0.6 1.2
v 0.2 0.6 1.1
v 2.1 0.6 1.1
v 2.2 0.6 1.1
v 2.8 0.6 1.1
v 2.9 0.6 1.1
v 3.4 0.6 1.1
v 3.6 0.6 1.1
v 4 0.6 1.1

# faces
f 3/4/1 2/4/1 1/4/1
f 4/4/1 2/4/1 3/4/1
f 11/1/1 6/1/1 5/1/1
f 12/1/1 6/1/1 11/1/1
f 13/3/1 8/3/1 7/3/1
f 14/3/1 8/3/1 13/3/1
f 15/2/1 10/2/1 9/2/1
f 16/2/1 10/2/1 15/2/1
f 21/3/1 18/3/1 17/3/1
f 22/3/1 18/3/1 21/3/1
f 23/1/1 20/1/1 19/1/1
f 24/1/1 20/1/1 23/1/1
f 29/2/1 26/2/1 25/2/1
f 30/2/1 26/2/1 29/2/1
f 31/3/1 28/3/1 27/3/1
f 32/3/1 28/3/1 31/3/1
f 33/1/2 34/1/2 37/1/2
f 37/1/2 34/1/2 38/1/2
f 35/3/2 36/3/2 39/3/2
f 39/3/2 36/3/2 40/3/2
f 41/1/2 42/1/2 47/1/2
f 47/1/2 42/1/2 48/1/2
f 43/2/2 44/2/2 49/2/2
f 44/3/2 45/3/2 50/3/2
f 49/2/2 44/2/2 50/2/2
f 45/2/2 46/2/2 51/2/2
f 50/3/2 45/3/2 51/3/2
f 51/2/2 46/2/2 52/2/2
f 53/3/2 54/3/2 61/3/2
f 54/4/2 55/4/2 62/4/2
f 61/3/2 54/3/2 62/3/2
f 55/3/2 56/3/2 63/3/2
f 62/4/2 55/4/2 63/4/2
f 63/3/2 56/3/2 64/3/2
f 57/2/2 58/2/2 65/2/2
f 65/2/2 58/2/2 66/2/2
f 59/3/2 60/3/2 67/3/2
f 67/3/2 60/3/2 68/3/2
f 69/4/2 70/4/2 71/4/2
f 71/4/2 70/4/2 72/4/2
f 75/4/3 74/4/3 73/4/3
f 76/4/3 74/4/3 75/4/3
f 79/1/3 78/1/3 77/1/3
f 80/1/3 78/1/3 79/1/3
f 83/3/3 82/3/3 81/3/3
f 84/3/3 82/3/3 83/3/3
f 85/4/3 84/4/3 83/4/3
f 86/4/3 84/4/3 85/4/3
f 87/3/3 86/3/3 85/3/3
f 88/3/3 86/3/3 87/3/3
f 91/3/3 90/3/3 89/3/3
f 92/3/3 90/3/3 91/3/3
f 95/1/3 94/1/3 93/1/3
f 96/1/3 94/1/3 95/1/3
f 99/2/3 98/2/3 97/2/3
f 100/2/3 98/2/3 99/2/3
f 103/3/3 102/3/3 101/3/3
f 104/3/3 102/3/3 103/3/3
f 107/2/3 106/2/3 105/2/3
f 108/2/3 106/2/3 107/2/3
f 109/3/3 108/3/3 107/3/3
f 110/3/3 108/3/3 109/3/3
f 111/2/3 110/2/3 109/2/3
f 112/2/3 110/2/3 111/2/3
f 113/1/4 114/1/4 115/1/4
f 115/1/4 114/1/4 116/1/4
f 117/3/4 118/3/4 119/3/4
f 119/3/4 118/3/4 120/3/4
f 121/2/4 122/2/4 123/2/4
f 123/2/4 122/2/4 124/2/4
f 125/3/4 126/3/4 127/3/4
f 127/3/4 126/3/4 128/3/4
f 129/1/4 130/1/4 131/1/4
f 131/1/4 130/1/4 132/1/4
f 133/2/4 134/2/4 135/2/4
f 135/2/4 134/2/4 136/2/4
f 135/3/4 136/3/4 137/3/4
f 137/3/4 136/3/4 138/3/4
f 137/2/4 138/2/4 139/2/4
f 139/2/4 138/2/4 140/2/4
f 141/3/4 142/3/4 143/3/4
f 143/3/4 142/3/4 144/3/4
f 143/4/4 144/4/4 145/4/4
f 145/4/4 144/4/4 146/4/4
f 145/3/4 146/3/4 147/3/4
f 147/3/4 146/3/4 148/3/4
f 149/4/4 150/4/4 151/4/4
f 151/4/4 150/4/4 152/4/4
f 155/4/5 154/4/5 153/4/5
f 156/4/5 154/4/5 155/4/5
f 157/4/5 155/4/5 153/4/5
f 157/3/5 156/3/5 155/3/5
f 158/4/5 154/4/5 156/4/5
f 158/3/5 156/3/5 157/3/5
f 159/4/5 157/4/5 153/4/5
f 159/4/5 158/4/5 157/4/5
f 160/4/5 154/4/5 158/4/5
f 160/4/5 158/4/5 159/4/5
f 161/4/6 162/4/6 163/4/6
f 163/4/6 162/4/6 164/4/6
f 164/4/6 162/4/6 165/4/6
f 165/4/6 162/4/6 166/4/6
f 166/4/6 162/4/6 167/4/6
f 167/4/6 162/4/6 168/4/6
f 168/4/6 162/4/6 169/4/6
f 169/4/6 162/4/6 170/4/6
f 161/4/6 163/4/6 171/4/6
f 164/4/6 165/4/6 172/4/6
f 161/4/6 171/4/6 173/4/6
f 171/4/6 172/4/6 173/4/6
f 172/4/6 165/4/6 174/4/6
f 173/4/6 172/4/6 174/4/6
f 174/4/6 165/4/6 175/4/6
f 170/4/6 162/4/6 176/4/6
f 174/4/6 175/4/6 177/4/6
f 175/4/6 176/4/6 177/4/6
f 177/4/6 176/4/6 178/4/6
f 178/4/6 176/4/6 179/4/6
f 176/4/6 162/4/6 180/4/6
f 179/4/6 176/4/6 180/4/6
f 178/4/6 179/4/6 181/4/6
f 180/4/6 162/4/6 182/4/6
f 178/4/6 181/4/6 183/4/6
f 181/4/6 182/4/6 183/4/6
f 182/4/6 162/4/6 184/4/6
f 183/4/6 182/4/6 184/4/6
f 161/4/6 173/4/6 185/4/6
f 174/4/6 177/4/6 186/4/6
f 186/4/6 177/4/6 187/4/6
f 178/4/6 183/4/6 188/4/6
f 186/4/6 187/4/6 189/4/6
f 187/4/6 188/4/6 189/4/6
f 161/4/6 185/4/6 189/4/6
f 185/4/6 186/4/6 189/4/6
f 189/4/6 188/4/6 190/4/6
f 190/4/6 188/4/6 191/4/6
f 188/4/6 183/4/6 192/4/6
f 191/4/6 188/4/6 192/4/6
f 192/4/6 183/4/6 193/4/6
f 193/4/6 183/4/6 194/4/6
f 161/4/6 189/4/6 195/4/6
f 194/4/6 183/4/6 198/4/6
f 198/4/6 183/4/6 199/4/6
f 184/4/6 162/4/6 202/4/6
f 196/4/6 197/4/6 203/4/6
f 201/4/6 202/4/6 203/4/6
f 200/4/6 201/4/6 203/4/6
f 161/4/6 195/4/6 203/4/6
f 199/4/6 200/4/6 203/4/6
f 198/4/6 199/4/6 203/4/6
f 197/4/6 198/4/6 203/4/6
f 195/4/6 196/4/6 203/4/6
f 202/4/6 162/4/6 204/4/6
f 203/4/6 202/4/6 204/4/6
f 205/1/6 206/1/6 211/1/6
f 211/1/6 206/1/6 212/1/6
f 209/3/6 210/3/6 213/3/6
f 208/4/6 209/4/6 213/4/6
f 213/3/6 210/3/6 214/3/6
f 211/3/6 212/3/6 215/3/6
f 205/1/6 211/1/6 215/1/6
f 215/3/6 212/3/6 216/3/6
f 212/1/6 206/1/6 217/1/6
f 216/3/6 212/3/6 217/3/6
f 217/1/6 206/1/6 218/1/6
f 207/3/6 208/3/6 219/3/6
f 213/4/6 214/4/6 219/4/6
f 208/4/6 213/4/6 219/4/6
f 219/4/6 214/4/6 220/4/6
f 214/3/6 210/3/6 221/3/6
f 220/4/6 214/4/6 221/4/6
f 221/3/6 210/3/6 222/3/6
f 215/1/6 216/1/6 223/1/6
f 217/3/6 218/3/6 223/3/6
f 216/3/6 217/3/6 223/3/6
f 223/3/6 218/3/6 224/3/6
f 218/1/6 206/1/6 225/1/6
f 224/3/6 218/3/6 225/3/6
f 225/1/6 206/1/6 226/1/6
f 219/3/6 220/3/6 227/3/6
f 221/4/6 222/4/6 227/4/6
f 220/4/6 221/4/6 227/4/6
f 227/4/6 222/4/6 228/4/6
f 222/3/6 210/3/6 229/3/6
f 228/4/6 222/4/6 229/4/6
f 229/3/6 210/3/6 230/3/6
f 223/1/6 224/1/6 231/1/6
f 225/3/6 226/3/6 231/3/6
f 224/3/6 225/3/6 231/3/6
f 231/3/6 226/3/6 232/3/6
f 226/1/6 206/1/6 233/1/6
f 232/3/6 226/3/6 233/3/6
f 233/1/6 206/1/6 234/1/6
f 227/3/6 228/3/6 235/3/6
f 229/4/6 230/4/6 235/4/6
f 228/4/6 229/4/6 235/4/6
f 235/4/6 230/4/6 236/4/6
f 231/1/6 232/1/6 237/1/6
f 233/3/6 234/3/6 237/3/6
f 232/3/6 233/3/6 237/3/6
f 234/1/6 206/1/6 238/1/6
f 237/3/6 234/3/6 238/3/6
f 235/3/6 236/3/6 239/3/6
f 227/3/6 235/3/6 239/3/6
f 207/3/6 219/3/6 239/3/6
f 219/3/6 227/3/6 239/3/6
f 239/3/6 236/3/6 240/3/6
f 231/1/6 237/1/6 241/1/6
f 237/1/6 238/1/6 241/1/6
f 205/1/6 215/1/6 241/1/6
f 223/1/6 231/1/6 241/1/6
f 215/1/6 223/1/6 241/1/6
f 238/1/6 206/1/6 242/1/6
f 241/1/6 238/1/6 242/1/6
f 240/3/6 236/3/6 243/3/6
f 239/4/6 240/4/6 243/4/6
f 243/3/6 236/3/6 244/3/6
f 244/3/6 236/3/6 245/3/6
f 245/3/6 236/3/6 246/3/6
f 207/3/6 239/3/6 249/3/6
f 239/4/6 243/4/6 249/4/6
f 243/4/6 244/4/6 249/4/6
f 249/4/6 244/4/6 250/4/6
f 244/3/6 245/3/6 251/3/6
f 245/4/6 246/4/6 252/4/6
f 251/3/6 245/3/6 252/3/6
f 252/4/6 246/4/6 253/4/6
f 246/3/6 236/3/6 254/3/6
f 253/4/6 246/4/6 254/4/6
f 250/4/6 244/4/6 255/4/6
f 249/3/6 250/3/6 255/3/6
f 244/3/6 251/3/6 256/3/6
f 255/4/6 244/4/6 256/4/6
f 256/3/6 251/3/6 257/3/6
f 257/3/6 251/3/6 258/3/6
f 252/4/6 253/4/6 259/4/6
f 258/3/6 251/3/6 259/3/6
f 251/4/6 252/4/6 259/4/6
f 259/4/6 253/4/6 260/4/6
f 253/3/6 254/3/6 261/3/6
f 260/4/6 253/4/6 261/4/6
f 247/3/6 248/3/6 262/3/6
f 262/3/6 248/3/6 263/3/6
f 257/3/6 258/3/6 264/3/6
f 256/4/6 257/4/6 264/4/6
f 264/3/6 258/3/6 265/3/6
f 259/4/6 260/4/6 266/4/6
f 258/4/6 259/4/6 266/4/6
f 260/3/6 261/3/6 267/3/6
f 266/4/6 260/4/6 267/4/6
f 247/3/6 262/3/6 268/3/6
f 262/4/6 263/4/6 269/4/6
f 268/3/6 262/3/6 269/3/6
f 269/4/6 263/4/6 270/4/6
f 263/3/6 248/3/6 271/3/6
f 270/4/6 263/4/6 271/4/6
f 265/3/6 258/3/6 272/3/6
f 264/4/6 265/4/6 272/4/6
f 258/4/6 266/4/6 273/4/6
f 272/3/6 258/3/6 273/3/6
f 247/3/6 268/3/6 274/3/6
f 269/4/6 270/4/6 275/4/6
f 274/3/6 268/3/6 275/3/6
f 268/4/6 269/4/6 275/4/6
f 275/4/6 270/4/6 276/4/6
f 270/3/6 271/3/6 277/3/6
f 276/4/6 270/4/6 277/4/6
f 264/4/6 272/4/6 278/4/6
f 256/4/6 264/4/6 278/4/6
f 272/4/6 273/4/6 278/4/6
f 273/4/6 266/4/6 279/4/6
f 278/4/6 273/4/6 279/4/6
f 266/3/6 267/3/6 279/3/6
f 261/3/6 254/3/6 280/3/6
f 279/3/6 267/3/6 280/3/6
f 267/3/6 261/3/6 280/3/6
f 247/3/6 274/3/6 281/3/6
f 275/4/6 276/4/6 281/4/6
f 274/4/6 275/4/6 281/4/6
f 276/3/6 277/3/6 282/3/6
f 281/4/6 276/4/6 282/4/6
f 249/3/6 255/3/6 283/3/6
f 255/3/6 256/3/6 283/3/6
f 256/4/6 278/4/6 284/4/6
f 283/3/6 256/3/6 284/3/6
f 278/3/6 279/3/6 285/3/6
f 279/4/6 280/4/6 285/4/6
f 285/4/6 280/4/6 286/4/6
f 249/3/6 283/3/6 287/3/6
f 283/4/6 284/4/6 287/4/6
f 284/4/6 278/4/6 288/4/6
f 287/4/6 284/4/6 288/4/6
f 285/3/6 286/3/6 288/3/6
f 278/3/6 285/3/6 288/3/6
f 286/4/6 280/4/6 289/4/6
f 288/3/6 286/3/6 289/3/6
f 280/3/6 254/3/6 290/3/6
f 289/4/6 280/4/6 290/4/6
f 288/3/6 289/3/6 291/3/6
f 249/3/6 287/3/6 291/3/6
f 289/3/6 290/3/6 291/3/6
f 207/3/6 249/3/6 291/3/6
f 287/3/6 288/3/6 291/3/6
f 290/3/6 254/3/6 292/3/6
f 291/3/6 290/3/6 292/3/6
f 254/3/6 236/3/6 292/3/6
f 282/3/6 277/3/6 293/3/6
f 281/3/6 282/3/6 293/3/6
f 293/3/6 277/3/6 294/3/6
f 281/3/6 293/3/6 299/3/6
f 293/4/6 294/4/6 300/4/6
f 299/3/6 293/3/6 300/3/6
f 297/2/6 298/2/6 301/2/6
f 301/2/6 298/2/6 302/2/6
f 281/3/6 299/3/6 303/3/6
f 299/4/6 300/4/6 304/4/6
f 303/3/6 299/3/6 304/3/6
f 300/4/6 294/4/6 305/4/6
f 304/4/6 300/4/6 305/4/6
f 294/3/6 277/3/6 305/3/6
f 277/3/6 271/3/6 306/3/6
f 305/3/6 277/3/6 306/3/6
f 295/1/6 296/1/6 307/1/6
f 307/1/6 296/1/6 308/1/6
f 302/2/6 298/2/6 309/2/6
f 301/3/6 302/3/6 309/3/6
f 309/2/6 298/2/6 310/2/6
f 310/2/6 298/2/6 311/2/6
f 311/2/6 298/2/6 312/2/6
f 281/3/6 303/3/6 313/3/6
f 304/4/6 305/4/6 314/4/6
f 313/3/6 303/3/6 314/3/6
f 303/4/6 304/4/6 314/4/6
f 305/4/6 306/4/6 314/4/6
f 314/4/6 306/4/6 315/4/6
f 306/3/6 271/3/6 316/3/6
f 315/4/6 306/4/6 316/4/6
f 307/3/6 308/3/6 317/3/6
f 295/1/6 307/1/6 317/1/6
f 317/3/6 308/3/6 318/3/6
f 308/1/6 296/1/6 319/1/6
f 318/3/6 308/3/6 319/3/6
f 319/1/6 296/1/6 320/1/6
f 297/2/6 301/2/6 321/2/6
f 301/3/6 309/3/6 321/3/6
f 309/3/6 310/3/6 321/3/6
f 321/3/6 310/3/6 322/3/6
f 310/2/6 311/2/6 323/2/6
f 322/3/6 310/3/6 323/3/6
f 311/3/6 312/3/6 324/3/6
f 323/2/6 311/2/6 324/2/6
f 314/4/6 315/4/6 325/4/6
f 313/4/6 314/4/6 325/4/6
f 315/3/6 316/3/6 326/3/6
f 325/4/6 315/4/6 326/4/6
f 317/1/6 318/1/6 327/1/6
f 319/3/6 320/3/6 327/3/6
f 318/3/6 319/3/6 327/3/6
f 327/3/6 320/3/6 328/3/6
f 322/3/6 323/3/6 329/3/6
f 321/2/6 322/2/6 329/2/6
f 323/3/6 324/3/6 329/3/6
f 324/3/6 312/3/6 330/3/6
f 329/3/6 324/3/6 330/3/6
f 312/2/6 298/2/6 330/2/6
f 313/4/6 325/4/6 331/4/6
f 325/3/6 326/3/6 331/3/6
f 326/3/6 316/3/6 332/3/6
f 331/3/6 326/3/6 332/3/6
f 328/3/6 320/3/6 333/3/6
f 320/1/6 296/1/6 333/1/6
f 333/1/6 296/1/6 334/1/6
f 281/3/6 313/3/6 335/3/6
f 313/4/6 331/4/6 335/4/6
f 331/4/6 332/4/6 335/4/6
f 335/4/6 332/4/6 336/4/6
f 332/3/6 316/3/6 337/3/6
f 336/4/6 332/4/6 337/4/6
f 271/3/6 248/3/6 338/3/6
f 337/3/6 316/3/6 338/3/6
f 316/3/6 271/3/6 338/3/6
f 333/3/6 334/3/6 339/3/6
f 328/3/6 333/3/6 339/3/6
f 327/1/6 328/1/6 339/1/6
f 339/3/6 334/3/6 340/3/6
f 321/2/6 329/2/6 341/2/6
f 329/2/6 330/2/6 341/2/6
f 297/2/6 321/2/6 341/2/6
f 330/2/6 298/2/6 342/2/6
f 341/2/6 330/2/6 342/2/6
f 336/4/6 337/4/6 343/4/6
f 335/3/6 336/3/6 343/3/6
f 337/4/6 338/4/6 343/4/6
f 343/4/6 338/4/6 344/4/6
f 344/4/6 338/4/6 345/4/6
f 338/3/6 248/3/6 346/3/6
f 345/4/6 338/4/6 346/4/6
f 340/3/6 334/3/6 347/3/6
f 339/1/6 340/1/6 347/1/6
f 334/1/6 296/1/6 348/1/6
f 347/3/6 334/3/6 348/3/6
f 344/4/6 345/4/6 351/4/6
f 343/3/6 344/3/6 351/3/6
f 351/4/6 345/4/6 352/4/6
f 345/3/6 346/3/6 353/3/6
f 352/4/6 345/4/6 353/4/6
f 353/3/6 346/3/6 354/3/6
f 351/3/6 352/3/6 355/3/6
f 352/4/6 353/4/6 355/4/6
f 353/4/6 354/4/6 355/4/6
f 354/3/6 346/3/6 356/3/6
f 355/4/6 354/4/6 356/4/6
f 247/3/6 281/3/6 357/3/6
f 281/3/6 335/3/6 357/3/6
f 355/3/6 356/3/6 357/3/6
f 343/3/6 351/3/6 357/3/6
f 351/3/6 355/3/6 357/3/6
f 335/3/6 343/3/6 357/3/6
f 356/3/6 346/3/6 358/3/6
f 357/3/6 356/3/6 358/3/6
f 346/3/6 248/3/6 358/3/6
f 339/1/6 347/1/6 359/1/6
f 327/1/6 339/1/6 359/1/6
f 317/1/6 327/1/6 359/1/6
f 347/1/6 348/1/6 359/1/6
f 295/1/6 317/1/6 359/1/6
f 348/1/6 296/1/6 360/1/6
f 359/1/6 348/1/6 360/1/6
f 349/3/6 350/3/6 365/3/6
f 365/3/6 350/3/6 366/3/6
f 362/3/6 363/3/6 367/3/6
f 361/2/6 362/2/6 367/2/6
f 363/2/6 364/2/6 368/2/6
f 367/3/6 363/3/6 368/3/6
f 368/2/6 364/2/6 369/2/6
f 365/4/6 366/4/6 370/4/6
f 349/3/6 365/3/6 370/3/6
f 370/4/6 366/4/6 371/4/6
f 361/2/6 367/2/6 372/2/6
f 367/2/6 368/2/6 372/2/6
f 372/2/6 368/2/6 373/2/6
f 373/2/6 368/2/6 374/2/6
f 374/2/6 368/2/6 375/2/6
f 361/2/6 372/2/6 376/2/6
f 372/3/6 373/3/6 377/3/6
f 376/2/6 372/2/6 377/2/6
f 377/3/6 373/3/6 378/3/6
f 373/2/6 374/2/6 379/2/6
f 378/3/6 373/3/6 379/3/6
f 371/4/6 366/4/6 380/4/6
f 366/3/6 350/3/6 380/3/6
f 380/3/6 350/3/6 381/3/6
f 377/3/6 378/3/6 382/3/6
f 376/3/6 377/3/6 382/3/6
f 378/2/6 379/2/6 383/2/6
f 382/3/6 378/3/6 383/3/6
f 379/2/6 374/2/6 384/2/6
f 383/2/6 379/2/6 384/2/6
f 384/2/6 374/2/6 385/2/6
f 368/3/6 369/3/6 386/3/6
f 375/2/6 368/2/6 386/2/6
f 369/2/6 364/2/6 387/2/6
f 386/3/6 369/3/6 387/3/6
f 387/2/6 364/2/6 388/2/6
f 388/2/6 364/2/6 389/2/6
f 389/2/6 364/2/6 390/2/6
f 370/3/6 371/3/6 391/3/6
f 380/4/6 381/4/6 391/4/6
f 371/4/6 380/4/6 391/4/6
f 391/4/6 381/4/6 392/4/6
f 361/2/6 376/2/6 393/2/6
f 376/3/6 382/3/6 394/3/6
f 393/2/6 376/2/6 394/2/6
f 382/2/6 383/2/6 395/2/6
f 394/3/6 382/3/6 395/3/6
f 383/2/6 384/2/6 395/2/6
f 385/2/6 374/2/6 396/2/6
f 374/3/6 375/3/6 397/3/6
f 396/2/6 374/2/6 397/2/6
f 375/2/6 386/2/6 398/2/6
f 397/3/6 375/3/6 398/3/6
f 386/2/6 387/2/6 398/2/6
f 387/3/6 388/3/6 399/3/6
f 398/2/6 387/2/6 399/2/6
f 399/3/6 388/3/6 400/3/6
f 388/2/6 389/2/6 401/2/6
f 400/3/6 388/3/6 401/3/6
f 401/2/6 389/2/6 402/2/6
f 402/2/6 389/2/6 403/2/6
f 389/3/6 390/3/6 404/3/6
f 403/2/6 389/2/6 404/2/6
f 404/3/6 390/3/6 405/3/6
f 405/3/6 390/3/6 406/3/6
f 392/4/6 381/4/6 407/4/6
f 391/3/6 392/3/6 407/3/6
f 381/3/6 350/3/6 408/3/6
f 407/4/6 381/4/6 408/4/6
f 393/3/6 394/3/6 409/3/6
f 394/2/6 395/2/6 409/2/6
f 395/2/6 384/2/6 410/2/6
f 409/2/6 395/2/6 410/2/6
f 384/3/6 385/3/6 410/3/6
f 385/2/6 396/2/6 411/2/6
f 410/3/6 385/3/6 411/3/6
f 396/3/6 397/3/6 412/3/6
f 411/2/6 396/2/6 412/2/6
f 399/2/6 400/2/6 413/2/6
f 412/3/6 397/3/6 413/3/6
f 397/2/6 398/2/6 413/2/6
f 398/2/6 399/2/6 413/2/6
f 413/2/6 400/2/6 414/2/6
f 401/3/6 402/3/6 415/3/6
f 414/2/6 400/2/6 415/2/6
f 400/3/6 401/3/6 415/3/6
f 415/3/6 402/3/6 416/3/6
f 402/2/6 403/2/6 417/2/6
f 416/3/6 402/3/6 417/3/6
f 403/3/6 404/3/6 418/3/6
f 417/2/6 403/2/6 418/2/6
f 404/3/6 405/3/6 418/3/6
f 418/3/6 405/3/6 419/3/6
f 405/2/6 406/2/6 420/2/6
f 419/3/6 405/3/6 420/3/6
f 410/3/6 411/3/6 421/3/6
f 393/3/6 409/3/6 421/3/6
f 409/3/6 410/3/6 421/3/6
f 411/3/6 412/3/6 421/3/6
f 412/3/6 413/3/6 421/3/6
f 413/3/6 414/3/6 421/3/6
f 421/3/6 414/3/6 422/3/6
f 422/3/6 414/3/6 423/3/6
f 423/3/6 414/3/6 424/3/6
f 415/2/6 416/2/6 425/2/6
f 424/3/6 414/3/6 425/3/6
f 414/2/6 415/2/6 425/2/6
f 425/2/6 416/2/6 426/2/6
f 416/3/6 417/3/6 427/3/6
f 426/2/6 416/2/6 427/2/6
f 418/3/6 419/3/6 427/3/6
f 417/3/6 418/3/6 427/3/6
f 427/3/6 419/3/6 428/3/6
f 428/3/6 419/3/6 429/3/6
f 419/2/6 420/2/6 430/2/6
f 429/3/6 419/3/6 430/3/6
f 408/3/6 350/3/6 431/3/6
f 407/3/6 408/3/6 431/3/6
f 431/3/6 350/3/6 432/3/6
f 361/2/6 393/2/6 433/2/6
f 393/3/6 421/3/6 434/3/6
f 433/2/6 393/2/6 434/2/6
f 421/2/6 422/2/6 435/2/6
f 422/3/6 423/3/6 435/3/6
f 423/2/6 424/2/6 436/2/6
f 435/3/6 423/3/6 436/3/6
f 425/3/6 426/3/6 437/3/6
f 436/2/6 424/2/6 437/2/6
f 424/3/6 425/3/6 437/3/6
f 437/3/6 426/3/6 438/3/6
f 426/2/6 427/2/6 439/2/6
f 427/2/6 428/2/6 439/2/6
f 428/3/6 429/3/6 440/3/6
f 439/2/6 428/2/6 440/2/6
f 429/2/6 430/2/6 441/2/6
f 440/3/6 429/3/6 441/3/6
f 407/3/6 431/3/6 442/3/6
f 431/4/6 432/4/6 443/4/6
f 442/3/6 431/3/6 443/3/6
f 443/4/6 432/4/6 444/4/6
f 432/3/6 350/3/6 445/3/6
f 444/4/6 432/4/6 445/4/6
f 433/3/6 434/3/6 446/3/6
f 361/2/6 433/2/6 446/2/6
f 421/2/6 435/2/6 447/2/6
f 446/3/6 434/3/6 447/3/6
f 435/2/6 436/2/6 447/2/6
f 434/3/6 421/3/6 447/3/6
f 437/2/6 438/2/6 447/2/6
f 436/2/6 437/2/6 447/2/6
f 438/3/6 426/3/6 448/3/6
f 447/2/6 438/2/6 448/2/6
f 426/2/6 439/2/6 449/2/6
f 448/3/6 426/3/6 449/3/6
f 449/2/6 439/2/6 450/2/6
f 439/3/6 440/3/6 451/3/6
f 450/2/6 439/2/6 451/2/6
f 407/3/6 442/3/6 452/3/6
f 443/4/6 444/4/6 453/4/6
f 452/3/6 442/3/6 453/3/6
f 442/4/6 443/4/6 453/4/6
f 453/4/6 444/4/6 454/4/6
f 444/3/6 445/3/6 455/3/6
f 454/4/6 444/4/6 455/4/6
f 447/2/6 448/2/6 456/2/6
f 449/2/6 450/2/6 456/2/6
f 446/2/6 447/2/6 456/2/6
f 448/2/6 449/2/6 456/2/6
f 450/3/6 451/3/6 457/3/6
f 456/2/6 450/2/6 457/2/6
f 451/3/6 440/3/6 458/3/6
f 457/3/6 451/3/6 458/3/6
f 440/2/6 441/2/6 458/2/6
f 407/3/6 452/3/6 459/3/6
f 391/3/6 407/3/6 459/3/6
f 453/4/6 454/4/6 460/4/6
f 459/3/6 452/3/6 460/3/6
f 452/4/6 453/4/6 460/4/6
f 460/4/6 454/4/6 461/4/6
f 454/3/6 455/3/6 462/3/6
f 461/4/6 454/4/6 462/4/6
f 361/2/6 446/2/6 463/2/6
f 446/2/6 456/2/6 463/2/6
f 456/3/6 457/3/6 464/3/6
f 463/2/6 456/2/6 464/2/6
f 457/2/6 458/2/6 465/2/6
f 464/3/6 457/3/6 465/3/6
f 430/2/6 420/2/6 466/2/6
f 465/2/6 458/2/6 466/2/6
f 458/2/6 441/2/6 466/2/6
f 420/2/6 406/2/6 466/2/6
f 441/2/6 430/2/6 466/2/6
f 391/3/6 459/3/6 467/3/6
f 349/3/6 370/3/6 467/3/6
f 370/3/6 391/3/6 467/3/6
f 459/4/6 460/4/6 468/4/6
f 467/3/6 459/3/6 468/3/6
f 460/4/6 461/4/6 468/4/6
f 461/3/6 462/3/6 469/3/6
f 468/4/6 461/4/6 469/4/6
f 455/3/6 445/3/6 470/3/6
f 469/3/6 462/3/6 470/3/6
f 462/3/6 455/3/6 470/3/6
f 445/3/6 350/3/6 470/3/6
