# MagicaVoxel @ Ephtracy

# group
o LlegUp

# material
mtllib Character-12-LlegUp.mtl
usemtl palette

# normals
vn -1 0 0
vn 1 0 0
vn 0 0 1
vn 0 0 -1
vn 0 -1 0
vn 0 1 0

# texcoords
vt 0.0332031 0.5
vt 0.900391 0.5

# verts
v -1.4 5 0.6
v -1.4 5 -0.8
v -1.4 5.2 0.6
v -1.4 5.2 -0.8
v -1.3 3.2 0.4
v -1.3 3.2 -0.7
v -1.3 4.7 0.7
v -1.3 4.7 0.4
v -1.3 4.7 -0.7
v -1.3 4.7 -0.9
v -1.3 5 0.6
v -1.3 5 -0.8
v -1.3 5.2 0.7
v -1.3 5.2 0.6
v -1.3 5.2 -0.8
v -1.3 5.2 -0.9
v -1.2 3.2 -0.7
v -1.2 3.2 -0.8
v -1.2 3.3 0.5
v -1.2 3.3 0.4
v -1.2 4.7 0.8
v -1.2 4.7 0.7
v -1.2 4.7 0.5
v -1.2 4.7 0.4
v -1.2 4.7 -0.7
v -1.2 4.7 -0.8
v -1.2 4.7 -0.9
v -1.2 4.7 -1
v -1.2 5.2 0.8
v -1.2 5.2 0.7
v -1.2 5.2 -0.9
v -1.2 5.2 -1
v -1.1 3.6 -0.8
v -1.1 3.6 -0.9
v -1.1 4.7 0.9
v -1.1 4.7 0.8
v -1.1 4.7 -0.8
v -1.1 4.7 -0.9
v -1.1 4.8 -1
v -1.1 4.8 -1.1
v -1.1 5.2 0.9
v -1.1 5.2 0.8
v -1.1 5.2 -1
v -1.1 5.2 -1.1
v -1 3.2 -0.8
v -1 3.2 -0.9
v -1 3.3 -0.8
v -1 3.3 -0.9
v -0.7 3.3 0.4
v -0.7 3.3 -0.6
v -0.7 3.4 0.4
v -0.7 3.4 -0.6
v -0.7 3.6 -0.7
v -0.7 3.6 -0.8
v -0.7 3.7 -0.7
v -0.7 3.7 -0.8
v -0.6 3.4 0.4
v -0.6 3.4 -0.7
v -0.6 3.7 -0.7
v -0.6 3.7 -0.8
v -0.6 3.9 0.2
v -0.6 3.9 -0.5
v -0.6 4 0.3
v -0.6 4 0.2
v -0.6 4 -0.5
v -0.6 4 -0.6
v -0.6 4.1 0.4
v -0.6 4.1 0.3
v -0.6 4.1 -0.6
v -0.6 4.1 -0.7
v -0.6 4.7 -0.7
v -0.6 4.7 -0.8
v -0.5 3.9 0.2
v -0.5 3.9 -0.5
v -0.5 4 0.3
v -0.5 4 0.2
v -0.5 4 -0.5
v -0.5 4 -0.6
v -0.5 4.1 0.4
v -0.5 4.1 0.3
v -0.5 4.1 -0.6
v -0.5 4.1 -0.7
v -0.5 4.7 0.5
v -0.5 4.7 0.4
v -0.5 4.7 -0.7
v -0.5 4.7 -0.8
v -0.5 4.8 0.5
v -0.5 4.8 -0.8
v -0.5 4.8 -0.9
v -0.5 4.9 0.6
v -0.5 4.9 0.5
v -0.5 4.9 -0.8
v -0.5 4.9 -0.9
v -0.5 5 0.7
v -0.5 5 0.6
v -0.5 5 0.5
v -0.5 5.1 0.7
v -0.5 5.1 0.6
v -0.4 4.8 0.5
v -0.4 4.8 -0.8
v -0.4 4.9 -0.8
v -0.4 4.9 -0.9
v -0.4 5 0.6
v -0.4 5 0.5
v -0.4 5.1 0.6
v -0.4 5.1 -0.9
v -1.3 5 0.3
v -1.3 5 -0.5
v -1.3 5.1 0.3
v -1.3 5.1 -0.5
v -1.2 3.5 0.2
v -1.2 3.5 -0.5
v -1.2 3.6 0.3
v -1.2 3.6 0.2
v -1.2 3.6 -0.5
v -1.2 3.6 -0.6
v -1.2 3.7 0.4
v -1.2 3.7 0.3
v -1.2 3.7 -0.6
v -1.2 3.7 -0.7
v -1.2 4.7 0.4
v -1.2 4.7 -0.7
v -1.2 4.8 -0.7
v -1.2 5 0.5
v -1.2 5 0.4
v -1.2 5 0.3
v -1.2 5 -0.5
v -1.2 5.1 0.5
v -1.2 5.1 0.3
v -1.2 5.1 -0.5
v -1.2 5.1 -0.7
v -1.1 3.4 0.4
v -1.1 3.4 -0.7
v -1.1 3.5 0.2
v -1.1 3.5 -0.5
v -1.1 3.6 0.3
v -1.1 3.6 0.2
v -1.1 3.6 -0.5
v -1.1 3.6 -0.6
v -1.1 3.7 0.4
v -1.1 3.7 0.3
v -1.1 3.7 -0.6
v -1.1 3.7 -0.7
v -1.1 3.7 -0.8
v -1.1 4.7 0.5
v -1.1 4.7 0.4
v -1.1 4.7 -0.8
v -1.1 4.8 -0.7
v -1.1 4.8 -0.8
v -1.1 5 0.6
v -1.1 5 0.5
v -1.1 5 0.4
v -1.1 5.1 0.6
v -1.1 5.1 0.5
v -1.1 5.1 -0.7
v -1.1 5.1 -0.8
v -1 3.3 0.4
v -1 3.3 -0.6
v -1 3.4 0.4
v -1 3.4 -0.6
v -1 3.6 -0.7
v -1 3.6 -0.8
v -1 3.7 -0.7
v -1 3.7 -0.8
v -1 4.9 0.6
v -1 4.9 0.5
v -1 5 0.7
v -1 5 0.6
v -1 5 0.5
v -1 5.1 0.7
v -1 5.1 0.6
v -0.8 5 -0.8
v -0.8 5 -0.9
v -0.8 5.1 -0.8
v -0.8 5.1 -0.9
v -0.7 3.2 -0.8
v -0.7 3.2 -0.9
v -0.7 3.3 -0.8
v -0.7 3.3 -0.9
v -0.7 4.9 -0.8
v -0.7 4.9 -0.9
v -0.7 5 -0.8
v -0.7 5 -0.9
v -0.6 3.2 0.4
v -0.6 3.2 -0.8
v -0.6 3.3 0.5
v -0.6 3.3 0.4
v -0.6 3.4 0.5
v -0.6 3.4 -0.8
v -0.6 3.6 -0.8
v -0.6 3.6 -0.9
v -0.6 4.7 -0.8
v -0.6 4.7 -0.9
v -0.6 4.8 -0.8
v -0.6 4.8 -0.9
v -0.6 4.9 -0.8
v -0.6 4.9 -0.9
v -0.5 3.4 0.5
v -0.5 3.4 -0.8
v -0.5 3.9 0.5
v -0.5 3.9 -0.7
v -0.5 4.7 -0.7
v -0.5 4.7 -0.8
v -0.4 3.9 0.5
v -0.4 3.9 -0.7
v -0.4 4.7 0.9
v -0.4 4.7 0.5
v -0.4 4.7 -0.7
v -0.4 4.7 -1
v -0.4 4.8 0.8
v -0.4 4.8 -1
v -0.4 4.9 0.9
v -0.4 4.9 0.8
v -0.3 4.8 0.8
v -0.3 4.8 -1.1
v -0.3 4.9 0.9
v -0.3 4.9 0.8
v -0.3 5.2 0.9
v -0.3 5.2 -1.1
v -1.1 4.7 0.9
v -1.1 5.2 0.9
v -0.4 4.7 0.9
v -0.4 4.9 0.9
v -0.3 4.9 0.9
v -0.3 5.2 0.9
v -1.2 4.7 0.8
v -1.2 5.2 0.8
v -1.1 4.7 0.8
v -1.1 5.2 0.8
v -0.4 4.8 0.8
v -0.4 4.9 0.8
v -0.3 4.8 0.8
v -0.3 4.9 0.8
v -1.3 4.7 0.7
v -1.3 5.2 0.7
v -1.2 4.7 0.7
v -1.2 5.2 0.7
v -1.4 5 0.6
v -1.4 5.2 0.6
v -1.3 5 0.6
v -1.3 5.2 0.6
v -1.2 3.3 0.5
v -1.2 4.7 0.5
v -0.6 3.3 0.5
v -0.6 3.4 0.5
v -0.5 3.4 0.5
v -0.5 3.9 0.5
v -0.4 3.9 0.5
v -0.4 4.7 0.5
v -1.3 3.2 0.4
v -1.3 4.7 0.4
v -1.2 3.3 0.4
v -1.2 4.7 0.4
v -0.6 3.2 0.4
v -0.6 3.3 0.4
v -1.3 5 -0.5
v -1.3 5.1 -0.5
v -1.2 3.5 -0.5
v -1.2 3.6 -0.5
v -1.2 5 -0.5
v -1.2 5.1 -0.5
v -1.1 3.5 -0.5
v -1.1 3.6 -0.5
v -0.6 3.9 -0.5
v -0.6 4 -0.5
v -0.5 3.9 -0.5
v -0.5 4 -0.5
v -1.2 3.6 -0.6
v -1.2 3.7 -0.6
v -1.1 3.6 -0.6
v -1.1 3.7 -0.6
v -1 3.3 -0.6
v -1 3.4 -0.6
v -0.7 3.3 -0.6
v -0.7 3.4 -0.6
v -0.6 4 -0.6
v -0.6 4.1 -0.6
v -0.5 4 -0.6
v -0.5 4.1 -0.6
v -1.2 3.7 -0.7
v -1.2 4.7 -0.7
v -1.2 4.8 -0.7
v -1.2 5.1 -0.7
v -1.1 3.4 -0.7
v -1.1 3.7 -0.7
v -1.1 4.8 -0.7
v -1.1 5.1 -0.7
v -1 3.6 -0.7
v -1 3.7 -0.7
v -0.7 3.6 -0.7
v -0.7 3.7 -0.7
v -0.6 3.4 -0.7
v -0.6 3.7 -0.7
v -0.6 4.1 -0.7
v -0.6 4.7 -0.7
v -0.5 4.1 -0.7
v -0.5 4.7 -0.7
v -1.1 3.7 -0.8
v -1.1 4.7 -0.8
v -1.1 4.8 -0.8
v -1.1 5.1 -0.8
v -1 3.6 -0.8
v -1 3.7 -0.8
v -0.8 5 -0.8
v -0.8 5.1 -0.8
v -0.7 3.6 -0.8
v -0.7 3.7 -0.8
v -0.7 4.9 -0.8
v -0.7 5 -0.8
v -0.6 3.7 -0.8
v -0.6 4.7 -0.8
v -0.6 4.8 -0.8
v -0.6 4.9 -0.8
v -0.5 4.7 -0.8
v -0.5 4.8 -0.8
v -0.5 4.9 -0.8
v -0.4 4.8 -0.8
v -0.4 4.9 -0.8
v -0.8 5 -0.9
v -0.8 5.1 -0.9
v -0.7 4.9 -0.9
v -0.7 5 -0.9
v -0.6 4.8 -0.9
v -0.6 4.9 -0.9
v -0.5 4.8 -0.9
v -0.5 4.9 -0.9
v -0.4 4.9 -0.9
v -0.4 5.1 -0.9
v -1 5 0.7
v -1 5.1 0.7
v -0.5 5 0.7
v -0.5 5.1 0.7
v -1.1 5 0.6
v -1.1 5.1 0.6
v -1 4.9 0.6
v -1 5 0.6
v -1 5.1 0.6
v -0.5 4.9 0.6
v -0.5 5 0.6
v -0.5 5.1 0.6
v -0.4 5 0.6
v -0.4 5.1 0.6
v -1.2 5 0.5
v -1.2 5.1 0.5
v -1.1 4.7 0.5
v -1.1 5 0.5
v -1.1 5.1 0.5
v -1 4.9 0.5
v -1 5 0.5
v -0.5 4.7 0.5
v -0.5 4.8 0.5
v -0.5 4.9 0.5
v -0.5 5 0.5
v -0.4 4.8 0.5
v -0.4 5 0.5
v -1.2 3.7 0.4
v -1.2 4.7 0.4
v -1.2 5 0.4
v -1.1 3.4 0.4
v -1.1 3.7 0.4
v -1.1 4.7 0.4
v -1.1 5 0.4
v -1 3.3 0.4
v -1 3.4 0.4
v -0.7 3.3 0.4
v -0.7 3.4 0.4
v -0.6 3.4 0.4
v -0.6 4.1 0.4
v -0.5 4.1 0.4
v -0.5 4.7 0.4
v -1.3 5 0.3
v -1.3 5.1 0.3
v -1.2 3.6 0.3
v -1.2 3.7 0.3
v -1.2 5 0.3
v -1.2 5.1 0.3
v -1.1 3.6 0.3
v -1.1 3.7 0.3
v -0.6 4 0.3
v -0.6 4.1 0.3
v -0.5 4 0.3
v -0.5 4.1 0.3
v -1.2 3.5 0.2
v -1.2 3.6 0.2
v -1.1 3.5 0.2
v -1.1 3.6 0.2
v -0.6 3.9 0.2
v -0.6 4 0.2
v -0.5 3.9 0.2
v -0.5 4 0.2
v -1.3 3.2 -0.7
v -1.3 4.7 -0.7
v -1.2 3.2 -0.7
v -1.2 4.7 -0.7
v -0.5 3.9 -0.7
v -0.5 4.7 -0.7
v -0.4 3.9 -0.7
v -0.4 4.7 -0.7
v -1.4 5 -0.8
v -1.4 5.2 -0.8
v -1.3 5 -0.8
v -1.3 5.2 -0.8
v -1.2 3.2 -0.8
v -1.2 4.7 -0.8
v -1.1 3.6 -0.8
v -1.1 4.7 -0.8
v -1 3.2 -0.8
v -1 3.3 -0.8
v -0.7 3.2 -0.8
v -0.7 3.3 -0.8
v -0.6 3.2 -0.8
v -0.6 3.4 -0.8
v -0.6 3.6 -0.8
v -0.6 4.7 -0.8
v -0.5 3.4 -0.8
v -0.5 4.7 -0.8
v -1.3 4.7 -0.9
v -1.3 5.2 -0.9
v -1.2 4.7 -0.9
v -1.2 5.2 -0.9
v -1.1 3.6 -0.9
v -1.1 4.7 -0.9
v -1 3.2 -0.9
v -1 3.3 -0.9
v -0.7 3.2 -0.9
v -0.7 3.3 -0.9
v -0.6 3.6 -0.9
v -0.6 4.7 -0.9
v -1.2 4.7 -1
v -1.2 5.2 -1
v -1.1 4.8 -1
v -1.1 5.2 -1
v -0.4 4.7 -1
v -0.4 4.8 -1
v -1.1 4.8 -1.1
v -1.1 5.2 -1.1
v -0.3 4.8 -1.1
v -0.3 5.2 -1.1
v -1.3 3.2 0.4
v -0.6 3.2 0.4
v -1.3 3.2 -0.7
v -1.2 3.2 -0.7
v -1.2 3.2 -0.8
v -1 3.2 -0.8
v -0.7 3.2 -0.8
v -0.6 3.2 -0.8
v -1 3.2 -0.9
v -0.7 3.2 -0.9
v -1.2 3.3 0.5
v -0.6 3.3 0.5
v -1.2 3.3 0.4
v -0.6 3.3 0.4
v -0.6 3.4 0.5
v -0.5 3.4 0.5
v -0.6 3.4 -0.8
v -0.5 3.4 -0.8
v -1.1 3.6 -0.8
v -0.6 3.6 -0.8
v -1.1 3.6 -0.9
v -0.6 3.6 -0.9
v -0.5 3.9 0.5
v -0.4 3.9 0.5
v -0.5 3.9 -0.7
v -0.4 3.9 -0.7
v -1.1 4.7 0.9
v -0.4 4.7 0.9
v -1.2 4.7 0.8
v -1.1 4.7 0.8
v -1.3 4.7 0.7
v -1.2 4.7 0.7
v -1.2 4.7 0.5
v -0.4 4.7 0.5
v -1.3 4.7 0.4
v -1.2 4.7 0.4
v -1.3 4.7 -0.7
v -1.2 4.7 -0.7
v -0.5 4.7 -0.7
v -0.4 4.7 -0.7
v -1.2 4.7 -0.8
v -1.1 4.7 -0.8
v -0.6 4.7 -0.8
v -0.5 4.7 -0.8
v -1.3 4.7 -0.9
v -1.2 4.7 -0.9
v -1.1 4.7 -0.9
v -0.6 4.7 -0.9
v -1.2 4.7 -1
v -0.4 4.7 -1
v -0.4 4.8 0.8
v -0.3 4.8 0.8
v -1.1 4.8 -1
v -0.4 4.8 -1
v -1.1 4.8 -1.1
v -0.3 4.8 -1.1
v -0.4 4.9 0.9
v -0.3 4.9 0.9
v -0.4 4.9 0.8
v -0.3 4.9 0.8
v -1.4 5 0.6
v -1.3 5 0.6
v -1.4 5 -0.8
v -1.3 5 -0.8
v -1 5.1 0.7
v -0.5 5.1 0.7
v -1.1 5.1 0.6
v -1 5.1 0.6
v -0.5 5.1 0.6
v -0.4 5.1 0.6
v -1.2 5.1 0.5
v -1.1 5.1 0.5
v -1.3 5.1 0.3
v -1.2 5.1 0.3
v -1.3 5.1 -0.5
v -1.2 5.1 -0.5
v -1.2 5.1 -0.7
v -1.1 5.1 -0.7
v -1.1 5.1 -0.8
v -0.8 5.1 -0.8
v -0.8 5.1 -0.9
v -0.4 5.1 -0.9
v -1 3.3 0.4
v -0.7 3.3 0.4
v -1 3.3 -0.6
v -0.7 3.3 -0.6
v -1 3.3 -0.8
v -0.7 3.3 -0.8
v -1 3.3 -0.9
v -0.7 3.3 -0.9
v -1.1 3.4 0.4
v -1 3.4 0.4
v -0.7 3.4 0.4
v -0.6 3.4 0.4
v -1 3.4 -0.6
v -0.7 3.4 -0.6
v -1.1 3.4 -0.7
v -0.6 3.4 -0.7
v -1.2 3.5 0.2
v -1.1 3.5 0.2
v -1.2 3.5 -0.5
v -1.1 3.5 -0.5
v -1.2 3.6 0.3
v -1.1 3.6 0.3
v -1.2 3.6 0.2
v -1.1 3.6 0.2
v -1.2 3.6 -0.5
v -1.1 3.6 -0.5
v -1.2 3.6 -0.6
v -1.1 3.6 -0.6
v -1 3.6 -0.7
v -0.7 3.6 -0.7
v -1 3.6 -0.8
v -0.7 3.6 -0.8
v -1.2 3.7 0.4
v -1.1 3.7 0.4
v -1.2 3.7 0.3
v -1.1 3.7 0.3
v -1.2 3.7 -0.6
v -1.1 3.7 -0.6
v -1.2 3.7 -0.7
v -1.1 3.7 -0.7
v -1 3.7 -0.7
v -0.7 3.7 -0.7
v -0.6 3.7 -0.7
v -1.1 3.7 -0.8
v -1 3.7 -0.8
v -0.7 3.7 -0.8
v -0.6 3.7 -0.8
v -0.6 3.9 0.2
v -0.5 3.9 0.2
v -0.6 3.9 -0.5
v -0.5 3.9 -0.5
v -0.6 4 0.3
v -0.5 4 0.3
v -0.6 4 0.2
v -0.5 4 0.2
v -0.6 4 -0.5
v -0.5 4 -0.5
v -0.6 4 -0.6
v -0.5 4 -0.6
v -0.6 4.1 0.4
v -0.5 4.1 0.4
v -0.6 4.1 0.3
v -0.5 4.1 0.3
v -0.6 4.1 -0.6
v -0.5 4.1 -0.6
v -0.6 4.1 -0.7
v -0.5 4.1 -0.7
v -1.1 4.7 0.5
v -0.5 4.7 0.5
v -1.1 4.7 0.4
v -0.5 4.7 0.4
v -0.6 4.7 -0.7
v -0.5 4.7 -0.7
v -0.6 4.7 -0.8
v -0.5 4.7 -0.8
v -0.5 4.8 0.5
v -0.4 4.8 0.5
v -0.6 4.8 -0.8
v -0.5 4.8 -0.8
v -0.4 4.8 -0.8
v -0.6 4.8 -0.9
v -0.5 4.8 -0.9
v -1 4.9 0.6
v -0.5 4.9 0.6
v -1 4.9 0.5
v -0.5 4.9 0.5
v -0.7 4.9 -0.8
v -0.6 4.9 -0.8
v -0.5 4.9 -0.8
v -0.4 4.9 -0.8
v -0.7 4.9 -0.9
v -0.6 4.9 -0.9
v -0.5 4.9 -0.9
v -0.4 4.9 -0.9
v -1 5 0.7
v -0.5 5 0.7
v -1.1 5 0.6
v -1 5 0.6
v -0.5 5 0.6
v -0.4 5 0.6
v -1.2 5 0.5
v -1.1 5 0.5
v -1 5 0.5
v -0.5 5 0.5
v -0.4 5 0.5
v -1.2 5 0.4
v -1.1 5 0.4
v -1.3 5 0.3
v -1.2 5 0.3
v -1.3 5 -0.5
v -1.2 5 -0.5
v -0.8 5 -0.8
v -0.7 5 -0.8
v -0.8 5 -0.9
v -0.7 5 -0.9
v -1.1 5.2 0.9
v -0.3 5.2 0.9
v -1.2 5.2 0.8
v -1.1 5.2 0.8
v -1.3 5.2 0.7
v -1.2 5.2 0.7
v -1.4 5.2 0.6
v -1.3 5.2 0.6
v -1.4 5.2 -0.8
v -1.3 5.2 -0.8
v -1.3 5.2 -0.9
v -1.2 5.2 -0.9
v -1.2 5.2 -1
v -1.1 5.2 -1
v -1.1 5.2 -1.1
v -0.3 5.2 -1.1

# faces
f 3/2/1 2/2/1 1/2/1
f 4/2/1 2/2/1 3/2/1
f 8/1/1 6/1/1 5/1/1
f 9/1/1 6/1/1 8/1/1
f 11/2/1 8/2/1 7/2/1
f 11/2/1 10/2/1 9/2/1
f 11/2/1 9/2/1 8/2/1
f 12/2/1 10/2/1 11/2/1
f 13/2/1 11/2/1 7/2/1
f 14/2/1 11/2/1 13/2/1
f 15/2/1 10/2/1 12/2/1
f 16/2/1 10/2/1 15/2/1
f 23/1/1 20/1/1 19/1/1
f 24/1/1 20/1/1 23/1/1
f 25/1/1 18/1/1 17/1/1
f 26/1/1 18/1/1 25/1/1
f 29/2/1 22/2/1 21/2/1
f 30/2/1 22/2/1 29/2/1
f 31/2/1 28/2/1 27/2/1
f 32/2/1 28/2/1 31/2/1
f 37/1/1 34/1/1 33/1/1
f 38/1/1 34/1/1 37/1/1
f 41/2/1 36/2/1 35/2/1
f 42/2/1 36/2/1 41/2/1
f 43/2/1 40/2/1 39/2/1
f 44/2/1 40/2/1 43/2/1
f 47/1/1 46/1/1 45/1/1
f 48/1/1 46/1/1 47/1/1
f 51/1/1 50/1/1 49/1/1
f 52/1/1 50/1/1 51/1/1
f 55/1/1 54/1/1 53/1/1
f 56/1/1 54/1/1 55/1/1
f 59/1/1 58/1/1 57/1/1
f 61/1/1 59/1/1 57/1/1
f 61/1/1 60/1/1 59/1/1
f 62/1/1 60/1/1 61/1/1
f 63/1/1 61/1/1 57/1/1
f 64/1/1 61/1/1 63/1/1
f 65/1/1 60/1/1 62/1/1
f 66/1/1 60/1/1 65/1/1
f 67/1/1 63/1/1 57/1/1
f 68/1/1 63/1/1 67/1/1
f 69/1/1 60/1/1 66/1/1
f 70/1/1 60/1/1 69/1/1
f 71/1/1 60/1/1 70/1/1
f 72/1/1 60/1/1 71/1/1
f 76/1/1 74/1/1 73/1/1
f 77/1/1 74/1/1 76/1/1
f 80/1/1 76/1/1 75/1/1
f 80/1/1 78/1/1 77/1/1
f 80/1/1 77/1/1 76/1/1
f 81/1/1 78/1/1 80/1/1
f 84/1/1 80/1/1 79/1/1
f 84/1/1 82/1/1 81/1/1
f 84/1/1 81/1/1 80/1/1
f 85/1/1 82/1/1 84/1/1
f 87/2/1 84/2/1 83/2/1
f 87/2/1 86/2/1 85/2/1
f 87/2/1 85/2/1 84/2/1
f 88/2/1 86/2/1 87/2/1
f 92/2/1 89/2/1 88/2/1
f 93/2/1 89/2/1 92/2/1
f 95/2/1 91/2/1 90/2/1
f 96/2/1 91/2/1 95/2/1
f 97/2/1 95/2/1 94/2/1
f 98/2/1 95/2/1 97/2/1
f 101/2/1 100/2/1 99/2/1
f 104/2/1 101/2/1 99/2/1
f 104/2/1 102/2/1 101/2/1
f 105/2/1 104/2/1 103/2/1
f 106/2/1 102/2/1 104/2/1
f 106/2/1 104/2/1 105/2/1
f 107/2/2 108/2/2 109/2/2
f 109/2/2 108/2/2 110/2/2
f 111/1/2 112/1/2 114/1/2
f 114/1/2 112/1/2 115/1/2
f 113/1/2 114/1/2 118/1/2
f 115/1/2 116/1/2 118/1/2
f 114/1/2 115/1/2 118/1/2
f 118/1/2 116/1/2 119/1/2
f 117/1/2 118/1/2 121/1/2
f 119/1/2 120/1/2 121/1/2
f 118/1/2 119/1/2 121/1/2
f 121/1/2 120/1/2 122/1/2
f 121/2/2 122/2/2 123/2/2
f 121/2/2 123/2/2 125/2/2
f 125/2/2 123/2/2 126/2/2
f 126/2/2 123/2/2 127/2/2
f 124/2/2 125/2/2 128/2/2
f 125/2/2 126/2/2 128/2/2
f 128/2/2 126/2/2 129/2/2
f 127/2/2 123/2/2 130/2/2
f 130/2/2 123/2/2 131/2/2
f 132/1/2 133/1/2 134/1/2
f 134/1/2 133/1/2 135/1/2
f 132/1/2 134/1/2 136/1/2
f 136/1/2 134/1/2 137/1/2
f 135/1/2 133/1/2 138/1/2
f 138/1/2 133/1/2 139/1/2
f 132/1/2 136/1/2 140/1/2
f 140/1/2 136/1/2 141/1/2
f 139/1/2 133/1/2 142/1/2
f 142/1/2 133/1/2 143/1/2
f 143/1/2 144/1/2 147/1/2
f 143/1/2 147/1/2 148/1/2
f 148/1/2 147/1/2 149/1/2
f 145/2/2 146/2/2 151/2/2
f 151/2/2 146/2/2 152/2/2
f 150/2/2 151/2/2 153/2/2
f 153/2/2 151/2/2 154/2/2
f 148/2/2 149/2/2 155/2/2
f 155/2/2 149/2/2 156/2/2
f 157/1/2 158/1/2 159/1/2
f 159/1/2 158/1/2 160/1/2
f 161/1/2 162/1/2 163/1/2
f 163/1/2 162/1/2 164/1/2
f 165/2/2 166/2/2 168/2/2
f 168/2/2 166/2/2 169/2/2
f 167/2/2 168/2/2 170/2/2
f 170/2/2 168/2/2 171/2/2
f 172/2/2 173/2/2 174/2/2
f 174/2/2 173/2/2 175/2/2
f 176/1/2 177/1/2 178/1/2
f 178/1/2 177/1/2 179/1/2
f 180/2/2 181/2/2 182/2/2
f 182/2/2 181/2/2 183/2/2
f 184/1/2 185/1/2 187/1/2
f 186/1/2 187/1/2 188/1/2
f 187/1/2 185/1/2 189/1/2
f 188/1/2 187/1/2 189/1/2
f 190/1/2 191/1/2 192/1/2
f 192/1/2 191/1/2 193/1/2
f 194/2/2 195/2/2 196/2/2
f 196/2/2 195/2/2 197/2/2
f 198/1/2 199/1/2 200/1/2
f 200/1/2 199/1/2 201/1/2
f 201/1/2 199/1/2 202/1/2
f 202/1/2 199/1/2 203/1/2
f 204/1/2 205/1/2 207/1/2
f 207/1/2 205/1/2 208/1/2
f 206/2/2 207/2/2 210/2/2
f 208/2/2 209/2/2 210/2/2
f 207/2/2 208/2/2 210/2/2
f 210/2/2 209/2/2 211/2/2
f 206/2/2 210/2/2 212/2/2
f 212/2/2 210/2/2 213/2/2
f 214/2/2 215/2/2 217/2/2
f 216/2/2 217/2/2 218/2/2
f 217/2/2 215/2/2 219/2/2
f 218/2/2 217/2/2 219/2/2
f 222/2/3 221/2/3 220/2/3
f 223/2/3 221/2/3 222/2/3
f 224/2/3 221/2/3 223/2/3
f 225/2/3 221/2/3 224/2/3
f 228/2/3 227/2/3 226/2/3
f 229/2/3 227/2/3 228/2/3
f 232/2/3 231/2/3 230/2/3
f 233/2/3 231/2/3 232/2/3
f 236/2/3 235/2/3 234/2/3
f 237/2/3 235/2/3 236/2/3
f 240/2/3 239/2/3 238/2/3
f 241/2/3 239/2/3 240/2/3
f 244/1/3 243/1/3 242/1/3
f 245/1/3 243/1/3 244/1/3
f 246/1/3 243/1/3 245/1/3
f 247/1/3 243/1/3 246/1/3
f 248/1/3 243/1/3 247/1/3
f 249/1/3 243/1/3 248/1/3
f 252/1/3 251/1/3 250/1/3
f 253/1/3 251/1/3 252/1/3
f 254/1/3 252/1/3 250/1/3
f 255/1/3 252/1/3 254/1/3
f 260/2/3 257/2/3 256/2/3
f 261/2/3 257/2/3 260/2/3
f 262/1/3 259/1/3 258/1/3
f 263/1/3 259/1/3 262/1/3
f 266/1/3 265/1/3 264/1/3
f 267/1/3 265/1/3 266/1/3
f 270/1/3 269/1/3 268/1/3
f 271/1/3 269/1/3 270/1/3
f 274/1/3 273/1/3 272/1/3
f 275/1/3 273/1/3 274/1/3
f 278/1/3 277/1/3 276/1/3
f 279/1/3 277/1/3 278/1/3
f 285/1/3 281/1/3 280/1/3
f 285/1/3 282/1/3 281/1/3
f 286/2/3 283/2/3 282/2/3
f 286/1/3 282/1/3 285/1/3
f 287/2/3 283/2/3 286/2/3
f 288/1/3 285/1/3 284/1/3
f 289/1/3 285/1/3 288/1/3
f 290/1/3 288/1/3 284/1/3
f 292/1/3 290/1/3 284/1/3
f 292/1/3 291/1/3 290/1/3
f 293/1/3 291/1/3 292/1/3
f 296/1/3 295/1/3 294/1/3
f 297/1/3 295/1/3 296/1/3
f 303/1/3 299/1/3 298/1/3
f 304/2/3 301/2/3 300/2/3
f 304/2/3 300/2/3 299/2/3
f 305/2/3 301/2/3 304/2/3
f 306/1/3 303/1/3 302/1/3
f 307/1/3 299/1/3 303/1/3
f 307/1/3 303/1/3 306/1/3
f 308/2/3 304/2/3 299/2/3
f 309/2/3 304/2/3 308/2/3
f 310/1/3 299/1/3 307/1/3
f 311/2/3 308/2/3 299/2/3
f 311/1/3 299/1/3 310/1/3
f 312/2/3 308/2/3 311/2/3
f 313/2/3 308/2/3 312/2/3
f 314/2/3 312/2/3 311/2/3
f 315/2/3 312/2/3 314/2/3
f 317/2/3 316/2/3 315/2/3
f 318/2/3 316/2/3 317/2/3
f 322/2/3 320/2/3 319/2/3
f 324/2/3 322/2/3 321/2/3
f 325/2/3 324/2/3 323/2/3
f 326/2/3 322/2/3 324/2/3
f 326/2/3 324/2/3 325/2/3
f 327/2/3 322/2/3 326/2/3
f 328/2/3 320/2/3 322/2/3
f 328/2/3 322/2/3 327/2/3
f 329/2/4 330/2/4 331/2/4
f 331/2/4 330/2/4 332/2/4
f 333/2/4 334/2/4 336/2/4
f 336/2/4 334/2/4 337/2/4
f 335/2/4 336/2/4 338/2/4
f 338/2/4 336/2/4 339/2/4
f 339/2/4 340/2/4 341/2/4
f 341/2/4 340/2/4 342/2/4
f 343/2/4 344/2/4 346/2/4
f 346/2/4 344/2/4 347/2/4
f 345/2/4 346/2/4 348/2/4
f 348/2/4 346/2/4 349/2/4
f 345/2/4 348/2/4 350/2/4
f 350/2/4 348/2/4 351/2/4
f 351/2/4 348/2/4 352/2/4
f 352/2/4 353/2/4 354/2/4
f 351/2/4 352/2/4 354/2/4
f 354/2/4 353/2/4 355/2/4
f 356/1/4 357/1/4 360/1/4
f 357/2/4 358/2/4 361/2/4
f 360/1/4 357/1/4 361/1/4
f 361/2/4 358/2/4 362/2/4
f 359/1/4 360/1/4 364/1/4
f 360/1/4 361/1/4 364/1/4
f 363/1/4 364/1/4 365/1/4
f 364/1/4 361/1/4 366/1/4
f 365/1/4 364/1/4 366/1/4
f 366/1/4 361/1/4 367/1/4
f 367/1/4 361/1/4 368/1/4
f 368/1/4 361/1/4 369/1/4
f 369/1/4 361/1/4 370/1/4
f 371/2/4 372/2/4 375/2/4
f 375/2/4 372/2/4 376/2/4
f 373/1/4 374/1/4 377/1/4
f 377/1/4 374/1/4 378/1/4
f 379/1/4 380/1/4 381/1/4
f 381/1/4 380/1/4 382/1/4
f 383/1/4 384/1/4 385/1/4
f 385/1/4 384/1/4 386/1/4
f 387/1/4 388/1/4 389/1/4
f 389/1/4 388/1/4 390/1/4
f 391/1/4 392/1/4 393/1/4
f 393/1/4 392/1/4 394/1/4
f 395/1/4 396/1/4 397/1/4
f 397/1/4 396/1/4 398/1/4
f 399/2/4 400/2/4 401/2/4
f 401/2/4 400/2/4 402/2/4
f 403/1/4 404/1/4 405/1/4
f 405/1/4 404/1/4 406/1/4
f 403/1/4 405/1/4 407/1/4
f 407/1/4 405/1/4 408/1/4
f 408/1/4 405/1/4 410/1/4
f 409/1/4 410/1/4 411/1/4
f 410/1/4 405/1/4 412/1/4
f 411/1/4 410/1/4 412/1/4
f 412/1/4 405/1/4 413/1/4
f 413/1/4 414/1/4 415/1/4
f 412/1/4 413/1/4 415/1/4
f 415/1/4 414/1/4 416/1/4
f 417/2/4 418/2/4 419/2/4
f 419/2/4 418/2/4 420/2/4
f 423/1/4 424/1/4 425/1/4
f 425/1/4 424/1/4 426/1/4
f 421/1/4 422/1/4 427/1/4
f 427/1/4 422/1/4 428/1/4
f 429/2/4 430/2/4 431/2/4
f 431/2/4 430/2/4 432/2/4
f 429/2/4 431/2/4 433/2/4
f 433/2/4 431/2/4 434/2/4
f 435/2/4 436/2/4 437/2/4
f 437/2/4 436/2/4 438/2/4
f 441/1/5 440/1/5 439/1/5
f 442/1/5 440/1/5 441/1/5
f 443/1/5 440/1/5 442/1/5
f 444/1/5 440/1/5 443/1/5
f 445/1/5 440/1/5 444/1/5
f 446/1/5 440/1/5 445/1/5
f 447/1/5 445/1/5 444/1/5
f 448/1/5 445/1/5 447/1/5
f 451/1/5 450/1/5 449/1/5
f 452/1/5 450/1/5 451/1/5
f 455/1/5 454/1/5 453/1/5
f 456/1/5 454/1/5 455/1/5
f 459/1/5 458/1/5 457/1/5
f 460/1/5 458/1/5 459/1/5
f 463/1/5 462/1/5 461/1/5
f 464/1/5 462/1/5 463/1/5
f 468/2/5 466/2/5 465/2/5
f 470/2/5 468/2/5 467/2/5
f 471/2/5 468/2/5 470/2/5
f 471/2/5 470/2/5 469/2/5
f 472/2/5 466/2/5 468/2/5
f 472/2/5 468/2/5 471/2/5
f 473/2/5 471/2/5 469/2/5
f 474/2/5 471/2/5 473/2/5
f 479/2/5 476/2/5 475/2/5
f 482/2/5 478/2/5 477/2/5
f 483/2/5 480/2/5 479/2/5
f 483/2/5 479/2/5 475/2/5
f 484/2/5 480/2/5 483/2/5
f 485/2/5 480/2/5 484/2/5
f 486/2/5 482/2/5 481/2/5
f 487/2/5 485/2/5 484/2/5
f 487/2/5 486/2/5 485/2/5
f 488/2/5 482/2/5 486/2/5
f 488/2/5 486/2/5 487/2/5
f 488/2/5 478/2/5 482/2/5
f 492/2/5 490/2/5 489/2/5
f 493/2/5 492/2/5 491/2/5
f 494/2/5 490/2/5 492/2/5
f 494/2/5 492/2/5 493/2/5
f 497/2/5 496/2/5 495/2/5
f 498/2/5 496/2/5 497/2/5
f 501/2/5 500/2/5 499/2/5
f 502/2/5 500/2/5 501/2/5
f 506/2/5 504/2/5 503/2/5
f 507/2/5 504/2/5 506/2/5
f 510/2/5 506/2/5 505/2/5
f 510/2/5 508/2/5 507/2/5
f 510/2/5 507/2/5 506/2/5
f 512/2/5 510/2/5 509/2/5
f 513/2/5 512/2/5 511/2/5
f 514/2/5 510/2/5 512/2/5
f 514/2/5 512/2/5 513/2/5
f 515/2/5 510/2/5 514/2/5
f 516/2/5 508/2/5 510/2/5
f 516/2/5 510/2/5 515/2/5
f 517/2/5 508/2/5 516/2/5
f 518/2/5 508/2/5 517/2/5
f 519/2/5 508/2/5 518/2/5
f 520/2/5 508/2/5 519/2/5
f 521/1/6 522/1/6 523/1/6
f 523/1/6 522/1/6 524/1/6
f 525/1/6 526/1/6 527/1/6
f 527/1/6 526/1/6 528/1/6
f 529/1/6 530/1/6 533/1/6
f 531/1/6 532/1/6 534/1/6
f 529/1/6 533/1/6 535/1/6
f 533/1/6 534/1/6 535/1/6
f 534/1/6 532/1/6 536/1/6
f 535/1/6 534/1/6 536/1/6
f 537/1/6 538/1/6 539/1/6
f 539/1/6 538/1/6 540/1/6
f 541/1/6 542/1/6 543/1/6
f 543/1/6 542/1/6 544/1/6
f 545/1/6 546/1/6 547/1/6
f 547/1/6 546/1/6 548/1/6
f 549/1/6 550/1/6 551/1/6
f 551/1/6 550/1/6 552/1/6
f 553/1/6 554/1/6 555/1/6
f 555/1/6 554/1/6 556/1/6
f 557/1/6 558/1/6 559/1/6
f 559/1/6 558/1/6 560/1/6
f 560/1/6 561/1/6 564/1/6
f 564/1/6 561/1/6 565/1/6
f 562/1/6 563/1/6 566/1/6
f 566/1/6 563/1/6 567/1/6
f 568/1/6 569/1/6 570/1/6
f 570/1/6 569/1/6 571/1/6
f 572/1/6 573/1/6 574/1/6
f 574/1/6 573/1/6 575/1/6
f 576/1/6 577/1/6 578/1/6
f 578/1/6 577/1/6 579/1/6
f 580/1/6 581/1/6 582/1/6
f 582/1/6 581/1/6 583/1/6
f 584/1/6 585/1/6 586/1/6
f 586/1/6 585/1/6 587/1/6
f 588/1/6 589/1/6 590/1/6
f 590/1/6 589/1/6 591/1/6
f 592/1/6 593/1/6 594/1/6
f 594/1/6 593/1/6 595/1/6
f 596/2/6 597/2/6 599/2/6
f 599/2/6 597/2/6 600/2/6
f 598/2/6 599/2/6 601/2/6
f 601/2/6 599/2/6 602/2/6
f 603/2/6 604/2/6 605/2/6
f 605/2/6 604/2/6 606/2/6
f 607/2/6 608/2/6 611/2/6
f 611/2/6 608/2/6 612/2/6
f 609/2/6 610/2/6 613/2/6
f 613/2/6 610/2/6 614/2/6
f 615/2/6 616/2/6 618/2/6
f 618/2/6 616/2/6 619/2/6
f 617/2/6 618/2/6 622/2/6
f 622/2/6 618/2/6 623/2/6
f 619/2/6 620/2/6 624/2/6
f 624/2/6 620/2/6 625/2/6
f 621/2/6 622/2/6 626/2/6
f 626/2/6 622/2/6 627/2/6
f 628/2/6 629/2/6 630/2/6
f 630/2/6 629/2/6 631/2/6
f 632/2/6 633/2/6 634/2/6
f 634/2/6 633/2/6 635/2/6
f 636/2/6 637/2/6 639/2/6
f 638/2/6 639/2/6 641/2/6
f 640/2/6 641/2/6 643/2/6
f 642/2/6 643/2/6 644/2/6
f 643/2/6 641/2/6 645/2/6
f 644/2/6 643/2/6 645/2/6
f 645/2/6 641/2/6 646/2/6
f 641/2/6 639/2/6 647/2/6
f 646/2/6 641/2/6 647/2/6
f 647/2/6 639/2/6 648/2/6
f 639/2/6 637/2/6 649/2/6
f 648/2/6 639/2/6 649/2/6
f 649/2/6 637/2/6 650/2/6
f 650/2/6 637/2/6 651/2/6
