# MagicaVoxel @ Ephtracy

# group
o lib

# material
mtllib face-9-lib.mtl
usemtl palette

# normals
vn -1 0 0
vn 1 0 0
vn 0 0 -1
vn 0 0 1
vn 0 -1 0
vn 0 1 0

# texcoords
vt 0.251953 0.5

# verts
v 1.6 8.9 -3.3
v 1.6 8.9 -3.2
v 1.6 9 -3.3
v 1.6 9 -3.2
v 1.7 9 -3.3
v 1.7 9 -3.2
v 1.7 9.1 -3.3
v 1.7 9.1 -3.2
v 2.1 8.9 -3.3
v 2.1 8.9 -3.2
v 2.1 9 -3.3
v 2.1 9 -3.2
v 1.7 8.9 -3.3
v 1.7 8.9 -3.2
v 1.7 9 -3.3
v 1.7 9 -3.2
v 2.1 9 -3.3
v 2.1 9 -3.2
v 2.1 9.1 -3.3
v 2.1 9.1 -3.2
v 2.2 8.9 -3.3
v 2.2 8.9 -3.2
v 2.2 9 -3.3
v 2.2 9 -3.2
v 1.6 8.9 -3.3
v 1.6 9 -3.3
v 1.7 8.9 -3.3
v 1.7 9 -3.3
v 1.7 9.1 -3.3
v 2.1 8.9 -3.3
v 2.1 9 -3.3
v 2.1 9.1 -3.3
v 2.2 8.9 -3.3
v 2.2 9 -3.3
v 1.6 8.9 -3.2
v 1.6 9 -3.2
v 1.7 8.9 -3.2
v 1.7 9 -3.2
v 1.7 9.1 -3.2
v 2.1 8.9 -3.2
v 2.1 9 -3.2
v 2.1 9.1 -3.2
v 2.2 8.9 -3.2
v 2.2 9 -3.2
v 1.6 8.9 -3.3
v 1.7 8.9 -3.3
v 2.1 8.9 -3.3
v 2.2 8.9 -3.3
v 1.6 8.9 -3.2
v 1.7 8.9 -3.2
v 2.1 8.9 -3.2
v 2.2 8.9 -3.2
v 1.7 9 -3.3
v 2.1 9 -3.3
v 1.7 9 -3.2
v 2.1 9 -3.2
v 1.6 9 -3.3
v 1.7 9 -3.3
v 2.1 9 -3.3
v 2.2 9 -3.3
v 1.6 9 -3.2
v 1.7 9 -3.2
v 2.1 9 -3.2
v 2.2 9 -3.2
v 1.7 9.1 -3.3
v 2.1 9.1 -3.3
v 1.7 9.1 -3.2
v 2.1 9.1 -3.2

# faces
f 1/1/1 2/1/1 3/1/1
f 3/1/1 2/1/1 4/1/1
f 5/1/1 6/1/1 7/1/1
f 7/1/1 6/1/1 8/1/1
f 9/1/1 10/1/1 11/1/1
f 11/1/1 10/1/1 12/1/1
f 15/1/2 14/1/2 13/1/2
f 16/1/2 14/1/2 15/1/2
f 19/1/2 18/1/2 17/1/2
f 20/1/2 18/1/2 19/1/2
f 23/1/2 22/1/2 21/1/2
f 24/1/2 22/1/2 23/1/2
f 25/1/3 26/1/3 27/1/3
f 27/1/3 26/1/3 28/1/3
f 28/1/3 29/1/3 31/1/3
f 31/1/3 29/1/3 32/1/3
f 30/1/3 31/1/3 33/1/3
f 33/1/3 31/1/3 34/1/3
f 37/1/4 36/1/4 35/1/4
f 38/1/4 36/1/4 37/1/4
f 41/1/4 39/1/4 38/1/4
f 42/1/4 39/1/4 41/1/4
f 43/1/4 41/1/4 40/1/4
f 44/1/4 41/1/4 43/1/4
f 45/1/5 46/1/5 49/1/5
f 49/1/5 46/1/5 50/1/5
f 47/1/5 48/1/5 51/1/5
f 51/1/5 48/1/5 52/1/5
f 53/1/5 54/1/5 55/1/5
f 55/1/5 54/1/5 56/1/5
f 61/1/6 58/1/6 57/1/6
f 62/1/6 58/1/6 61/1/6
f 63/1/6 60/1/6 59/1/6
f 64/1/6 60/1/6 63/1/6
f 67/1/6 66/1/6 65/1/6
f 68/1/6 66/1/6 67/1/6
