# MagicaVoxel @ Ephtracy

# group
o Leye

# material
mtllib face-4-Leye.mtl
usemtl palette

# normals
vn -1 0 0
vn 1 0 0
vn 0 0 -1
vn 0 0 1
vn 0 -1 0
vn 0 1 0

# texcoords
vt 0.994141 0.5

# verts
v -2.1 11.3 -3.3
v -2.1 11.3 -3.2
v -2.1 11.5 -3.3
v -2.1 11.5 -3.2
v -1.9 11.3 -3.3
v -1.9 11.3 -3.2
v -1.9 11.4 -3.3
v -1.9 11.4 -3.2
v -2 11.3 -3.3
v -2 11.3 -3.2
v -2 11.4 -3.3
v -2 11.4 -3.2
v -1.8 11.3 -3.3
v -1.8 11.3 -3.2
v -1.8 11.5 -3.3
v -1.8 11.5 -3.2
v -2.1 11.3 -3.3
v -2.1 11.5 -3.3
v -2 11.3 -3.3
v -2 11.4 -3.3
v -1.9 11.3 -3.3
v -1.9 11.4 -3.3
v -1.8 11.3 -3.3
v -1.8 11.5 -3.3
v -2.1 11.3 -3.2
v -2.1 11.5 -3.2
v -2 11.3 -3.2
v -2 11.4 -3.2
v -1.9 11.3 -3.2
v -1.9 11.4 -3.2
v -1.8 11.3 -3.2
v -1.8 11.5 -3.2
v -2.1 11.3 -3.3
v -2 11.3 -3.3
v -1.9 11.3 -3.3
v -1.8 11.3 -3.3
v -2.1 11.3 -3.2
v -2 11.3 -3.2
v -1.9 11.3 -3.2
v -1.8 11.3 -3.2
v -2 11.4 -3.3
v -1.9 11.4 -3.3
v -2 11.4 -3.2
v -1.9 11.4 -3.2
v -2.1 11.5 -3.3
v -1.8 11.5 -3.3
v -2.1 11.5 -3.2
v -1.8 11.5 -3.2

# faces
f 1/1/1 2/1/1 3/1/1
f 3/1/1 2/1/1 4/1/1
f 5/1/1 6/1/1 7/1/1
f 7/1/1 6/1/1 8/1/1
f 11/1/2 10/1/2 9/1/2
f 12/1/2 10/1/2 11/1/2
f 15/1/2 14/1/2 13/1/2
f 16/1/2 14/1/2 15/1/2
f 17/1/3 18/1/3 19/1/3
f 19/1/3 18/1/3 20/1/3
f 20/1/3 18/1/3 22/1/3
f 21/1/3 22/1/3 23/1/3
f 22/1/3 18/1/3 24/1/3
f 23/1/3 22/1/3 24/1/3
f 27/1/4 26/1/4 25/1/4
f 28/1/4 26/1/4 27/1/4
f 30/1/4 26/1/4 28/1/4
f 31/1/4 30/1/4 29/1/4
f 32/1/4 26/1/4 30/1/4
f 32/1/4 30/1/4 31/1/4
f 33/1/5 34/1/5 37/1/5
f 37/1/5 34/1/5 38/1/5
f 35/1/5 36/1/5 39/1/5
f 39/1/5 36/1/5 40/1/5
f 41/1/5 42/1/5 43/1/5
f 43/1/5 42/1/5 44/1/5
f 47/1/6 46/1/6 45/1/6
f 48/1/6 46/1/6 47/1/6
