# MagicaVoxel @ Ephtracy

# group
o Leye

# material
mtllib face-28-Leye.mtl
usemtl palette

# normals
vn -1 0 0
vn 1 0 0
vn 0 0 -1
vn 0 0 1
vn 0 -1 0
vn 0 1 0

# texcoords
vt 0.958984 0.5
vt 0.994141 0.5

# verts
v -2.1 9.4 -3.3
v -2.1 9.4 -3.2
v -2.1 9.6 -3.3
v -2.1 9.6 -3.2
v -1.8 9.4 -3.3
v -1.8 9.4 -3.2
v -1.8 9.6 -3.3
v -1.8 9.6 -3.2
v -2.1 9.4 -3.3
v -2.1 9.6 -3.3
v -2 9.5 -3.3
v -2 9.6 -3.3
v -1.9 9.5 -3.3
v -1.9 9.6 -3.3
v -1.8 9.4 -3.3
v -1.8 9.6 -3.3
v -2.1 9.4 -3.2
v -2.1 9.6 -3.2
v -2 9.5 -3.2
v -2 9.6 -3.2
v -1.9 9.5 -3.2
v -1.9 9.6 -3.2
v -1.8 9.4 -3.2
v -1.8 9.6 -3.2
v -2.1 9.4 -3.3
v -1.8 9.4 -3.3
v -2.1 9.4 -3.2
v -1.8 9.4 -3.2
v -2.1 9.6 -3.3
v -2 9.6 -3.3
v -1.9 9.6 -3.3
v -1.8 9.6 -3.3
v -2.1 9.6 -3.2
v -2 9.6 -3.2
v -1.9 9.6 -3.2
v -1.8 9.6 -3.2

# faces
f 1/1/1 2/1/1 3/1/1
f 3/1/1 2/1/1 4/1/1
f 7/1/2 6/1/2 5/1/2
f 8/1/2 6/1/2 7/1/2
f 9/1/3 10/1/3 11/1/3
f 11/1/3 10/1/3 12/1/3
f 9/1/3 11/1/3 13/1/3
f 11/2/3 12/2/3 13/2/3
f 13/2/3 12/2/3 14/2/3
f 9/1/3 13/1/3 15/1/3
f 13/1/3 14/1/3 15/1/3
f 15/1/3 14/1/3 16/1/3
f 19/1/4 18/1/4 17/1/4
f 20/1/4 18/1/4 19/1/4
f 21/1/4 19/1/4 17/1/4
f 21/2/4 20/2/4 19/2/4
f 22/2/4 20/2/4 21/2/4
f 23/1/4 21/1/4 17/1/4
f 23/1/4 22/1/4 21/1/4
f 24/1/4 22/1/4 23/1/4
f 25/1/5 26/1/5 27/1/5
f 27/1/5 26/1/5 28/1/5
f 33/1/6 30/1/6 29/1/6
f 34/2/6 31/2/6 30/2/6
f 34/1/6 30/1/6 33/1/6
f 35/1/6 32/1/6 31/1/6
f 35/2/6 31/2/6 34/2/6
f 36/1/6 32/1/6 35/1/6
