# MagicaVoxel @ Ephtracy

# group
o Hip

# material
mtllib Character-14-Hip.mtl
usemtl palette

# normals
vn -1 0 0
vn 1 0 0
vn 0 0 1
vn 0 0 -1
vn 0 -1 0
vn 0 1 0

# texcoords
vt 0.0332031 0.5
vt 0.900391 0.5

# verts
v -1.3 5.3 0.6
v -1.3 5.3 -0.8
v -1.3 5.4 0.6
v -1.3 5.4 0.5
v -1.3 5.7 0.5
v -1.3 5.7 -0.8
v -1.2 5.3 0.7
v -1.2 5.3 0.6
v -1.2 5.3 -0.8
v -1.2 5.3 -0.9
v -1.2 5.4 0.6
v -1.2 5.4 0.5
v -1.2 5.7 0.5
v -1.2 5.7 -0.8
v -1.2 5.8 0.7
v -1.2 5.8 -0.9
v -1.1 5.3 0.8
v -1.1 5.3 0.7
v -1.1 5.3 -0.9
v -1.1 5.3 -1
v -1.1 5.8 0.8
v -1.1 5.8 0.7
v -1.1 5.8 -0.9
v -1.1 5.8 -1
v -1 5.3 0.9
v -1 5.3 0.8
v -1 5.3 -1
v -1 5.3 -1.1
v -1 5.6 0.3
v -1 5.6 -0.8
v -1 5.7 0.3
v -1 5.7 -0.7
v -1 5.7 -0.8
v -1 5.8 0.9
v -1 5.8 0.8
v -1 5.8 -1
v -1 5.8 -1.1
v -0.9 5.5 0.3
v -0.9 5.5 -0.8
v -0.9 5.6 0.4
v -0.9 5.6 0.3
v -0.9 5.6 -0.8
v -0.9 5.6 -0.9
v -0.9 5.7 0.4
v -0.9 5.7 0.3
v -0.9 5.7 -0.8
v -0.9 5.7 -0.9
v 0.6 5.4 0.7
v 0.6 5.4 0.6
v 0.6 5.4 -0.8
v 0.6 5.4 -0.9
v 0.6 5.6 -0.8
v 0.6 5.7 0.7
v 0.6 5.7 0.6
v 0.6 5.7 -0.8
v 0.6 5.7 -0.9
v 0.7 5.4 0.6
v 0.7 5.4 0.3
v 0.7 5.4 -0.5
v 0.7 5.4 -0.8
v 0.7 5.5 0.3
v 0.7 5.5 0.2
v 0.7 5.5 -0.4
v 0.7 5.5 -0.5
v 0.7 5.6 0.2
v 0.7 5.6 -0.4
v 0.7 5.7 0.6
v 0.7 5.7 -0.7
v 0.7 5.7 -0.8
v 0.8 5.4 0.3
v 0.8 5.4 -0.5
v 0.8 5.5 0.3
v 0.8 5.5 0.2
v 0.8 5.5 -0.4
v 0.8 5.5 -0.5
v 0.8 5.6 0.2
v 0.8 5.6 -0.4
v -1.2 5.4 0.3
v -1.2 5.4 -0.5
v -1.2 5.5 0.3
v -1.2 5.5 0.2
v -1.2 5.5 -0.4
v -1.2 5.5 -0.5
v -1.2 5.6 0.2
v -1.2 5.6 -0.4
v -1.1 5.4 0.6
v -1.1 5.4 0.3
v -1.1 5.4 -0.5
v -1.1 5.4 -0.8
v -1.1 5.5 0.3
v -1.1 5.5 0.2
v -1.1 5.5 -0.4
v -1.1 5.5 -0.5
v -1.1 5.6 0.2
v -1.1 5.6 -0.4
v -1.1 5.7 0.6
v -1.1 5.7 -0.7
v -1.1 5.7 -0.8
v -1 5.4 0.7
v -1 5.4 0.6
v -1 5.5 -0.8
v -1 5.5 -0.9
v -1 5.6 -0.8
v -1 5.7 0.7
v -1 5.7 0.6
v -1 5.7 -0.8
v -1 5.7 -0.9
v -0.9 5.4 -0.8
v -0.9 5.4 -0.9
v -0.9 5.5 -0.8
v -0.9 5.5 -0.9
v 0.5 5.5 0.3
v 0.5 5.5 -0.8
v 0.5 5.6 0.4
v 0.5 5.6 0.3
v 0.5 5.6 -0.8
v 0.5 5.6 -0.9
v 0.5 5.7 0.4
v 0.5 5.7 0.3
v 0.5 5.7 -0.8
v 0.5 5.7 -0.9
v 0.6 5.3 0.9
v 0.6 5.3 0.8
v 0.6 5.3 -1
v 0.6 5.3 -1.1
v 0.6 5.6 0.3
v 0.6 5.6 -0.8
v 0.6 5.7 0.3
v 0.6 5.7 -0.7
v 0.6 5.7 -0.8
v 0.6 5.8 0.9
v 0.6 5.8 0.8
v 0.6 5.8 -1
v 0.6 5.8 -1.1
v 0.7 5.3 0.8
v 0.7 5.3 0.7
v 0.7 5.3 -0.9
v 0.7 5.3 -1
v 0.7 5.8 0.8
v 0.7 5.8 0.7
v 0.7 5.8 -0.9
v 0.7 5.8 -1
v 0.8 5.3 0.7
v 0.8 5.3 0.6
v 0.8 5.3 -0.8
v 0.8 5.3 -0.9
v 0.8 5.4 0.6
v 0.8 5.4 0.5
v 0.8 5.6 0.5
v 0.8 5.6 -0.8
v 0.8 5.8 0.7
v 0.8 5.8 -0.9
v 0.9 5.3 0.6
v 0.9 5.3 -0.8
v 0.9 5.4 0.6
v 0.9 5.4 0.5
v 0.9 5.6 0.5
v 0.9 5.6 -0.8
v -1 5.3 0.9
v -1 5.8 0.9
v 0.6 5.3 0.9
v 0.6 5.8 0.9
v -1.1 5.3 0.8
v -1.1 5.8 0.8
v -1 5.3 0.8
v -1 5.8 0.8
v 0.6 5.3 0.8
v 0.6 5.8 0.8
v 0.7 5.3 0.8
v 0.7 5.8 0.8
v -1.2 5.3 0.7
v -1.2 5.8 0.7
v -1.1 5.3 0.7
v -1.1 5.8 0.7
v 0.7 5.3 0.7
v 0.7 5.8 0.7
v 0.8 5.3 0.7
v 0.8 5.8 0.7
v -1.3 5.3 0.6
v -1.3 5.4 0.6
v -1.2 5.3 0.6
v -1.2 5.4 0.6
v 0.8 5.3 0.6
v 0.8 5.4 0.6
v 0.9 5.3 0.6
v 0.9 5.4 0.6
v -1.3 5.4 0.5
v -1.3 5.7 0.5
v -1.2 5.4 0.5
v -1.2 5.7 0.5
v 0.8 5.4 0.5
v 0.8 5.6 0.5
v 0.9 5.4 0.5
v 0.9 5.6 0.5
v -0.9 5.6 0.4
v -0.9 5.7 0.4
v 0.5 5.6 0.4
v 0.5 5.7 0.4
v -1 5.6 0.3
v -1 5.7 0.3
v -0.9 5.5 0.3
v -0.9 5.6 0.3
v -0.9 5.7 0.3
v 0.5 5.5 0.3
v 0.5 5.6 0.3
v 0.5 5.7 0.3
v 0.6 5.6 0.3
v 0.6 5.7 0.3
v -1.2 5.5 -0.4
v -1.2 5.6 -0.4
v -1.1 5.5 -0.4
v -1.1 5.6 -0.4
v 0.7 5.5 -0.4
v 0.7 5.6 -0.4
v 0.8 5.5 -0.4
v 0.8 5.6 -0.4
v -1.2 5.4 -0.5
v -1.2 5.5 -0.5
v -1.1 5.4 -0.5
v -1.1 5.5 -0.5
v 0.7 5.4 -0.5
v 0.7 5.5 -0.5
v 0.8 5.4 -0.5
v 0.8 5.5 -0.5
v -1.1 5.4 -0.8
v -1.1 5.7 -0.8
v -1 5.5 -0.8
v -1 5.6 -0.8
v -1 5.7 -0.8
v -0.9 5.4 -0.8
v -0.9 5.5 -0.8
v 0.6 5.4 -0.8
v 0.6 5.6 -0.8
v 0.6 5.7 -0.8
v 0.7 5.4 -0.8
v 0.7 5.7 -0.8
v -1 5.5 -0.9
v -1 5.7 -0.9
v -0.9 5.4 -0.9
v -0.9 5.5 -0.9
v -0.9 5.6 -0.9
v -0.9 5.7 -0.9
v 0.5 5.6 -0.9
v 0.5 5.7 -0.9
v 0.6 5.4 -0.9
v 0.6 5.7 -0.9
v -1 5.4 0.7
v -1 5.7 0.7
v -0.9 5.7 0.7
v 0.5 5.7 0.7
v 0.6 5.4 0.7
v 0.6 5.7 0.7
v -1.1 5.4 0.6
v -1.1 5.7 0.6
v -1 5.4 0.6
v -1 5.7 0.6
v 0.6 5.4 0.6
v 0.6 5.7 0.6
v 0.7 5.4 0.6
v 0.7 5.7 0.6
v -1.2 5.4 0.3
v -1.2 5.5 0.3
v -1.1 5.4 0.3
v -1.1 5.5 0.3
v 0.7 5.4 0.3
v 0.7 5.5 0.3
v 0.8 5.4 0.3
v 0.8 5.5 0.3
v -1.2 5.5 0.2
v -1.2 5.6 0.2
v -1.1 5.5 0.2
v -1.1 5.6 0.2
v 0.7 5.5 0.2
v 0.7 5.6 0.2
v 0.8 5.5 0.2
v 0.8 5.6 0.2
v -1.3 5.3 -0.8
v -1.3 5.7 -0.8
v -1.2 5.3 -0.8
v -1.2 5.7 -0.8
v -1 5.6 -0.8
v -1 5.7 -0.8
v -0.9 5.5 -0.8
v -0.9 5.6 -0.8
v -0.9 5.7 -0.8
v 0.5 5.5 -0.8
v 0.5 5.6 -0.8
v 0.5 5.7 -0.8
v 0.6 5.6 -0.8
v 0.6 5.7 -0.8
v 0.8 5.3 -0.8
v 0.8 5.6 -0.8
v 0.9 5.3 -0.8
v 0.9 5.6 -0.8
v -1.2 5.3 -0.9
v -1.2 5.8 -0.9
v -1.1 5.3 -0.9
v -1.1 5.8 -0.9
v 0.7 5.3 -0.9
v 0.7 5.8 -0.9
v 0.8 5.3 -0.9
v 0.8 5.8 -0.9
v -1.1 5.3 -1
v -1.1 5.8 -1
v -1 5.3 -1
v -1 5.8 -1
v 0.6 5.3 -1
v 0.6 5.8 -1
v 0.7 5.3 -1
v 0.7 5.8 -1
v -1 5.3 -1.1
v -1 5.8 -1.1
v 0.6 5.3 -1.1
v 0.6 5.8 -1.1
v -1 5.3 0.9
v 0.6 5.3 0.9
v -1.1 5.3 0.8
v -1 5.3 0.8
v 0.6 5.3 0.8
v 0.7 5.3 0.8
v -1.2 5.3 0.7
v -1.1 5.3 0.7
v 0.7 5.3 0.7
v 0.8 5.3 0.7
v -1.3 5.3 0.6
v -1.2 5.3 0.6
v 0.8 5.3 0.6
v 0.9 5.3 0.6
v -1.3 5.3 -0.8
v -1.2 5.3 -0.8
v 0.8 5.3 -0.8
v 0.9 5.3 -0.8
v -1.2 5.3 -0.9
v -1.1 5.3 -0.9
v 0.7 5.3 -0.9
v 0.8 5.3 -0.9
v -1.1 5.3 -1
v -1 5.3 -1
v 0.6 5.3 -1
v 0.7 5.3 -1
v -1 5.3 -1.1
v 0.6 5.3 -1.1
v -1.2 5.5 0.3
v -1.1 5.5 0.3
v -0.9 5.5 0.3
v 0.5 5.5 0.3
v 0.7 5.5 0.3
v 0.8 5.5 0.3
v -1.2 5.5 0.2
v -1.1 5.5 0.2
v 0.7 5.5 0.2
v 0.8 5.5 0.2
v -1.2 5.5 -0.4
v -1.1 5.5 -0.4
v 0.7 5.5 -0.4
v 0.8 5.5 -0.4
v -1.2 5.5 -0.5
v -1.1 5.5 -0.5
v 0.7 5.5 -0.5
v 0.8 5.5 -0.5
v -0.9 5.5 -0.8
v 0.5 5.5 -0.8
v -0.9 5.6 0.4
v 0.5 5.6 0.4
v -1 5.6 0.3
v -0.9 5.6 0.3
v 0.5 5.6 0.3
v 0.6 5.6 0.3
v -1.2 5.6 0.2
v -1.1 5.6 0.2
v 0.7 5.6 0.2
v 0.8 5.6 0.2
v -1.2 5.6 -0.4
v -1.1 5.6 -0.4
v 0.7 5.6 -0.4
v 0.8 5.6 -0.4
v -1 5.6 -0.8
v -0.9 5.6 -0.8
v 0.5 5.6 -0.8
v 0.6 5.6 -0.8
v -0.9 5.6 -0.9
v 0.5 5.6 -0.9
v -1 5.7 0.7
v -0.9 5.7 0.7
v 0.5 5.7 0.7
v 0.6 5.7 0.7
v -1.1 5.7 0.6
v -1 5.7 0.6
v -0.9 5.7 0.6
v 0.5 5.7 0.6
v 0.6 5.7 0.6
v 0.7 5.7 0.6
v -0.9 5.7 0.4
v 0.5 5.7 0.4
v -1 5.7 0.3
v -0.9 5.7 0.3
v 0.5 5.7 0.3
v 0.6 5.7 0.3
v -1.1 5.7 -0.7
v -1 5.7 -0.7
v 0.6 5.7 -0.7
v 0.7 5.7 -0.7
v -1.1 5.7 -0.8
v -1 5.7 -0.8
v -0.9 5.7 -0.8
v 0.5 5.7 -0.8
v 0.6 5.7 -0.8
v 0.7 5.7 -0.8
v -1 5.7 -0.9
v -0.9 5.7 -0.9
v 0.5 5.7 -0.9
v 0.6 5.7 -0.9
v -1 5.4 0.7
v 0.6 5.4 0.7
v -1.3 5.4 0.6
v -1.2 5.4 0.6
v -1.1 5.4 0.6
v -1 5.4 0.6
v 0.6 5.4 0.6
v 0.7 5.4 0.6
v 0.8 5.4 0.6
v 0.9 5.4 0.6
v -1.3 5.4 0.5
v -1.2 5.4 0.5
v 0.8 5.4 0.5
v 0.9 5.4 0.5
v -1.2 5.4 0.3
v -1.1 5.4 0.3
v 0.7 5.4 0.3
v 0.8 5.4 0.3
v -1.2 5.4 -0.5
v -1.1 5.4 -0.5
v 0.7 5.4 -0.5
v 0.8 5.4 -0.5
v -1.1 5.4 -0.8
v -0.9 5.4 -0.8
v 0.6 5.4 -0.8
v 0.7 5.4 -0.8
v -0.9 5.4 -0.9
v 0.6 5.4 -0.9
v -1 5.5 -0.8
v -0.9 5.5 -0.8
v -1 5.5 -0.9
v -0.9 5.5 -0.9
v 0.8 5.6 0.5
v 0.9 5.6 0.5
v 0.8 5.6 -0.8
v 0.9 5.6 -0.8
v -1.3 5.7 0.5
v -1.2 5.7 0.5
v -1.3 5.7 -0.8
v -1.2 5.7 -0.8
v -1 5.8 0.9
v 0.6 5.8 0.9
v -1.1 5.8 0.8
v -1 5.8 0.8
v 0.6 5.8 0.8
v 0.7 5.8 0.8
v -1.2 5.8 0.7
v -1.1 5.8 0.7
v -0.9 5.8 0.7
v 0.5 5.8 0.7
v 0.7 5.8 0.7
v 0.8 5.8 0.7
v -1.1 5.8 0.6
v -0.9 5.8 0.6
v 0.5 5.8 0.6
v 0.7 5.8 0.6
v -1.1 5.8 -0.7
v -0.9 5.8 -0.7
v 0.5 5.8 -0.7
v 0.7 5.8 -0.7
v -0.9 5.8 -0.8
v 0.5 5.8 -0.8
v -1.2 5.8 -0.9
v -1.1 5.8 -0.9
v 0.7 5.8 -0.9
v 0.8 5.8 -0.9
v -1.1 5.8 -1
v -1 5.8 -1
v 0.6 5.8 -1
v 0.7 5.8 -1
v -1 5.8 -1.1
v 0.6 5.8 -1.1

# faces
f 3/2/1 2/2/1 1/2/1
f 4/2/1 2/2/1 3/2/1
f 5/2/1 2/2/1 4/2/1
f 6/2/1 2/2/1 5/2/1
f 11/2/1 8/2/1 7/2/1
f 13/2/1 12/2/1 11/2/1
f 14/2/1 10/2/1 9/2/1
f 15/2/1 13/2/1 11/2/1
f 15/2/1 14/2/1 13/2/1
f 15/2/1 11/2/1 7/2/1
f 16/2/1 10/2/1 14/2/1
f 16/2/1 14/2/1 15/2/1
f 21/2/1 18/2/1 17/2/1
f 22/2/1 18/2/1 21/2/1
f 23/2/1 20/2/1 19/2/1
f 24/2/1 20/2/1 23/2/1
f 31/1/1 30/1/1 29/1/1
f 32/1/1 30/1/1 31/1/1
f 33/1/1 30/1/1 32/1/1
f 34/2/1 26/2/1 25/2/1
f 35/2/1 26/2/1 34/2/1
f 36/2/1 28/2/1 27/2/1
f 37/2/1 28/2/1 36/2/1
f 41/1/1 39/1/1 38/1/1
f 42/1/1 39/1/1 41/1/1
f 44/1/1 41/1/1 40/1/1
f 45/1/1 41/1/1 44/1/1
f 46/1/1 43/1/1 42/1/1
f 47/1/1 43/1/1 46/1/1
f 52/2/1 51/2/1 50/2/1
f 53/2/1 49/2/1 48/2/1
f 54/2/1 49/2/1 53/2/1
f 55/2/1 51/2/1 52/2/1
f 56/2/1 51/2/1 55/2/1
f 61/2/1 58/2/1 57/2/1
f 64/2/1 60/2/1 59/2/1
f 65/2/1 62/2/1 61/2/1
f 66/2/1 64/2/1 63/2/1
f 67/2/1 65/2/1 61/2/1
f 67/2/1 66/2/1 65/2/1
f 67/2/1 61/2/1 57/2/1
f 68/2/1 64/2/1 66/2/1
f 68/2/1 66/2/1 67/2/1
f 68/2/1 60/2/1 64/2/1
f 69/2/1 60/2/1 68/2/1
f 72/2/1 71/2/1 70/2/1
f 73/2/1 71/2/1 72/2/1
f 74/2/1 71/2/1 73/2/1
f 75/2/1 71/2/1 74/2/1
f 76/2/1 74/2/1 73/2/1
f 77/2/1 74/2/1 76/2/1
f 78/2/2 79/2/2 80/2/2
f 80/2/2 79/2/2 81/2/2
f 81/2/2 79/2/2 82/2/2
f 82/2/2 79/2/2 83/2/2
f 81/2/2 82/2/2 84/2/2
f 84/2/2 82/2/2 85/2/2
f 86/2/2 87/2/2 90/2/2
f 88/2/2 89/2/2 93/2/2
f 90/2/2 91/2/2 94/2/2
f 92/2/2 93/2/2 95/2/2
f 90/2/2 94/2/2 96/2/2
f 94/2/2 95/2/2 96/2/2
f 86/2/2 90/2/2 96/2/2
f 95/2/2 93/2/2 97/2/2
f 96/2/2 95/2/2 97/2/2
f 93/2/2 89/2/2 97/2/2
f 97/2/2 89/2/2 98/2/2
f 101/2/2 102/2/2 103/2/2
f 99/2/2 100/2/2 104/2/2
f 104/2/2 100/2/2 105/2/2
f 103/2/2 102/2/2 106/2/2
f 106/2/2 102/2/2 107/2/2
f 108/2/2 109/2/2 110/2/2
f 110/2/2 109/2/2 111/2/2
f 112/1/2 113/1/2 115/1/2
f 115/1/2 113/1/2 116/1/2
f 114/1/2 115/1/2 118/1/2
f 118/1/2 115/1/2 119/1/2
f 116/1/2 117/1/2 120/1/2
f 120/1/2 117/1/2 121/1/2
f 126/1/2 127/1/2 128/1/2
f 128/1/2 127/1/2 129/1/2
f 129/1/2 127/1/2 130/1/2
f 122/2/2 123/2/2 131/2/2
f 131/2/2 123/2/2 132/2/2
f 124/2/2 125/2/2 133/2/2
f 133/2/2 125/2/2 134/2/2
f 135/2/2 136/2/2 139/2/2
f 139/2/2 136/2/2 140/2/2
f 137/2/2 138/2/2 141/2/2
f 141/2/2 138/2/2 142/2/2
f 143/2/2 144/2/2 147/2/2
f 147/2/2 148/2/2 149/2/2
f 145/2/2 146/2/2 150/2/2
f 147/2/2 149/2/2 151/2/2
f 149/2/2 150/2/2 151/2/2
f 143/2/2 147/2/2 151/2/2
f 150/2/2 146/2/2 152/2/2
f 151/2/2 150/2/2 152/2/2
f 153/2/2 154/2/2 155/2/2
f 155/2/2 154/2/2 156/2/2
f 156/2/2 154/2/2 157/2/2
f 157/2/2 154/2/2 158/2/2
f 161/2/3 160/2/3 159/2/3
f 162/2/3 160/2/3 161/2/3
f 165/2/3 164/2/3 163/2/3
f 166/2/3 164/2/3 165/2/3
f 169/2/3 168/2/3 167/2/3
f 170/2/3 168/2/3 169/2/3
f 173/2/3 172/2/3 171/2/3
f 174/2/3 172/2/3 173/2/3
f 177/2/3 176/2/3 175/2/3
f 178/2/3 176/2/3 177/2/3
f 181/2/3 180/2/3 179/2/3
f 182/2/3 180/2/3 181/2/3
f 185/2/3 184/2/3 183/2/3
f 186/2/3 184/2/3 185/2/3
f 189/2/3 188/2/3 187/2/3
f 190/2/3 188/2/3 189/2/3
f 193/2/3 192/2/3 191/2/3
f 194/2/3 192/2/3 193/2/3
f 197/1/3 196/1/3 195/1/3
f 198/1/3 196/1/3 197/1/3
f 202/1/3 200/1/3 199/1/3
f 203/1/3 200/1/3 202/1/3
f 204/1/3 202/1/3 201/1/3
f 205/1/3 202/1/3 204/1/3
f 207/1/3 206/1/3 205/1/3
f 208/1/3 206/1/3 207/1/3
f 211/2/3 210/2/3 209/2/3
f 212/2/3 210/2/3 211/2/3
f 215/2/3 214/2/3 213/2/3
f 216/2/3 214/2/3 215/2/3
f 219/2/3 218/2/3 217/2/3
f 220/2/3 218/2/3 219/2/3
f 223/2/3 222/2/3 221/2/3
f 224/2/3 222/2/3 223/2/3
f 227/2/3 226/2/3 225/2/3
f 228/2/3 226/2/3 227/2/3
f 229/2/3 226/2/3 228/2/3
f 230/2/3 227/2/3 225/2/3
f 231/2/3 227/2/3 230/2/3
f 235/2/3 233/2/3 232/2/3
f 235/2/3 234/2/3 233/2/3
f 236/2/3 234/2/3 235/2/3
f 240/2/3 238/2/3 237/2/3
f 241/2/3 238/2/3 240/2/3
f 242/2/3 238/2/3 241/2/3
f 243/2/3 240/2/3 239/2/3
f 243/2/3 241/2/3 240/2/3
f 245/2/3 243/2/3 239/2/3
f 245/2/3 244/2/3 243/2/3
f 246/2/3 244/2/3 245/2/3
f 247/2/4 248/2/4 249/2/4
f 247/2/4 249/2/4 250/2/4
f 247/2/4 250/2/4 251/2/4
f 251/2/4 250/2/4 252/2/4
f 253/2/4 254/2/4 255/2/4
f 255/2/4 254/2/4 256/2/4
f 257/2/4 258/2/4 259/2/4
f 259/2/4 258/2/4 260/2/4
f 261/2/4 262/2/4 263/2/4
f 263/2/4 262/2/4 264/2/4
f 265/2/4 266/2/4 267/2/4
f 267/2/4 266/2/4 268/2/4
f 269/2/4 270/2/4 271/2/4
f 271/2/4 270/2/4 272/2/4
f 273/2/4 274/2/4 275/2/4
f 275/2/4 274/2/4 276/2/4
f 277/2/4 278/2/4 279/2/4
f 279/2/4 278/2/4 280/2/4
f 281/1/4 282/1/4 284/1/4
f 284/1/4 282/1/4 285/1/4
f 283/1/4 284/1/4 286/1/4
f 286/1/4 284/1/4 287/1/4
f 287/1/4 288/1/4 289/1/4
f 289/1/4 288/1/4 290/1/4
f 291/2/4 292/2/4 293/2/4
f 293/2/4 292/2/4 294/2/4
f 295/2/4 296/2/4 297/2/4
f 297/2/4 296/2/4 298/2/4
f 299/2/4 300/2/4 301/2/4
f 301/2/4 300/2/4 302/2/4
f 303/2/4 304/2/4 305/2/4
f 305/2/4 304/2/4 306/2/4
f 307/2/4 308/2/4 309/2/4
f 309/2/4 308/2/4 310/2/4
f 311/2/4 312/2/4 313/2/4
f 313/2/4 312/2/4 314/2/4
f 318/2/5 316/2/5 315/2/5
f 319/2/5 316/2/5 318/2/5
f 322/2/5 318/2/5 317/2/5
f 322/2/5 320/2/5 319/2/5
f 322/2/5 319/2/5 318/2/5
f 323/2/5 320/2/5 322/2/5
f 326/2/5 322/2/5 321/2/5
f 326/2/5 324/2/5 323/2/5
f 326/2/5 323/2/5 322/2/5
f 327/2/5 324/2/5 326/2/5
f 329/2/5 326/2/5 325/2/5
f 329/2/5 328/2/5 327/2/5
f 329/2/5 327/2/5 326/2/5
f 330/2/5 328/2/5 329/2/5
f 331/2/5 328/2/5 330/2/5
f 332/2/5 328/2/5 331/2/5
f 333/2/5 331/2/5 330/2/5
f 334/2/5 331/2/5 333/2/5
f 335/2/5 331/2/5 334/2/5
f 336/2/5 331/2/5 335/2/5
f 337/2/5 335/2/5 334/2/5
f 338/2/5 335/2/5 337/2/5
f 339/2/5 335/2/5 338/2/5
f 340/2/5 335/2/5 339/2/5
f 341/2/5 339/2/5 338/2/5
f 342/2/5 339/2/5 341/2/5
f 349/2/5 344/2/5 343/2/5
f 350/2/5 344/2/5 349/2/5
f 351/2/5 348/2/5 347/2/5
f 352/2/5 348/2/5 351/2/5
f 357/2/5 354/2/5 353/2/5
f 358/2/5 354/2/5 357/2/5
f 359/2/5 356/2/5 355/2/5
f 360/2/5 356/2/5 359/2/5
f 361/1/5 346/1/5 345/1/5
f 362/1/5 346/1/5 361/1/5
f 366/1/5 364/1/5 363/1/5
f 367/1/5 364/1/5 366/1/5
f 373/2/5 370/2/5 369/2/5
f 374/2/5 370/2/5 373/2/5
f 375/2/5 372/2/5 371/2/5
f 376/2/5 372/2/5 375/2/5
f 377/1/5 366/1/5 365/1/5
f 378/1/5 366/1/5 377/1/5
f 379/1/5 368/1/5 367/1/5
f 380/1/5 368/1/5 379/1/5
f 381/1/5 379/1/5 378/1/5
f 382/1/5 379/1/5 381/1/5
f 388/2/5 384/2/5 383/2/5
f 389/1/5 385/1/5 384/1/5
f 389/2/5 384/2/5 388/2/5
f 390/2/5 386/2/5 385/2/5
f 390/1/5 385/1/5 389/1/5
f 391/2/5 386/2/5 390/2/5
f 393/1/5 389/1/5 388/1/5
f 393/1/5 392/1/5 391/1/5
f 393/1/5 391/1/5 390/1/5
f 393/1/5 390/1/5 389/1/5
f 393/1/5 388/1/5 387/1/5
f 394/1/5 392/1/5 393/1/5
f 395/1/5 393/1/5 387/1/5
f 396/1/5 393/1/5 395/1/5
f 397/1/5 392/1/5 394/1/5
f 398/1/5 392/1/5 397/1/5
f 399/1/5 395/1/5 387/1/5
f 400/1/5 395/1/5 399/1/5
f 401/1/5 392/1/5 398/1/5
f 402/1/5 392/1/5 401/1/5
f 403/2/5 400/2/5 399/2/5
f 404/2/5 400/2/5 403/2/5
f 407/2/5 402/2/5 401/2/5
f 408/2/5 402/2/5 407/2/5
f 409/2/5 405/2/5 404/2/5
f 410/2/5 405/2/5 409/2/5
f 411/2/5 407/2/5 406/2/5
f 412/2/5 407/2/5 411/2/5
f 413/2/6 414/2/6 418/2/6
f 418/2/6 414/2/6 419/2/6
f 415/2/6 416/2/6 423/2/6
f 423/2/6 416/2/6 424/2/6
f 421/2/6 422/2/6 425/2/6
f 425/2/6 422/2/6 426/2/6
f 417/2/6 418/2/6 428/2/6
f 418/2/6 419/2/6 428/2/6
f 419/2/6 420/2/6 428/2/6
f 428/2/6 420/2/6 429/2/6
f 427/2/6 428/2/6 431/2/6
f 429/2/6 430/2/6 431/2/6
f 428/2/6 429/2/6 431/2/6
f 431/2/6 430/2/6 432/2/6
f 432/2/6 430/2/6 433/2/6
f 433/2/6 430/2/6 434/2/6
f 432/2/6 433/2/6 435/2/6
f 435/2/6 433/2/6 436/2/6
f 436/2/6 433/2/6 437/2/6
f 437/2/6 433/2/6 438/2/6
f 436/2/6 437/2/6 439/2/6
f 439/2/6 437/2/6 440/2/6
f 441/2/6 442/2/6 443/2/6
f 443/2/6 442/2/6 444/2/6
f 445/2/6 446/2/6 447/2/6
f 447/2/6 446/2/6 448/2/6
f 449/2/6 450/2/6 451/2/6
f 451/2/6 450/2/6 452/2/6
f 453/2/6 454/2/6 456/2/6
f 456/2/6 454/2/6 457/2/6
f 455/2/6 456/2/6 460/2/6
f 457/2/6 458/2/6 460/2/6
f 456/2/6 457/2/6 460/2/6
f 460/2/6 458/2/6 461/2/6
f 461/2/6 458/2/6 462/2/6
f 462/2/6 458/2/6 463/2/6
f 459/2/6 460/2/6 465/2/6
f 460/2/6 461/2/6 465/2/6
f 461/1/6 462/1/6 466/1/6
f 465/2/6 461/2/6 466/2/6
f 463/2/6 464/2/6 467/2/6
f 466/1/6 462/1/6 467/1/6
f 462/2/6 463/2/6 467/2/6
f 467/2/6 464/2/6 468/2/6
f 465/1/6 466/1/6 469/1/6
f 459/2/6 465/2/6 469/2/6
f 467/1/6 468/1/6 469/1/6
f 466/1/6 467/1/6 469/1/6
f 469/1/6 468/1/6 470/1/6
f 470/1/6 468/1/6 471/1/6
f 468/2/6 464/2/6 472/2/6
f 471/1/6 468/1/6 472/1/6
f 470/1/6 471/1/6 473/1/6
f 469/2/6 470/2/6 473/2/6
f 471/2/6 472/2/6 474/2/6
f 473/1/6 471/1/6 474/1/6
f 459/2/6 469/2/6 475/2/6
f 469/2/6 473/2/6 475/2/6
f 473/2/6 474/2/6 475/2/6
f 475/2/6 474/2/6 476/2/6
f 472/2/6 464/2/6 477/2/6
f 476/2/6 474/2/6 477/2/6
f 474/2/6 472/2/6 477/2/6
f 477/2/6 464/2/6 478/2/6
f 476/2/6 477/2/6 479/2/6
f 479/2/6 477/2/6 480/2/6
f 480/2/6 477/2/6 481/2/6
f 481/2/6 477/2/6 482/2/6
f 480/2/6 481/2/6 483/2/6
f 483/2/6 481/2/6 484/2/6
