# MagicaVoxel @ Ephtracy

# group
o Lhand

# material
mtllib Character-6-Lhand.mtl
usemtl palette

# normals
vn -1 0 0
vn 1 0 0
vn 0 0 1
vn 0 0 -1
vn 0 -1 0
vn 0 1 0

# texcoords
vt 0.0332031 0.5

# verts
v -2 3.6 0.2
v -2 3.6 -0.2
v -2 4 0.2
v -2 4 -0.2
v -1.9 3.5 0.2
v -1.9 3.5 -0.2
v -1.9 3.6 0.3
v -1.9 3.6 0.2
v -1.9 3.6 -0.2
v -1.9 3.6 -0.3
v -1.9 4 0.3
v -1.9 4 0.2
v -1.9 4 -0.2
v -1.9 4.1 0.2
v -1.9 4.1 0.1
v -1.9 4.2 0.1
v -1.9 4.2 -0.3
v -1.8 3.5 0.3
v -1.8 3.5 0.2
v -1.8 3.5 -0.2
v -1.8 3.5 -0.3
v -1.8 3.6 0.3
v -1.8 3.6 0.2
v -1.8 3.6 -0.2
v -1.8 3.6 -0.3
v -1.8 3.9 0.2
v -1.8 3.9 -0.2
v -1.8 3.9 -0.3
v -1.8 3.9 -0.4
v -1.8 4 0.2
v -1.8 4 -0.2
v -1.8 4.1 -0.3
v -1.8 4.1 -0.4
v -1.6 3.7 -0.1
v -1.6 3.7 -0.4
v -1.6 3.9 -0.1
v -1.6 3.9 -0.4
v -1.9 3.9 0.2
v -1.9 3.9 -0.2
v -1.9 4 0.2
v -1.9 4 -0.2
v -1.8 3.6 0.3
v -1.8 3.6 -0.3
v -1.8 3.9 0.3
v -1.8 3.9 -0.3
v -1.6 3.5 0.3
v -1.6 3.5 -0.3
v -1.6 3.6 0.3
v -1.6 3.6 -0.3
v -1.6 3.9 0.3
v -1.6 3.9 -0.1
v -1.6 4 0.3
v -1.6 4 0.2
v -1.6 4 -0.1
v -1.6 4 -0.4
v -1.6 4.1 0.2
v -1.6 4.1 0.1
v -1.6 4.1 -0.3
v -1.6 4.1 -0.4
v -1.6 4.2 0.1
v -1.6 4.2 -0.3
v -1.5 3.7 -0.1
v -1.5 3.7 -0.4
v -1.5 4 -0.1
v -1.5 4 -0.4
v -1.9 3.6 0.3
v -1.9 4 0.3
v -1.8 3.5 0.3
v -1.8 3.6 0.3
v -1.8 3.9 0.3
v -1.6 3.5 0.3
v -1.6 3.6 0.3
v -1.6 3.9 0.3
v -1.6 4 0.3
v -2 3.6 0.2
v -2 4 0.2
v -1.9 3.5 0.2
v -1.9 3.6 0.2
v -1.9 4 0.2
v -1.9 4.1 0.2
v -1.8 3.5 0.2
v -1.8 3.6 0.2
v -1.6 4 0.2
v -1.6 4.1 0.2
v -1.9 4.1 0.1
v -1.9 4.2 0.1
v -1.6 4.1 0.1
v -1.6 4.2 0.1
v -1.6 3.7 -0.1
v -1.6 3.9 -0.1
v -1.6 4 -0.1
v -1.5 3.7 -0.1
v -1.5 4 -0.1
v -1.9 3.9 -0.2
v -1.9 4 -0.2
v -1.8 3.9 -0.2
v -1.8 4 -0.2
v -1.9 3.9 0.2
v -1.9 4 0.2
v -1.8 3.9 0.2
v -1.8 4 0.2
v -2 3.6 -0.2
v -2 4 -0.2
v -1.9 3.5 -0.2
v -1.9 3.6 -0.2
v -1.9 4 -0.2
v -1.8 3.5 -0.2
v -1.8 3.6 -0.2
v -1.9 3.6 -0.3
v -1.9 4.2 -0.3
v -1.8 3.5 -0.3
v -1.8 3.6 -0.3
v -1.8 3.9 -0.3
v -1.8 4.1 -0.3
v -1.6 3.5 -0.3
v -1.6 3.6 -0.3
v -1.6 4.1 -0.3
v -1.6 4.2 -0.3
v -1.8 3.9 -0.4
v -1.8 4.1 -0.4
v -1.6 3.7 -0.4
v -1.6 3.9 -0.4
v -1.6 4 -0.4
v -1.6 4.1 -0.4
v -1.5 3.7 -0.4
v -1.5 4 -0.4
v -1.8 3.5 0.3
v -1.6 3.5 0.3
v -1.9 3.5 0.2
v -1.8 3.5 0.2
v -1.9 3.5 -0.2
v -1.8 3.5 -0.2
v -1.8 3.5 -0.3
v -1.6 3.5 -0.3
v -1.9 3.6 0.3
v -1.8 3.6 0.3
v -2 3.6 0.2
v -1.9 3.6 0.2
v -1.8 3.6 0.2
v -2 3.6 -0.2
v -1.9 3.6 -0.2
v -1.8 3.6 -0.2
v -1.9 3.6 -0.3
v -1.8 3.6 -0.3
v -1.6 3.7 -0.1
v -1.5 3.7 -0.1
v -1.6 3.7 -0.4
v -1.5 3.7 -0.4
v -1.8 3.9 0.3
v -1.6 3.9 0.3
v -1.6 3.9 -0.1
v -1.8 3.9 -0.3
v -1.8 3.9 -0.4
v -1.6 3.9 -0.4
v -1.9 4 0.2
v -1.8 4 0.2
v -1.9 4 -0.2
v -1.8 4 -0.2
v -1.8 3.6 0.3
v -1.6 3.6 0.3
v -1.8 3.6 -0.3
v -1.6 3.6 -0.3
v -1.9 3.9 0.2
v -1.8 3.9 0.2
v -1.9 3.9 -0.2
v -1.8 3.9 -0.2
v -1.9 4 0.3
v -1.6 4 0.3
v -2 4 0.2
v -1.9 4 0.2
v -1.6 4 0.2
v -1.6 4 -0.1
v -1.5 4 -0.1
v -2 4 -0.2
v -1.9 4 -0.2
v -1.6 4 -0.4
v -1.5 4 -0.4
v -1.9 4.1 0.2
v -1.6 4.1 0.2
v -1.9 4.1 0.1
v -1.6 4.1 0.1
v -1.8 4.1 -0.3
v -1.6 4.1 -0.3
v -1.8 4.1 -0.4
v -1.6 4.1 -0.4
v -1.9 4.2 0.1
v -1.6 4.2 0.1
v -1.9 4.2 -0.3
v -1.6 4.2 -0.3

# faces
f 3/1/1 2/1/1 1/1/1
f 4/1/1 2/1/1 3/1/1
f 8/1/1 6/1/1 5/1/1
f 9/1/1 6/1/1 8/1/1
f 11/1/1 8/1/1 7/1/1
f 12/1/1 8/1/1 11/1/1
f 13/1/1 10/1/1 9/1/1
f 14/1/1 13/1/1 12/1/1
f 15/1/1 13/1/1 14/1/1
f 16/1/1 13/1/1 15/1/1
f 17/1/1 10/1/1 13/1/1
f 17/1/1 13/1/1 16/1/1
f 22/1/1 19/1/1 18/1/1
f 23/1/1 19/1/1 22/1/1
f 24/1/1 21/1/1 20/1/1
f 25/1/1 21/1/1 24/1/1
f 30/1/1 27/1/1 26/1/1
f 31/1/1 27/1/1 30/1/1
f 32/1/1 29/1/1 28/1/1
f 33/1/1 29/1/1 32/1/1
f 36/1/1 35/1/1 34/1/1
f 37/1/1 35/1/1 36/1/1
f 38/1/2 39/1/2 40/1/2
f 40/1/2 39/1/2 41/1/2
f 42/1/2 43/1/2 44/1/2
f 44/1/2 43/1/2 45/1/2
f 46/1/2 47/1/2 48/1/2
f 48/1/2 47/1/2 49/1/2
f 50/1/2 51/1/2 52/1/2
f 52/1/2 51/1/2 53/1/2
f 53/1/2 51/1/2 54/1/2
f 53/1/2 54/1/2 56/1/2
f 54/1/2 55/1/2 56/1/2
f 56/1/2 55/1/2 57/1/2
f 57/1/2 55/1/2 58/1/2
f 58/1/2 55/1/2 59/1/2
f 57/1/2 58/1/2 60/1/2
f 60/1/2 58/1/2 61/1/2
f 62/1/2 63/1/2 64/1/2
f 64/1/2 63/1/2 65/1/2
f 69/1/3 67/1/3 66/1/3
f 70/1/3 67/1/3 69/1/3
f 71/1/3 69/1/3 68/1/3
f 72/1/3 69/1/3 71/1/3
f 73/1/3 67/1/3 70/1/3
f 74/1/3 67/1/3 73/1/3
f 78/1/3 76/1/3 75/1/3
f 79/1/3 76/1/3 78/1/3
f 81/1/3 78/1/3 77/1/3
f 82/1/3 78/1/3 81/1/3
f 83/1/3 80/1/3 79/1/3
f 84/1/3 80/1/3 83/1/3
f 87/1/3 86/1/3 85/1/3
f 88/1/3 86/1/3 87/1/3
f 92/1/3 90/1/3 89/1/3
f 92/1/3 91/1/3 90/1/3
f 93/1/3 91/1/3 92/1/3
f 96/1/3 95/1/3 94/1/3
f 97/1/3 95/1/3 96/1/3
f 98/1/4 99/1/4 100/1/4
f 100/1/4 99/1/4 101/1/4
f 102/1/4 103/1/4 105/1/4
f 105/1/4 103/1/4 106/1/4
f 104/1/4 105/1/4 107/1/4
f 107/1/4 105/1/4 108/1/4
f 109/1/4 110/1/4 112/1/4
f 112/1/4 110/1/4 113/1/4
f 113/1/4 110/1/4 114/1/4
f 111/1/4 112/1/4 115/1/4
f 115/1/4 112/1/4 116/1/4
f 114/1/4 110/1/4 117/1/4
f 117/1/4 110/1/4 118/1/4
f 119/1/4 120/1/4 122/1/4
f 122/1/4 120/1/4 123/1/4
f 123/1/4 120/1/4 124/1/4
f 121/1/4 122/1/4 125/1/4
f 122/1/4 123/1/4 125/1/4
f 125/1/4 123/1/4 126/1/4
f 130/1/5 128/1/5 127/1/5
f 131/1/5 130/1/5 129/1/5
f 132/1/5 128/1/5 130/1/5
f 132/1/5 130/1/5 131/1/5
f 133/1/5 128/1/5 132/1/5
f 134/1/5 128/1/5 133/1/5
f 138/1/5 136/1/5 135/1/5
f 139/1/5 136/1/5 138/1/5
f 140/1/5 138/1/5 137/1/5
f 141/1/5 138/1/5 140/1/5
f 143/1/5 142/1/5 141/1/5
f 144/1/5 142/1/5 143/1/5
f 147/1/5 146/1/5 145/1/5
f 148/1/5 146/1/5 147/1/5
f 151/1/5 150/1/5 149/1/5
f 152/1/5 151/1/5 149/1/5
f 153/1/5 151/1/5 152/1/5
f 154/1/5 151/1/5 153/1/5
f 157/1/5 156/1/5 155/1/5
f 158/1/5 156/1/5 157/1/5
f 159/1/6 160/1/6 161/1/6
f 161/1/6 160/1/6 162/1/6
f 163/1/6 164/1/6 165/1/6
f 165/1/6 164/1/6 166/1/6
f 167/1/6 168/1/6 170/1/6
f 170/1/6 168/1/6 171/1/6
f 169/1/6 170/1/6 174/1/6
f 174/1/6 170/1/6 175/1/6
f 172/1/6 173/1/6 176/1/6
f 176/1/6 173/1/6 177/1/6
f 178/1/6 179/1/6 180/1/6
f 180/1/6 179/1/6 181/1/6
f 182/1/6 183/1/6 184/1/6
f 184/1/6 183/1/6 185/1/6
f 186/1/6 187/1/6 188/1/6
f 188/1/6 187/1/6 189/1/6
