# MagicaVoxel @ Ephtracy

# group
o RlegDown

# material
mtllib Character-3-RlegDown.mtl
usemtl palette

# normals
vn 1 0 0
vn -1 0 0
vn 0 0 1
vn 0 0 -1
vn 0 -1 0
vn 0 1 0

# texcoords
vt 0.0332031 0.5

# verts
v 0.7 1.2 0.1
v 0.7 1.2 -0.6
v 0.7 1.3 0.3
v 0.7 1.3 0.1
v 0.7 1.3 -0.6
v 0.7 1.3 -0.7
v 0.7 2.9 0.4
v 0.7 2.9 0.3
v 0.7 2.9 -0.7
v 0.7 2.9 -0.8
v 0.7 3.1 0.4
v 0.7 3.1 -0.8
v 0.6 3 -0.8
v 0.6 3 -0.9
v 0.6 3.1 -0.8
v 0.6 3.1 -0.9
v 0.3 1.3 0
v 0.3 1.3 -0.6
v 0.3 1.4 0.1
v 0.3 1.4 0
v 0.3 1.5 0.2
v 0.3 1.5 0.1
v 0.3 2.9 0.3
v 0.3 2.9 0.2
v 0.3 2.9 -0.6
v 0.3 2.9 -0.7
v 0.3 3 0.3
v 0.3 3 -0.7
v 0.6 1.3 0
v 0.6 1.3 -0.6
v 0.6 1.4 0.1
v 0.6 1.4 0
v 0.6 1.5 0.2
v 0.6 1.5 0.1
v 0.6 2.9 0.3
v 0.6 2.9 0.2
v 0.6 2.9 -0.6
v 0.6 2.9 -0.7
v 0.6 3 0.3
v 0.6 3 -0.7
v 0.3 3 -0.8
v 0.3 3 -0.9
v 0.3 3.1 -0.8
v 0.3 3.1 -0.9
v 0.2 1.2 0.1
v 0.2 1.2 -0.6
v 0.2 1.3 0.3
v 0.2 1.3 0.1
v 0.2 1.3 -0.6
v 0.2 1.3 -0.7
v 0.2 2.9 0.4
v 0.2 2.9 0.3
v 0.2 2.9 -0.7
v 0.2 2.9 -0.8
v 0.2 3.1 0.4
v 0.2 3.1 -0.8
v 0.7 2.9 0.4
v 0.7 3.1 0.4
v 0.2 2.9 0.4
v 0.2 3.1 0.4
v 0.7 1.3 0.3
v 0.7 2.9 0.3
v 0.2 1.3 0.3
v 0.2 2.9 0.3
v 0.7 1.2 0.1
v 0.7 1.3 0.1
v 0.2 1.2 0.1
v 0.2 1.3 0.1
v 0.6 1.3 -0.6
v 0.6 2.9 -0.6
v 0.3 1.3 -0.6
v 0.3 2.9 -0.6
v 0.6 2.9 -0.7
v 0.6 3 -0.7
v 0.3 2.9 -0.7
v 0.3 3 -0.7
v 0.6 2.9 0.3
v 0.6 3 0.3
v 0.3 2.9 0.3
v 0.3 3 0.3
v 0.6 1.5 0.2
v 0.6 2.9 0.2
v 0.3 1.5 0.2
v 0.3 2.9 0.2
v 0.6 1.4 0.1
v 0.6 1.5 0.1
v 0.3 1.4 0.1
v 0.3 1.5 0.1
v 0.6 1.3 0
v 0.6 1.4 0
v 0.3 1.3 0
v 0.3 1.4 0
v 0.7 1.2 -0.6
v 0.7 1.3 -0.6
v 0.2 1.2 -0.6
v 0.2 1.3 -0.6
v 0.7 1.3 -0.7
v 0.7 2.9 -0.7
v 0.2 1.3 -0.7
v 0.2 2.9 -0.7
v 0.7 2.9 -0.8
v 0.7 3.1 -0.8
v 0.6 3 -0.8
v 0.6 3.1 -0.8
v 0.3 3 -0.8
v 0.3 3.1 -0.8
v 0.2 2.9 -0.8
v 0.2 3.1 -0.8
v 0.6 3 -0.9
v 0.6 3.1 -0.9
v 0.3 3 -0.9
v 0.3 3.1 -0.9
v 0.7 1.2 0.1
v 0.2 1.2 0.1
v 0.7 1.2 -0.6
v 0.2 1.2 -0.6
v 0.7 1.3 0.3
v 0.2 1.3 0.3
v 0.7 1.3 0.1
v 0.2 1.3 0.1
v 0.7 1.3 -0.6
v 0.2 1.3 -0.6
v 0.7 1.3 -0.7
v 0.2 1.3 -0.7
v 0.7 2.9 0.4
v 0.2 2.9 0.4
v 0.7 2.9 0.3
v 0.2 2.9 0.3
v 0.7 2.9 -0.7
v 0.2 2.9 -0.7
v 0.7 2.9 -0.8
v 0.2 2.9 -0.8
v 0.6 3 0.3
v 0.3 3 0.3
v 0.6 3 -0.7
v 0.3 3 -0.7
v 0.6 3 -0.8
v 0.3 3 -0.8
v 0.6 3 -0.9
v 0.3 3 -0.9
v 0.6 1.3 0
v 0.3 1.3 0
v 0.6 1.3 -0.6
v 0.3 1.3 -0.6
v 0.6 1.4 0.1
v 0.3 1.4 0.1
v 0.6 1.4 0
v 0.3 1.4 0
v 0.6 1.5 0.2
v 0.3 1.5 0.2
v 0.6 1.5 0.1
v 0.3 1.5 0.1
v 0.6 2.9 0.3
v 0.3 2.9 0.3
v 0.6 2.9 0.2
v 0.3 2.9 0.2
v 0.6 2.9 -0.6
v 0.3 2.9 -0.6
v 0.6 2.9 -0.7
v 0.3 2.9 -0.7
v 0.7 3.1 0.4
v 0.2 3.1 0.4
v 0.7 3.1 -0.8
v 0.6 3.1 -0.8
v 0.3 3.1 -0.8
v 0.2 3.1 -0.8
v 0.6 3.1 -0.9
v 0.3 3.1 -0.9

# faces
f 1/1/1 2/1/1 4/1/1
f 4/1/1 2/1/1 5/1/1
f 3/1/1 4/1/1 8/1/1
f 5/1/1 6/1/1 8/1/1
f 4/1/1 5/1/1 8/1/1
f 8/1/1 6/1/1 9/1/1
f 7/1/1 8/1/1 11/1/1
f 9/1/1 10/1/1 11/1/1
f 8/1/1 9/1/1 11/1/1
f 11/1/1 10/1/1 12/1/1
f 13/1/1 14/1/1 15/1/1
f 15/1/1 14/1/1 16/1/1
f 17/1/1 18/1/1 20/1/1
f 19/1/1 20/1/1 22/1/1
f 21/1/1 22/1/1 24/1/1
f 20/1/1 18/1/1 25/1/1
f 22/1/1 20/1/1 25/1/1
f 24/1/1 22/1/1 25/1/1
f 23/1/1 24/1/1 27/1/1
f 25/1/1 26/1/1 27/1/1
f 24/1/1 25/1/1 27/1/1
f 27/1/1 26/1/1 28/1/1
f 32/1/2 30/1/2 29/1/2
f 34/1/2 32/1/2 31/1/2
f 36/1/2 34/1/2 33/1/2
f 37/1/2 30/1/2 32/1/2
f 37/1/2 32/1/2 34/1/2
f 37/1/2 34/1/2 36/1/2
f 39/1/2 36/1/2 35/1/2
f 39/1/2 38/1/2 37/1/2
f 39/1/2 37/1/2 36/1/2
f 40/1/2 38/1/2 39/1/2
f 43/1/2 42/1/2 41/1/2
f 44/1/2 42/1/2 43/1/2
f 48/1/2 46/1/2 45/1/2
f 49/1/2 46/1/2 48/1/2
f 52/1/2 48/1/2 47/1/2
f 52/1/2 50/1/2 49/1/2
f 52/1/2 49/1/2 48/1/2
f 53/1/2 50/1/2 52/1/2
f 55/1/2 52/1/2 51/1/2
f 55/1/2 54/1/2 53/1/2
f 55/1/2 53/1/2 52/1/2
f 56/1/2 54/1/2 55/1/2
f 57/1/3 58/1/3 59/1/3
f 59/1/3 58/1/3 60/1/3
f 61/1/3 62/1/3 63/1/3
f 63/1/3 62/1/3 64/1/3
f 65/1/3 66/1/3 67/1/3
f 67/1/3 66/1/3 68/1/3
f 69/1/3 70/1/3 71/1/3
f 71/1/3 70/1/3 72/1/3
f 73/1/3 74/1/3 75/1/3
f 75/1/3 74/1/3 76/1/3
f 79/1/4 78/1/4 77/1/4
f 80/1/4 78/1/4 79/1/4
f 83/1/4 82/1/4 81/1/4
f 84/1/4 82/1/4 83/1/4
f 87/1/4 86/1/4 85/1/4
f 88/1/4 86/1/4 87/1/4
f 91/1/4 90/1/4 89/1/4
f 92/1/4 90/1/4 91/1/4
f 95/1/4 94/1/4 93/1/4
f 96/1/4 94/1/4 95/1/4
f 99/1/4 98/1/4 97/1/4
f 100/1/4 98/1/4 99/1/4
f 103/1/4 102/1/4 101/1/4
f 104/1/4 102/1/4 103/1/4
f 105/1/4 103/1/4 101/1/4
f 107/1/4 105/1/4 101/1/4
f 107/1/4 106/1/4 105/1/4
f 108/1/4 106/1/4 107/1/4
f 111/1/4 110/1/4 109/1/4
f 112/1/4 110/1/4 111/1/4
f 113/1/5 114/1/5 115/1/5
f 115/1/5 114/1/5 116/1/5
f 117/1/5 118/1/5 119/1/5
f 119/1/5 118/1/5 120/1/5
f 121/1/5 122/1/5 123/1/5
f 123/1/5 122/1/5 124/1/5
f 125/1/5 126/1/5 127/1/5
f 127/1/5 126/1/5 128/1/5
f 129/1/5 130/1/5 131/1/5
f 131/1/5 130/1/5 132/1/5
f 133/1/5 134/1/5 135/1/5
f 135/1/5 134/1/5 136/1/5
f 137/1/5 138/1/5 139/1/5
f 139/1/5 138/1/5 140/1/5
f 143/1/6 142/1/6 141/1/6
f 144/1/6 142/1/6 143/1/6
f 147/1/6 146/1/6 145/1/6
f 148/1/6 146/1/6 147/1/6
f 151/1/6 150/1/6 149/1/6
f 152/1/6 150/1/6 151/1/6
f 155/1/6 154/1/6 153/1/6
f 156/1/6 154/1/6 155/1/6
f 159/1/6 158/1/6 157/1/6
f 160/1/6 158/1/6 159/1/6
f 163/1/6 162/1/6 161/1/6
f 164/1/6 162/1/6 163/1/6
f 165/1/6 162/1/6 164/1/6
f 166/1/6 162/1/6 165/1/6
f 167/1/6 165/1/6 164/1/6
f 168/1/6 165/1/6 167/1/6
