# MagicaVoxel @ Ephtracy

# group
o Tile_Road_2

# material
mtllib Tiles-10-Tile_Road_2.mtl
usemtl palette

# normals
vn -1 0 0
vn 1 0 0
vn 0 0 1
vn 0 0 -1
vn 0 -1 0
vn 0 1 0

# texcoords
vt 0.935547 0.5
vt 0.978516 0.5
vt 0.982422 0.5
vt 0.986328 0.5

# verts
v 0.1 0.1 9.6
v 0.1 0.1 5.6
v 0.1 0.5 9.6
v 0.1 0.5 5.6
v 0.2 0.5 9.5
v 0.2 0.5 8.9
v 0.2 0.5 8.8
v 0.2 0.5 6.9
v 0.2 0.5 6.8
v 0.2 0.5 5.7
v 0.2 0.6 9.5
v 0.2 0.6 8.9
v 0.2 0.6 8.8
v 0.2 0.6 6.9
v 0.2 0.6 6.8
v 0.2 0.6 5.7
v 1.7 0.5 9.5
v 1.7 0.5 8.1
v 1.7 0.5 8
v 1.7 0.5 6.9
v 1.7 0.6 9.5
v 1.7 0.6 8.1
v 1.7 0.6 8
v 1.7 0.6 6.9
v 2.9 0.5 8
v 2.9 0.5 7.3
v 2.9 0.5 7.2
v 2.9 0.5 5.7
v 2.9 0.6 8
v 2.9 0.6 7.3
v 2.9 0.6 7.2
v 2.9 0.6 5.7
v 1.6 0.5 9.5
v 1.6 0.5 8.9
v 1.6 0.5 8.8
v 1.6 0.5 6.9
v 1.6 0.6 9.5
v 1.6 0.6 8.9
v 1.6 0.6 8.8
v 1.6 0.6 6.9
v 2.8 0.5 8
v 2.8 0.5 6.9
v 2.8 0.5 6.8
v 2.8 0.5 5.7
v 2.8 0.6 8
v 2.8 0.6 6.9
v 2.8 0.6 6.8
v 2.8 0.6 5.7
v 4 0.5 9.5
v 4 0.5 8.1
v 4 0.5 8
v 4 0.5 7.3
v 4 0.5 7.2
v 4 0.5 5.7
v 4 0.6 9.5
v 4 0.6 8.1
v 4 0.6 8
v 4 0.6 7.3
v 4 0.6 7.2
v 4 0.6 5.7
v 4.1 0.1 9.6
v 4.1 0.1 5.6
v 4.1 0.5 9.6
v 4.1 0.5 5.6
v 0.1 0.1 9.6
v 0.1 0.5 9.6
v 4.1 0.1 9.6
v 4.1 0.5 9.6
v 0.2 0.5 9.5
v 0.2 0.6 9.5
v 1.6 0.5 9.5
v 1.6 0.6 9.5
v 1.7 0.5 9.5
v 1.7 0.6 9.5
v 4 0.5 9.5
v 4 0.6 9.5
v 0.2 0.5 8.8
v 0.2 0.6 8.8
v 1.6 0.5 8.8
v 1.6 0.6 8.8
v 1.7 0.5 8
v 1.7 0.6 8
v 2.8 0.5 8
v 2.8 0.6 8
v 2.9 0.5 8
v 2.9 0.6 8
v 4 0.5 8
v 4 0.6 8
v 2.9 0.5 7.2
v 2.9 0.6 7.2
v 4 0.5 7.2
v 4 0.6 7.2
v 0.2 0.5 6.8
v 0.2 0.6 6.8
v 2.8 0.5 6.8
v 2.8 0.6 6.8
v 0.2 0.5 8.9
v 0.2 0.6 8.9
v 1.6 0.5 8.9
v 1.6 0.6 8.9
v 1.7 0.5 8.1
v 1.7 0.6 8.1
v 4 0.5 8.1
v 4 0.6 8.1
v 2.9 0.5 7.3
v 2.9 0.6 7.3
v 4 0.5 7.3
v 4 0.6 7.3
v 0.2 0.5 6.9
v 0.2 0.6 6.9
v 1.6 0.5 6.9
v 1.6 0.6 6.9
v 1.7 0.5 6.9
v 1.7 0.6 6.9
v 2.8 0.5 6.9
v 2.8 0.6 6.9
v 0.2 0.5 5.7
v 0.2 0.6 5.7
v 2.8 0.5 5.7
v 2.8 0.6 5.7
v 2.9 0.5 5.7
v 2.9 0.6 5.7
v 4 0.5 5.7
v 4 0.6 5.7
v 0.1 0.1 5.6
v 0.1 0.5 5.6
v 4.1 0.1 5.6
v 4.1 0.5 5.6
v 0.1 0.1 9.6
v 4.1 0.1 9.6
v 0.2 0.1 9.5
v 4 0.1 9.5
v 0.2 0.1 5.7
v 4 0.1 5.7
v 0.1 0.1 5.6
v 4.1 0.1 5.6
v 0.1 0.5 9.6
v 4.1 0.5 9.6
v 0.2 0.5 9.5
v 1.6 0.5 9.5
v 1.7 0.5 9.5
v 4 0.5 9.5
v 0.2 0.5 8.9
v 1.6 0.5 8.9
v 0.2 0.5 8.8
v 1.6 0.5 8.8
v 1.7 0.5 8.1
v 4 0.5 8.1
v 1.7 0.5 8
v 2.8 0.5 8
v 2.9 0.5 8
v 4 0.5 8
v 2.9 0.5 7.3
v 4 0.5 7.3
v 2.9 0.5 7.2
v 4 0.5 7.2
v 0.2 0.5 6.9
v 1.6 0.5 6.9
v 1.7 0.5 6.9
v 2.8 0.5 6.9
v 0.2 0.5 6.8
v 2.8 0.5 6.8
v 0.2 0.5 5.7
v 2.8 0.5 5.7
v 2.9 0.5 5.7
v 4 0.5 5.7
v 0.1 0.5 5.6
v 4.1 0.5 5.6
v 0.2 0.6 9.5
v 1.6 0.6 9.5
v 1.7 0.6 9.5
v 4 0.6 9.5
v 0.2 0.6 8.9
v 1.6 0.6 8.9
v 0.2 0.6 8.8
v 1.6 0.6 8.8
v 1.7 0.6 8.1
v 4 0.6 8.1
v 1.7 0.6 8
v 2.8 0.6 8
v 2.9 0.6 8
v 4 0.6 8
v 2.9 0.6 7.3
v 4 0.6 7.3
v 2.9 0.6 7.2
v 4 0.6 7.2
v 0.2 0.6 6.9
v 1.6 0.6 6.9
v 1.7 0.6 6.9
v 2.8 0.6 6.9
v 0.2 0.6 6.8
v 2.8 0.6 6.8
v 0.2 0.6 5.7
v 2.8 0.6 5.7
v 2.9 0.6 5.7
v 4 0.6 5.7

# faces
f 3/4/1 2/4/1 1/4/1
f 4/4/1 2/4/1 3/4/1
f 11/2/1 6/2/1 5/2/1
f 12/2/1 6/2/1 11/2/1
f 13/3/1 8/3/1 7/3/1
f 14/3/1 8/3/1 13/3/1
f 15/1/1 10/1/1 9/1/1
f 16/1/1 10/1/1 15/1/1
f 21/3/1 18/3/1 17/3/1
f 22/3/1 18/3/1 21/3/1
f 23/2/1 20/2/1 19/2/1
f 24/2/1 20/2/1 23/2/1
f 29/1/1 26/1/1 25/1/1
f 30/1/1 26/1/1 29/1/1
f 31/3/1 28/3/1 27/3/1
f 32/3/1 28/3/1 31/3/1
f 33/2/2 34/2/2 37/2/2
f 37/2/2 34/2/2 38/2/2
f 35/3/2 36/3/2 39/3/2
f 39/3/2 36/3/2 40/3/2
f 41/2/2 42/2/2 45/2/2
f 45/2/2 42/2/2 46/2/2
f 43/1/2 44/1/2 47/1/2
f 47/1/2 44/1/2 48/1/2
f 49/3/2 50/3/2 55/3/2
f 55/3/2 50/3/2 56/3/2
f 51/1/2 52/1/2 57/1/2
f 57/1/2 52/1/2 58/1/2
f 53/3/2 54/3/2 59/3/2
f 59/3/2 54/3/2 60/3/2
f 61/4/2 62/4/2 63/4/2
f 63/4/2 62/4/2 64/4/2
f 67/4/3 66/4/3 65/4/3
f 68/4/3 66/4/3 67/4/3
f 71/2/3 70/2/3 69/2/3
f 72/2/3 70/2/3 71/2/3
f 75/3/3 74/3/3 73/3/3
f 76/3/3 74/3/3 75/3/3
f 79/3/3 78/3/3 77/3/3
f 80/3/3 78/3/3 79/3/3
f 83/2/3 82/2/3 81/2/3
f 84/2/3 82/2/3 83/2/3
f 87/1/3 86/1/3 85/1/3
f 88/1/3 86/1/3 87/1/3
f 91/3/3 90/3/3 89/3/3
f 92/3/3 90/3/3 91/3/3
f 95/1/3 94/1/3 93/1/3
f 96/1/3 94/1/3 95/1/3
f 97/2/4 98/2/4 99/2/4
f 99/2/4 98/2/4 100/2/4
f 101/3/4 102/3/4 103/3/4
f 103/3/4 102/3/4 104/3/4
f 105/1/4 106/1/4 107/1/4
f 107/1/4 106/1/4 108/1/4
f 109/3/4 110/3/4 111/3/4
f 111/3/4 110/3/4 112/3/4
f 113/2/4 114/2/4 115/2/4
f 115/2/4 114/2/4 116/2/4
f 117/1/4 118/1/4 119/1/4
f 119/1/4 118/1/4 120/1/4
f 121/3/4 122/3/4 123/3/4
f 123/3/4 122/3/4 124/3/4
f 125/4/4 126/4/4 127/4/4
f 127/4/4 126/4/4 128/4/4
f 131/4/5 130/4/5 129/4/5
f 132/4/5 130/4/5 131/4/5
f 133/4/5 131/4/5 129/4/5
f 133/3/5 132/3/5 131/3/5
f 134/4/5 130/4/5 132/4/5
f 134/3/5 132/3/5 133/3/5
f 135/4/5 133/4/5 129/4/5
f 135/4/5 134/4/5 133/4/5
f 136/4/5 130/4/5 134/4/5
f 136/4/5 134/4/5 135/4/5
f 137/4/6 138/4/6 139/4/6
f 139/4/6 138/4/6 140/4/6
f 140/4/6 138/4/6 141/4/6
f 141/4/6 138/4/6 142/4/6
f 137/4/6 139/4/6 143/4/6
f 140/4/6 141/4/6 144/4/6
f 137/4/6 143/4/6 145/4/6
f 143/4/6 144/4/6 145/4/6
f 144/4/6 141/4/6 146/4/6
f 145/4/6 144/4/6 146/4/6
f 146/4/6 141/4/6 147/4/6
f 142/4/6 138/4/6 148/4/6
f 146/4/6 147/4/6 149/4/6
f 147/4/6 148/4/6 149/4/6
f 149/4/6 148/4/6 150/4/6
f 150/4/6 148/4/6 151/4/6
f 148/4/6 138/4/6 152/4/6
f 151/4/6 148/4/6 152/4/6
f 150/4/6 151/4/6 153/4/6
f 152/4/6 138/4/6 154/4/6
f 150/4/6 153/4/6 155/4/6
f 153/4/6 154/4/6 155/4/6
f 154/4/6 138/4/6 156/4/6
f 155/4/6 154/4/6 156/4/6
f 137/4/6 145/4/6 157/4/6
f 146/4/6 149/4/6 158/4/6
f 158/4/6 149/4/6 159/4/6
f 150/4/6 155/4/6 160/4/6
f 158/4/6 159/4/6 161/4/6
f 159/4/6 160/4/6 161/4/6
f 137/4/6 157/4/6 161/4/6
f 157/4/6 158/4/6 161/4/6
f 160/4/6 155/4/6 162/4/6
f 161/4/6 160/4/6 162/4/6
f 137/4/6 161/4/6 163/4/6
f 162/4/6 155/4/6 164/4/6
f 164/4/6 155/4/6 165/4/6
f 156/4/6 138/4/6 166/4/6
f 137/4/6 163/4/6 167/4/6
f 165/4/6 166/4/6 167/4/6
f 164/4/6 165/4/6 167/4/6
f 163/4/6 164/4/6 167/4/6
f 166/4/6 138/4/6 168/4/6
f 167/4/6 166/4/6 168/4/6
f 169/2/6 170/2/6 173/2/6
f 173/2/6 170/2/6 174/2/6
f 171/3/6 172/3/6 177/3/6
f 177/3/6 172/3/6 178/3/6
f 181/1/6 182/1/6 183/1/6
f 183/1/6 182/1/6 184/1/6
f 175/3/6 176/3/6 187/3/6
f 187/3/6 176/3/6 188/3/6
f 179/2/6 180/2/6 189/2/6
f 189/2/6 180/2/6 190/2/6
f 191/1/6 192/1/6 193/1/6
f 193/1/6 192/1/6 194/1/6
f 185/3/6 186/3/6 195/3/6
f 195/3/6 186/3/6 196/3/6
