# MagicaVoxel @ Ephtracy

# group
o Tile_Lawns_1

# material
mtllib Tiles-4-Tile_Lawns_1.mtl
usemtl palette

# normals
vn -1 0 0
vn 1 0 0
vn 0 0 1
vn 0 0 -1
vn 0 -1 0
vn 0 1 0

# texcoords
vt 0.369141 0.5
vt 0.583984 0.5
vt 0.634766 0.5

# verts
v 10.1 0.1 9.8
v 10.1 0.1 5.8
v 10.1 0.5 9.8
v 10.1 0.5 5.8
v 10.2 0.5 9.7
v 10.2 0.5 5.9
v 10.2 0.6 9.7
v 10.2 0.6 5.9
v 14 0.5 9.7
v 14 0.5 5.9
v 14 0.6 9.7
v 14 0.6 5.9
v 14.1 0.1 9.8
v 14.1 0.1 5.8
v 14.1 0.5 9.8
v 14.1 0.5 5.8
v 10.1 0.1 9.8
v 10.1 0.5 9.8
v 14.1 0.1 9.8
v 14.1 0.5 9.8
v 10.2 0.5 9.7
v 10.2 0.6 9.7
v 14 0.5 9.7
v 14 0.6 9.7
v 10.2 0.5 5.9
v 10.2 0.6 5.9
v 14 0.5 5.9
v 14 0.6 5.9
v 10.1 0.1 5.8
v 10.1 0.5 5.8
v 14.1 0.1 5.8
v 14.1 0.5 5.8
v 10.1 0.1 9.8
v 14.1 0.1 9.8
v 10.2 0.1 9.7
v 14 0.1 9.7
v 10.2 0.1 5.9
v 14 0.1 5.9
v 10.1 0.1 5.8
v 14.1 0.1 5.8
v 10.1 0.5 9.8
v 14.1 0.5 9.8
v 10.2 0.5 9.7
v 14 0.5 9.7
v 10.2 0.5 5.9
v 14 0.5 5.9
v 10.1 0.5 5.8
v 14.1 0.5 5.8
v 10.2 0.6 9.7
v 14 0.6 9.7
v 10.2 0.6 5.9
v 14 0.6 5.9

# faces
f 3/3/1 2/3/1 1/3/1
f 4/3/1 2/3/1 3/3/1
f 7/2/1 6/2/1 5/2/1
f 8/2/1 6/2/1 7/2/1
f 9/2/2 10/2/2 11/2/2
f 11/2/2 10/2/2 12/2/2
f 13/3/2 14/3/2 15/3/2
f 15/3/2 14/3/2 16/3/2
f 19/3/3 18/3/3 17/3/3
f 20/3/3 18/3/3 19/3/3
f 23/2/3 22/2/3 21/2/3
f 24/2/3 22/2/3 23/2/3
f 25/2/4 26/2/4 27/2/4
f 27/2/4 26/2/4 28/2/4
f 29/3/4 30/3/4 31/3/4
f 31/3/4 30/3/4 32/3/4
f 35/3/5 34/3/5 33/3/5
f 36/3/5 34/3/5 35/3/5
f 37/3/5 35/3/5 33/3/5
f 37/1/5 36/1/5 35/1/5
f 38/3/5 34/3/5 36/3/5
f 38/1/5 36/1/5 37/1/5
f 39/3/5 37/3/5 33/3/5
f 39/3/5 38/3/5 37/3/5
f 40/3/5 34/3/5 38/3/5
f 40/3/5 38/3/5 39/3/5
f 41/3/6 42/3/6 43/3/6
f 43/3/6 42/3/6 44/3/6
f 41/3/6 43/3/6 45/3/6
f 44/3/6 42/3/6 46/3/6
f 41/3/6 45/3/6 47/3/6
f 45/3/6 46/3/6 47/3/6
f 46/3/6 42/3/6 48/3/6
f 47/3/6 46/3/6 48/3/6
f 49/2/6 50/2/6 51/2/6
f 51/2/6 50/2/6 52/2/6
