# MagicaVoxel @ Ephtracy

# group
o Tile_BRoad_3

# material
mtllib Tiles-14-Tile_BRoad_3.mtl
usemtl palette

# normals
vn -1 0 0
vn 1 0 0
vn 0 0 1
vn 0 0 -1
vn 0 -1 0
vn 0 1 0

# texcoords
vt 0.935547 0.5
vt 0.978516 0.5
vt 0.982422 0.5
vt 0.986328 0.5

# verts
v -5 0.1 0.3
v -5 0.1 -3.7
v -5 0.5 0.3
v -5 0.5 -3.7
v -4.9 0.5 0.2
v -4.9 0.5 -0.6
v -4.9 0.5 -0.7
v -4.9 0.5 -2
v -4.9 0.5 -2.1
v -4.9 0.5 -3.6
v -4.9 0.6 0.2
v -4.9 0.6 -0.6
v -4.9 0.6 -0.7
v -4.9 0.6 -2
v -4.9 0.6 -2.1
v -4.9 0.6 -3.6
v -4 0.5 -0.7
v -4 0.5 -1.5
v -4 0.5 -1.6
v -4 0.5 -1.7
v -4 0.5 -1.8
v -4 0.5 -2
v -4 0.6 -0.7
v -4 0.6 -1.5
v -4 0.6 -1.6
v -4 0.6 -1.7
v -4 0.6 -1.8
v -4 0.6 -2
v -3 0.5 -1.6
v -3 0.5 -3.6
v -3 0.6 -1.6
v -3 0.6 -3.6
v -2.3 0.5 0.2
v -2.3 0.5 -1.5
v -2.3 0.6 0.2
v -2.3 0.6 -1.5
v -4.1 0.5 -0.7
v -4.1 0.5 -1.6
v -4.1 0.5 -1.7
v -4.1 0.5 -2
v -4.1 0.6 -0.7
v -4.1 0.6 -1.6
v -4.1 0.6 -1.7
v -4.1 0.6 -2
v -3.1 0.5 -1.6
v -3.1 0.5 -2
v -3.1 0.5 -2.1
v -3.1 0.5 -2.3
v -3.1 0.5 -2.4
v -3.1 0.5 -3.6
v -3.1 0.6 -1.6
v -3.1 0.6 -2
v -3.1 0.6 -2.1
v -3.1 0.6 -2.3
v -3.1 0.6 -2.4
v -3.1 0.6 -3.6
v -2.4 0.5 0.2
v -2.4 0.5 -0.6
v -2.4 0.5 -0.7
v -2.4 0.5 -1.5
v -2.4 0.6 0.2
v -2.4 0.6 -0.6
v -2.4 0.6 -0.7
v -2.4 0.6 -1.5
v -1.1 0.5 0.2
v -1.1 0.5 -1.5
v -1.1 0.5 -1.6
v -1.1 0.5 -3.6
v -1.1 0.6 0.2
v -1.1 0.6 -1.5
v -1.1 0.6 -1.6
v -1.1 0.6 -3.6
v -1 0.1 0.3
v -1 0.1 -3.7
v -1 0.5 0.3
v -1 0.5 -3.7
v -5 0.1 0.3
v -5 0.5 0.3
v -1 0.1 0.3
v -1 0.5 0.3
v -4.9 0.5 0.2
v -4.9 0.6 0.2
v -2.9 0.5 0.2
v -2.9 0.6 0.2
v -2.8 0.5 0.2
v -2.8 0.6 0.2
v -2.4 0.5 0.2
v -2.4 0.6 0.2
v -2.3 0.5 0.2
v -2.3 0.6 0.2
v -2.2 0.5 0.2
v -2.2 0.6 0.2
v -2.1 0.5 0.2
v -2.1 0.6 0.2
v -1.1 0.5 0.2
v -1.1 0.6 0.2
v -4.9 0.5 -0.7
v -4.9 0.6 -0.7
v -4.1 0.5 -0.7
v -4.1 0.6 -0.7
v -4 0.5 -0.7
v -4 0.6 -0.7
v -3.1 0.5 -0.7
v -3.1 0.6 -0.7
v -3 0.5 -0.7
v -3 0.6 -0.7
v -2.4 0.5 -0.7
v -2.4 0.6 -0.7
v -4 0.5 -1.6
v -4 0.6 -1.6
v -3.1 0.5 -1.6
v -3.1 0.6 -1.6
v -3 0.5 -1.6
v -3 0.6 -1.6
v -1.1 0.5 -1.6
v -1.1 0.6 -1.6
v -4.9 0.5 -2.1
v -4.9 0.6 -2.1
v -3.8 0.5 -2.1
v -3.8 0.6 -2.1
v -3.6 0.5 -2.1
v -3.6 0.6 -2.1
v -3.1 0.5 -2.1
v -3.1 0.6 -2.1
v -4.9 0.5 -0.6
v -4.9 0.6 -0.6
v -2.4 0.5 -0.6
v -2.4 0.6 -0.6
v -4 0.5 -1.5
v -4 0.6 -1.5
v -2.4 0.5 -1.5
v -2.4 0.6 -1.5
v -2.3 0.5 -1.5
v -2.3 0.6 -1.5
v -1.1 0.5 -1.5
v -1.1 0.6 -1.5
v -4.9 0.5 -2
v -4.9 0.6 -2
v -4.1 0.5 -2
v -4.1 0.6 -2
v -4 0.5 -2
v -4 0.6 -2
v -3.1 0.5 -2
v -3.1 0.6 -2
v -4.9 0.5 -3.6
v -4.9 0.6 -3.6
v -3.1 0.5 -3.6
v -3.1 0.6 -3.6
v -3 0.5 -3.6
v -3 0.6 -3.6
v -2 0.5 -3.6
v -2 0.6 -3.6
v -1.9 0.5 -3.6
v -1.9 0.6 -3.6
v -1.1 0.5 -3.6
v -1.1 0.6 -3.6
v -5 0.1 -3.7
v -5 0.5 -3.7
v -1 0.1 -3.7
v -1 0.5 -3.7
v -5 0.1 0.3
v -1 0.1 0.3
v -4.9 0.1 0.2
v -1.1 0.1 0.2
v -4.9 0.1 -3.6
v -1.1 0.1 -3.6
v -5 0.1 -3.7
v -1 0.1 -3.7
v -5 0.5 0.3
v -1 0.5 0.3
v -4.9 0.5 0.2
v -2.9 0.5 0.2
v -2.8 0.5 0.2
v -2.4 0.5 0.2
v -2.3 0.5 0.2
v -2.2 0.5 0.2
v -2.1 0.5 0.2
v -1.1 0.5 0.2
v -4.9 0.5 -0.6
v -2.4 0.5 -0.6
v -4.9 0.5 -0.7
v -4.1 0.5 -0.7
v -4 0.5 -0.7
v -3.1 0.5 -0.7
v -3 0.5 -0.7
v -2.4 0.5 -0.7
v -4 0.5 -1.5
v -2.4 0.5 -1.5
v -2.3 0.5 -1.5
v -1.1 0.5 -1.5
v -4.1 0.5 -1.6
v -4 0.5 -1.6
v -3.1 0.5 -1.6
v -3 0.5 -1.6
v -1.1 0.5 -1.6
v -4.1 0.5 -1.7
v -4 0.5 -1.7
v -4 0.5 -1.8
v -4.9 0.5 -2
v -4.1 0.5 -2
v -4 0.5 -2
v -3.1 0.5 -2
v -4.9 0.5 -2.1
v -3.8 0.5 -2.1
v -3.6 0.5 -2.1
v -3.1 0.5 -2.1
v -3.1 0.5 -2.3
v -3.1 0.5 -2.4
v -4.9 0.5 -3.6
v -3.1 0.5 -3.6
v -3 0.5 -3.6
v -2 0.5 -3.6
v -1.9 0.5 -3.6
v -1.1 0.5 -3.6
v -5 0.5 -3.7
v -1 0.5 -3.7
v -4.9 0.6 0.2
v -2.9 0.6 0.2
v -2.8 0.6 0.2
v -2.4 0.6 0.2
v -2.3 0.6 0.2
v -2.2 0.6 0.2
v -2.1 0.6 0.2
v -1.1 0.6 0.2
v -2.2 0.6 0.1
v -2.1 0.6 0.1
v -1.8 0.6 0.1
v -2.1 0.6 0
v -2 0.6 0
v -2 0.6 -0.1
v -1.9 0.6 -0.1
v -4.5 0.6 -0.2
v -3.7 0.6 -0.2
v -1.8 0.6 -0.2
v -1.7 0.6 -0.2
v -4.6 0.6 -0.3
v -4.5 0.6 -0.3
v -4.4 0.6 -0.3
v -3.7 0.6 -0.3
v -3 0.6 -0.3
v -2.9 0.6 -0.3
v -2.8 0.6 -0.3
v -1.8 0.6 -0.3
v -1.7 0.6 -0.3
v -4.6 0.6 -0.4
v -4.4 0.6 -0.4
v -3.1 0.6 -0.4
v -3 0.6 -0.4
v -1.5 0.6 -0.4
v -1.4 0.6 -0.4
v -3.1 0.6 -0.5
v -2.9 0.6 -0.5
v -2 0.6 -0.5
v -1.9 0.6 -0.5
v -1.8 0.6 -0.5
v -1.6 0.6 -0.5
v -1.5 0.6 -0.5
v -1.4 0.6 -0.5
v -4.9 0.6 -0.6
v -2.4 0.6 -0.6
v -2.1 0.6 -0.6
v -2 0.6 -0.6
v -1.7 0.6 -0.6
v -1.6 0.6 -0.6
v -1.5 0.6 -0.6
v -4.9 0.6 -0.7
v -4.1 0.6 -0.7
v -4 0.6 -0.7
v -3.1 0.6 -0.7
v -3 0.6 -0.7
v -2.4 0.6 -0.7
v -2 0.6 -0.7
v -1.9 0.6 -0.7
v -1.7 0.6 -0.7
v -1.6 0.6 -0.7
v -1.5 0.6 -0.7
v -2.1 0.6 -0.8
v -2 0.6 -0.8
v -1.9 0.6 -0.8
v -1.6 0.6 -0.8
v -3 0.6 -0.9
v -2.9 0.6 -0.9
v -3.1 0.6 -1
v -3 0.6 -1
v -2.9 0.6 -1
v -2.8 0.6 -1
v -1.6 0.6 -1
v -1.5 0.6 -1
v -1.4 0.6 -1
v -3 0.6 -1.1
v -2.8 0.6 -1.1
v -2.7 0.6 -1.1
v -2.7 0.6 -1.2
v -2.6 0.6 -1.2
v -1.5 0.6 -1.2
v -1.4 0.6 -1.2
v -2.8 0.6 -1.3
v -2.7 0.6 -1.3
v -4.6 0.6 -1.4
v -4.5 0.6 -1.4
v -2.7 0.6 -1.4
v -2.6 0.6 -1.4
v -4.5 0.6 -1.5
v -4.2 0.6 -1.5
v -4 0.6 -1.5
v -2.4 0.6 -1.5
v -2.3 0.6 -1.5
v -1.1 0.6 -1.5
v -4.6 0.6 -1.6
v -4.5 0.6 -1.6
v -4.2 0.6 -1.6
v -4.1 0.6 -1.6
v -4 0.6 -1.6
v -3.1 0.6 -1.6
v -3 0.6 -1.6
v -1.1 0.6 -1.6
v -4.5 0.6 -1.7
v -4.1 0.6 -1.7
v -4 0.6 -1.7
v -3.8 0.6 -1.7
v -4 0.6 -1.8
v -3.9 0.6 -1.8
v -3.9 0.6 -1.9
v -3.8 0.6 -1.9
v -2.5 0.6 -1.9
v -2.3 0.6 -1.9
v -4.9 0.6 -2
v -4.1 0.6 -2
v -4 0.6 -2
v -3.1 0.6 -2
v -2.5 0.6 -2
v -2.4 0.6 -2
v -4.9 0.6 -2.1
v -3.8 0.6 -2.1
v -3.6 0.6 -2.1
v -3.1 0.6 -2.1
v -2.4 0.6 -2.1
v -2.3 0.6 -2.1
v -2.2 0.6 -2.1
v -3.8 0.6 -2.2
v -3.7 0.6 -2.2
v -3.6 0.6 -2.2
v -3.5 0.6 -2.2
v -3.7 0.6 -2.3
v -3.6 0.6 -2.3
v -3.5 0.6 -2.3
v -3.1 0.6 -2.3
v -2.9 0.6 -2.3
v -2.8 0.6 -2.3
v -2.7 0.6 -2.3
v -2.4 0.6 -2.3
v -2.2 0.6 -2.3
v -2.1 0.6 -2.3
v -3.6 0.6 -2.4
v -3.1 0.6 -2.4
v -2.8 0.6 -2.4
v -2.7 0.6 -2.4
v -2.6 0.6 -2.4
v -2.4 0.6 -2.4
v -2.3 0.6 -2.4
v -2.2 0.6 -2.4
v -2.1 0.6 -2.4
v -1.9 0.6 -2.4
v -1.5 0.6 -2.4
v -1.3 0.6 -2.4
v -4.7 0.6 -2.5
v -4.6 0.6 -2.5
v -2.9 0.6 -2.5
v -2.6 0.6 -2.5
v -2.2 0.6 -2.5
v -1.9 0.6 -2.5
v -1.8 0.6 -2.5
v -1.5 0.6 -2.5
v -1.4 0.6 -2.5
v -1.3 0.6 -2.5
v -4.6 0.6 -2.6
v -4.5 0.6 -2.6
v -2 0.6 -2.6
v -1.8 0.6 -2.6
v -1.7 0.6 -2.6
v -1.4 0.6 -2.6
v -4.7 0.6 -2.7
v -4.5 0.6 -2.7
v -4.4 0.6 -2.7
v -1.9 0.6 -2.7
v -1.7 0.6 -2.7
v -4.4 0.6 -2.8
v -4.3 0.6 -2.8
v -1.9 0.6 -2.8
v -1.8 0.6 -2.8
v -4.5 0.6 -2.9
v -4.3 0.6 -2.9
v -4.2 0.6 -2.9
v -2 0.6 -2.9
v -1.9 0.6 -2.9
v -4.7 0.6 -3
v -4.3 0.6 -3
v -4.2 0.6 -3
v -4 0.6 -3
v -2 0.6 -3
v -1.9 0.6 -3
v -1.8 0.6 -3
v -4.6 0.6 -3.1
v -4.1 0.6 -3.1
v -4 0.6 -3.1
v -3.6 0.6 -3.1
v -1.9 0.6 -3.1
v -1.8 0.6 -3.1
v -4.1 0.6 -3.2
v -3.7 0.6 -3.2
v -3.6 0.6 -3.2
v -3.5 0.6 -3.2
v -1.9 0.6 -3.2
v -1.8 0.6 -3.2
v -4.8 0.6 -3.3
v -4.7 0.6 -3.3
v -4.6 0.6 -3.3
v -3.7 0.6 -3.3
v -3.6 0.6 -3.3
v -4.8 0.6 -3.4
v -4.7 0.6 -3.4
v -3.6 0.6 -3.4
v -3.5 0.6 -3.4
v -4.9 0.6 -3.6
v -3.1 0.6 -3.6
v -3 0.6 -3.6
v -2 0.6 -3.6
v -1.9 0.6 -3.6
v -1.1 0.6 -3.6

# faces
f 3/4/1 2/4/1 1/4/1
f 4/4/1 2/4/1 3/4/1
f 11/2/1 6/2/1 5/2/1
f 12/2/1 6/2/1 11/2/1
f 13/1/1 8/1/1 7/1/1
f 14/1/1 8/1/1 13/1/1
f 15/3/1 10/3/1 9/3/1
f 16/3/1 10/3/1 15/3/1
f 23/3/1 18/3/1 17/3/1
f 24/3/1 18/3/1 23/3/1
f 25/2/1 20/2/1 19/2/1
f 26/3/1 21/3/1 20/3/1
f 26/2/1 20/2/1 25/2/1
f 27/2/1 22/2/1 21/2/1
f 27/3/1 21/3/1 26/3/1
f 28/2/1 22/2/1 27/2/1
f 31/1/1 30/1/1 29/1/1
f 32/1/1 30/1/1 31/1/1
f 35/3/1 34/3/1 33/3/1
f 36/3/1 34/3/1 35/3/1
f 37/1/2 38/1/2 41/1/2
f 38/3/2 39/3/2 42/3/2
f 41/1/2 38/1/2 42/1/2
f 39/1/2 40/1/2 43/1/2
f 42/3/2 39/3/2 43/3/2
f 43/1/2 40/1/2 44/1/2
f 45/2/2 46/2/2 51/2/2
f 51/2/2 46/2/2 52/2/2
f 47/3/2 48/3/2 53/3/2
f 48/4/2 49/4/2 54/4/2
f 53/3/2 48/3/2 54/3/2
f 49/3/2 50/3/2 55/3/2
f 54/4/2 49/4/2 55/4/2
f 55/3/2 50/3/2 56/3/2
f 57/2/2 58/2/2 61/2/2
f 61/2/2 58/2/2 62/2/2
f 59/3/2 60/3/2 63/3/2
f 63/3/2 60/3/2 64/3/2
f 65/3/2 66/3/2 69/3/2
f 69/3/2 66/3/2 70/3/2
f 67/1/2 68/1/2 71/1/2
f 71/1/2 68/1/2 72/1/2
f 73/4/2 74/4/2 75/4/2
f 75/4/2 74/4/2 76/4/2
f 79/4/3 78/4/3 77/4/3
f 80/4/3 78/4/3 79/4/3
f 83/2/3 82/2/3 81/2/3
f 84/2/3 82/2/3 83/2/3
f 85/3/3 84/3/3 83/3/3
f 86/3/3 84/3/3 85/3/3
f 87/2/3 86/2/3 85/2/3
f 88/2/3 86/2/3 87/2/3
f 91/3/3 90/3/3 89/3/3
f 92/3/3 90/3/3 91/3/3
f 93/4/3 92/4/3 91/4/3
f 94/4/3 92/4/3 93/4/3
f 95/3/3 94/3/3 93/3/3
f 96/3/3 94/3/3 95/3/3
f 99/1/3 98/1/3 97/1/3
f 100/1/3 98/1/3 99/1/3
f 103/3/3 102/3/3 101/3/3
f 104/3/3 102/3/3 103/3/3
f 105/4/3 104/4/3 103/4/3
f 106/4/3 104/4/3 105/4/3
f 107/3/3 106/3/3 105/3/3
f 108/3/3 106/3/3 107/3/3
f 111/2/3 110/2/3 109/2/3
f 112/2/3 110/2/3 111/2/3
f 115/1/3 114/1/3 113/1/3
f 116/1/3 114/1/3 115/1/3
f 119/3/3 118/3/3 117/3/3
f 120/3/3 118/3/3 119/3/3
f 121/4/3 120/4/3 119/4/3
f 122/4/3 120/4/3 121/4/3
f 123/3/3 122/3/3 121/3/3
f 124/3/3 122/3/3 123/3/3
f 125/2/4 126/2/4 127/2/4
f 127/2/4 126/2/4 128/2/4
f 129/3/4 130/3/4 131/3/4
f 131/3/4 130/3/4 132/3/4
f 133/3/4 134/3/4 135/3/4
f 135/3/4 134/3/4 136/3/4
f 137/1/4 138/1/4 139/1/4
f 139/1/4 138/1/4 140/1/4
f 141/2/4 142/2/4 143/2/4
f 143/2/4 142/2/4 144/2/4
f 145/3/4 146/3/4 147/3/4
f 147/3/4 146/3/4 148/3/4
f 149/1/4 150/1/4 151/1/4
f 151/1/4 150/1/4 152/1/4
f 151/3/4 152/3/4 153/3/4
f 153/3/4 152/3/4 154/3/4
f 153/1/4 154/1/4 155/1/4
f 155/1/4 154/1/4 156/1/4
f 157/4/4 158/4/4 159/4/4
f 159/4/4 158/4/4 160/4/4
f 163/4/5 162/4/5 161/4/5
f 164/4/5 162/4/5 163/4/5
f 165/4/5 163/4/5 161/4/5
f 165/3/5 164/3/5 163/3/5
f 166/4/5 162/4/5 164/4/5
f 166/3/5 164/3/5 165/3/5
f 167/4/5 165/4/5 161/4/5
f 167/4/5 166/4/5 165/4/5
f 168/4/5 162/4/5 166/4/5
f 168/4/5 166/4/5 167/4/5
f 169/4/6 170/4/6 171/4/6
f 171/4/6 170/4/6 172/4/6
f 172/4/6 170/4/6 173/4/6
f 173/4/6 170/4/6 174/4/6
f 174/4/6 170/4/6 175/4/6
f 175/4/6 170/4/6 176/4/6
f 176/4/6 170/4/6 177/4/6
f 177/4/6 170/4/6 178/4/6
f 169/4/6 171/4/6 179/4/6
f 174/4/6 175/4/6 180/4/6
f 169/4/6 179/4/6 181/4/6
f 179/4/6 180/4/6 181/4/6
f 181/4/6 180/4/6 182/4/6
f 182/4/6 180/4/6 183/4/6
f 183/4/6 180/4/6 184/4/6
f 184/4/6 180/4/6 185/4/6
f 180/4/6 175/4/6 186/4/6
f 185/4/6 180/4/6 186/4/6
f 182/4/6 183/4/6 187/4/6
f 186/4/6 175/4/6 188/4/6
f 188/4/6 175/4/6 189/4/6
f 178/4/6 170/4/6 190/4/6
f 188/4/6 189/4/6 191/4/6
f 189/4/6 190/4/6 191/4/6
f 182/4/6 187/4/6 191/4/6
f 187/4/6 188/4/6 191/4/6
f 191/4/6 190/4/6 192/4/6
f 192/4/6 190/4/6 193/4/6
f 193/4/6 190/4/6 194/4/6
f 190/4/6 170/4/6 195/4/6
f 194/4/6 190/4/6 195/4/6
f 191/4/6 192/4/6 196/4/6
f 196/4/6 192/4/6 197/4/6
f 196/4/6 197/4/6 198/4/6
f 169/4/6 181/4/6 199/4/6
f 196/4/6 198/4/6 200/4/6
f 200/4/6 198/4/6 201/4/6
f 193/4/6 194/4/6 202/4/6
f 200/4/6 201/4/6 203/4/6
f 201/4/6 202/4/6 203/4/6
f 199/4/6 200/4/6 203/4/6
f 169/4/6 199/4/6 203/4/6
f 203/4/6 202/4/6 204/4/6
f 204/4/6 202/4/6 205/4/6
f 202/4/6 194/4/6 206/4/6
f 205/4/6 202/4/6 206/4/6
f 206/4/6 194/4/6 207/4/6
f 207/4/6 194/4/6 208/4/6
f 169/4/6 203/4/6 209/4/6
f 208/4/6 194/4/6 210/4/6
f 210/4/6 194/4/6 211/4/6
f 195/4/6 170/4/6 214/4/6
f 169/4/6 209/4/6 215/4/6
f 213/4/6 214/4/6 215/4/6
f 212/4/6 213/4/6 215/4/6
f 209/4/6 210/4/6 215/4/6
f 211/4/6 212/4/6 215/4/6
f 210/4/6 211/4/6 215/4/6
f 214/4/6 170/4/6 216/4/6
f 215/4/6 214/4/6 216/4/6
f 221/3/6 222/3/6 225/3/6
f 222/4/6 223/4/6 225/4/6
f 223/3/6 224/3/6 226/3/6
f 225/4/6 223/4/6 226/4/6
f 226/3/6 224/3/6 227/3/6
f 225/3/6 226/3/6 228/3/6
f 226/4/6 227/4/6 228/4/6
f 228/4/6 227/4/6 229/4/6
f 228/3/6 229/3/6 230/3/6
f 229/4/6 227/4/6 230/4/6
f 230/4/6 227/4/6 231/4/6
f 217/2/6 218/2/6 232/2/6
f 232/2/6 218/2/6 233/2/6
f 231/4/6 227/4/6 234/4/6
f 227/3/6 224/3/6 234/3/6
f 234/3/6 224/3/6 235/3/6
f 217/2/6 232/2/6 236/2/6
f 232/3/6 233/3/6 237/3/6
f 236/2/6 232/2/6 237/2/6
f 237/3/6 233/3/6 238/3/6
f 233/2/6 218/2/6 239/2/6
f 238/3/6 233/3/6 239/3/6
f 239/2/6 218/2/6 240/2/6
f 218/3/6 219/3/6 241/3/6
f 240/2/6 218/2/6 241/2/6
f 219/2/6 220/2/6 242/2/6
f 241/3/6 219/3/6 242/3/6
f 231/4/6 234/4/6 243/4/6
f 234/4/6 235/4/6 243/4/6
f 235/3/6 224/3/6 244/3/6
f 243/4/6 235/4/6 244/4/6
f 237/3/6 238/3/6 245/3/6
f 217/2/6 236/2/6 245/2/6
f 236/3/6 237/3/6 245/3/6
f 239/2/6 240/2/6 246/2/6
f 245/3/6 238/3/6 246/3/6
f 238/2/6 239/2/6 246/2/6
f 246/2/6 240/2/6 247/2/6
f 240/3/6 241/3/6 248/3/6
f 247/2/6 240/2/6 248/2/6
f 244/3/6 224/3/6 249/3/6
f 243/3/6 244/3/6 249/3/6
f 249/3/6 224/3/6 250/3/6
f 246/2/6 247/2/6 251/2/6
f 247/3/6 248/3/6 251/3/6
f 245/2/6 246/2/6 251/2/6
f 248/3/6 241/3/6 252/3/6
f 251/3/6 248/3/6 252/3/6
f 241/2/6 242/2/6 252/2/6
f 228/3/6 230/3/6 253/3/6
f 230/3/6 231/3/6 253/3/6
f 231/4/6 243/4/6 254/4/6
f 253/3/6 231/3/6 254/3/6
f 243/3/6 249/3/6 255/3/6
f 254/4/6 243/4/6 255/4/6
f 255/3/6 249/3/6 256/3/6
f 249/4/6 250/4/6 257/4/6
f 256/3/6 249/3/6 257/3/6
f 250/3/6 224/3/6 258/3/6
f 257/4/6 250/4/6 258/4/6
f 245/2/6 251/2/6 259/2/6
f 217/2/6 245/2/6 259/2/6
f 251/2/6 252/2/6 259/2/6
f 252/2/6 242/2/6 260/2/6
f 259/2/6 252/2/6 260/2/6
f 242/2/6 220/2/6 260/2/6
f 225/3/6 228/3/6 261/3/6
f 228/3/6 253/3/6 261/3/6
f 253/4/6 254/4/6 262/4/6
f 261/3/6 253/3/6 262/3/6
f 255/3/6 256/3/6 263/3/6
f 254/3/6 255/3/6 263/3/6
f 256/4/6 257/4/6 264/4/6
f 263/3/6 256/3/6 264/3/6
f 257/3/6 258/3/6 265/3/6
f 264/4/6 257/4/6 265/4/6
f 262/4/6 254/4/6 272/4/6
f 261/4/6 262/4/6 272/4/6
f 254/3/6 263/3/6 273/3/6
f 272/4/6 254/4/6 273/4/6
f 263/4/6 264/4/6 274/4/6
f 273/3/6 263/3/6 274/3/6
f 264/3/6 265/3/6 275/3/6
f 274/4/6 264/4/6 275/4/6
f 265/3/6 258/3/6 276/3/6
f 275/3/6 265/3/6 276/3/6
f 261/4/6 272/4/6 277/4/6
f 225/3/6 261/3/6 277/3/6
f 272/3/6 273/3/6 278/3/6
f 277/4/6 272/4/6 278/4/6
f 274/4/6 275/4/6 279/4/6
f 278/3/6 273/3/6 279/3/6
f 275/4/6 276/4/6 279/4/6
f 273/4/6 274/4/6 279/4/6
f 279/4/6 276/4/6 280/4/6
f 270/3/6 271/3/6 281/3/6
f 269/4/6 270/4/6 281/4/6
f 281/3/6 271/3/6 282/3/6
f 268/3/6 269/3/6 283/3/6
f 269/4/6 281/4/6 283/4/6
f 281/4/6 282/4/6 283/4/6
f 283/4/6 282/4/6 284/4/6
f 282/3/6 271/3/6 285/3/6
f 284/4/6 282/4/6 285/4/6
f 285/3/6 271/3/6 286/3/6
f 280/4/6 276/4/6 287/4/6
f 277/3/6 278/3/6 287/3/6
f 279/3/6 280/3/6 287/3/6
f 278/3/6 279/3/6 287/3/6
f 276/3/6 258/3/6 288/3/6
f 287/4/6 276/4/6 288/4/6
f 258/3/6 224/3/6 289/3/6
f 288/3/6 258/3/6 289/3/6
f 285/4/6 286/4/6 290/4/6
f 284/4/6 285/4/6 290/4/6
f 283/3/6 284/3/6 290/3/6
f 286/3/6 271/3/6 291/3/6
f 290/4/6 286/4/6 291/4/6
f 291/3/6 271/3/6 292/3/6
f 291/4/6 292/4/6 293/4/6
f 292/3/6 271/3/6 293/3/6
f 293/3/6 271/3/6 294/3/6
f 287/3/6 288/3/6 295/3/6
f 288/4/6 289/4/6 295/4/6
f 289/3/6 224/3/6 296/3/6
f 295/4/6 289/4/6 296/4/6
f 293/4/6 294/4/6 297/4/6
f 290/3/6 291/3/6 297/3/6
f 291/4/6 293/4/6 297/4/6
f 297/4/6 294/4/6 298/4/6
f 266/1/6 267/1/6 299/1/6
f 299/1/6 267/1/6 300/1/6
f 298/4/6 294/4/6 301/4/6
f 297/3/6 298/3/6 301/3/6
f 294/3/6 271/3/6 302/3/6
f 301/4/6 294/4/6 302/4/6
f 300/1/6 267/1/6 303/1/6
f 299/3/6 300/3/6 303/3/6
f 303/1/6 267/1/6 304/1/6
f 297/3/6 301/3/6 305/3/6
f 283/3/6 290/3/6 305/3/6
f 268/3/6 283/3/6 305/3/6
f 290/3/6 297/3/6 305/3/6
f 301/3/6 302/3/6 305/3/6
f 302/3/6 271/3/6 306/3/6
f 305/3/6 302/3/6 306/3/6
f 225/3/6 277/3/6 307/3/6
f 277/3/6 287/3/6 307/3/6
f 221/3/6 225/3/6 307/3/6
f 295/3/6 296/3/6 307/3/6
f 287/3/6 295/3/6 307/3/6
f 296/3/6 224/3/6 308/3/6
f 307/3/6 296/3/6 308/3/6
f 266/1/6 299/1/6 309/1/6
f 303/3/6 304/3/6 309/3/6
f 299/3/6 303/3/6 309/3/6
f 309/3/6 304/3/6 310/3/6
f 304/1/6 267/1/6 311/1/6
f 310/3/6 304/3/6 311/3/6
f 311/1/6 267/1/6 312/1/6
f 309/1/6 310/1/6 317/1/6
f 310/3/6 311/3/6 317/3/6
f 311/3/6 312/3/6 317/3/6
f 317/3/6 312/3/6 318/3/6
f 313/2/6 314/2/6 319/2/6
f 319/2/6 314/2/6 320/2/6
f 319/3/6 320/3/6 321/3/6
f 321/3/6 320/3/6 322/3/6
f 321/2/6 322/2/6 323/2/6
f 322/3/6 320/3/6 323/3/6
f 320/2/6 314/2/6 324/2/6
f 323/3/6 320/3/6 324/3/6
f 315/1/6 316/1/6 325/1/6
f 325/1/6 316/1/6 326/1/6
f 266/1/6 309/1/6 327/1/6
f 317/1/6 318/1/6 327/1/6
f 309/1/6 317/1/6 327/1/6
f 327/1/6 318/1/6 328/1/6
f 321/2/6 323/2/6 329/2/6
f 323/2/6 324/2/6 329/2/6
f 324/2/6 314/2/6 330/2/6
f 329/2/6 324/2/6 330/2/6
f 325/3/6 326/3/6 331/3/6
f 315/1/6 325/1/6 331/1/6
f 331/3/6 326/3/6 332/3/6
f 332/3/6 326/3/6 337/3/6
f 331/1/6 332/1/6 337/1/6
f 326/1/6 316/1/6 338/1/6
f 337/3/6 326/3/6 338/3/6
f 338/1/6 316/1/6 339/1/6
f 334/4/6 335/4/6 340/4/6
f 333/3/6 334/3/6 340/3/6
f 340/4/6 335/4/6 341/4/6
f 335/3/6 336/3/6 342/3/6
f 341/4/6 335/4/6 342/4/6
f 342/3/6 336/3/6 343/3/6
f 340/3/6 341/3/6 344/3/6
f 341/4/6 342/4/6 344/4/6
f 342/4/6 343/4/6 344/4/6
f 344/4/6 343/4/6 345/4/6
f 343/3/6 336/3/6 346/3/6
f 345/4/6 343/4/6 346/4/6
f 346/3/6 336/3/6 347/3/6
f 331/1/6 337/1/6 348/1/6
f 315/1/6 331/1/6 348/1/6
f 337/1/6 338/1/6 348/1/6
f 348/1/6 338/1/6 349/1/6
f 349/1/6 338/1/6 350/1/6
f 350/1/6 338/1/6 351/1/6
f 339/1/6 316/1/6 352/1/6
f 338/3/6 339/3/6 352/3/6
f 352/1/6 316/1/6 353/1/6
f 346/4/6 347/4/6 354/4/6
f 344/3/6 345/3/6 354/3/6
f 345/4/6 346/4/6 354/4/6
f 354/4/6 347/4/6 355/4/6
f 348/3/6 349/3/6 356/3/6
f 349/1/6 350/1/6 356/1/6
f 350/3/6 351/3/6 357/3/6
f 356/1/6 350/1/6 357/1/6
f 357/3/6 351/3/6 358/3/6
f 351/1/6 338/1/6 359/1/6
f 358/3/6 351/3/6 359/3/6
f 352/3/6 353/3/6 360/3/6
f 359/1/6 338/1/6 360/1/6
f 338/3/6 352/3/6 360/3/6
f 360/3/6 353/3/6 361/3/6
f 353/1/6 316/1/6 362/1/6
f 361/3/6 353/3/6 362/3/6
f 362/1/6 316/1/6 363/1/6
f 363/1/6 316/1/6 364/1/6
f 364/1/6 316/1/6 365/1/6
f 340/3/6 344/3/6 366/3/6
f 333/3/6 340/3/6 366/3/6
f 354/3/6 355/3/6 366/3/6
f 344/3/6 354/3/6 366/3/6
f 366/3/6 355/3/6 367/3/6
f 357/3/6 358/3/6 368/3/6
f 356/3/6 357/3/6 368/3/6
f 348/3/6 356/3/6 368/3/6
f 315/1/6 348/1/6 368/1/6
f 360/1/6 361/1/6 369/1/6
f 368/3/6 358/3/6 369/3/6
f 358/1/6 359/1/6 369/1/6
f 359/1/6 360/1/6 369/1/6
f 362/3/6 363/3/6 370/3/6
f 369/1/6 361/1/6 370/1/6
f 361/3/6 362/3/6 370/3/6
f 363/1/6 364/1/6 371/1/6
f 370/3/6 363/3/6 371/3/6
f 371/1/6 364/1/6 372/1/6
f 364/3/6 365/3/6 373/3/6
f 372/1/6 364/1/6 373/1/6
f 373/3/6 365/3/6 374/3/6
f 365/1/6 316/1/6 375/1/6
f 374/3/6 365/3/6 375/3/6
f 367/3/6 355/3/6 376/3/6
f 366/4/6 367/4/6 376/4/6
f 376/3/6 355/3/6 377/3/6
f 368/1/6 369/1/6 378/1/6
f 371/1/6 372/1/6 378/1/6
f 369/1/6 370/1/6 378/1/6
f 370/1/6 371/1/6 378/1/6
f 373/3/6 374/3/6 379/3/6
f 378/1/6 372/1/6 379/1/6
f 372/3/6 373/3/6 379/3/6
f 379/3/6 374/3/6 380/3/6
f 374/1/6 375/1/6 381/1/6
f 380/3/6 374/3/6 381/3/6
f 333/3/6 366/3/6 382/3/6
f 376/4/6 377/4/6 382/4/6
f 366/4/6 376/4/6 382/4/6
f 377/3/6 355/3/6 383/3/6
f 382/4/6 377/4/6 383/4/6
f 383/3/6 355/3/6 384/3/6
f 379/3/6 380/3/6 385/3/6
f 378/3/6 379/3/6 385/3/6
f 380/1/6 381/1/6 386/1/6
f 385/3/6 380/3/6 386/3/6
f 384/3/6 355/3/6 387/3/6
f 383/4/6 384/4/6 387/4/6
f 387/3/6 355/3/6 388/3/6
f 378/3/6 385/3/6 389/3/6
f 385/1/6 386/1/6 389/1/6
f 389/1/6 386/1/6 390/1/6
f 387/4/6 388/4/6 391/4/6
f 382/3/6 383/3/6 391/3/6
f 383/4/6 387/4/6 391/4/6
f 388/3/6 355/3/6 392/3/6
f 391/4/6 388/4/6 392/4/6
f 392/3/6 355/3/6 393/3/6
f 368/1/6 378/1/6 394/1/6
f 389/3/6 390/3/6 394/3/6
f 378/3/6 389/3/6 394/3/6
f 394/3/6 390/3/6 395/3/6
f 333/3/6 382/3/6 396/3/6
f 382/3/6 391/3/6 396/3/6
f 391/3/6 392/3/6 396/3/6
f 392/4/6 393/4/6 397/4/6
f 396/3/6 392/3/6 397/3/6
f 393/3/6 355/3/6 398/3/6
f 397/4/6 393/4/6 398/4/6
f 398/3/6 355/3/6 399/3/6
f 394/1/6 395/1/6 400/1/6
f 368/1/6 394/1/6 400/1/6
f 395/3/6 390/3/6 401/3/6
f 400/1/6 395/1/6 401/1/6
f 390/1/6 386/1/6 402/1/6
f 401/3/6 390/3/6 402/3/6
f 396/4/6 397/4/6 403/4/6
f 398/4/6 399/4/6 403/4/6
f 397/4/6 398/4/6 403/4/6
f 403/4/6 399/4/6 404/4/6
f 399/3/6 355/3/6 405/3/6
f 404/4/6 399/4/6 405/4/6
f 405/3/6 355/3/6 406/3/6
f 400/3/6 401/3/6 407/3/6
f 401/1/6 402/1/6 407/1/6
f 402/1/6 386/1/6 408/1/6
f 407/1/6 402/1/6 408/1/6
f 403/3/6 404/3/6 409/3/6
f 405/4/6 406/4/6 409/4/6
f 404/4/6 405/4/6 409/4/6
f 409/4/6 406/4/6 410/4/6
f 406/3/6 355/3/6 411/3/6
f 410/4/6 406/4/6 411/4/6
f 411/3/6 355/3/6 412/3/6
f 400/3/6 407/3/6 413/3/6
f 407/3/6 408/3/6 413/3/6
f 408/1/6 386/1/6 414/1/6
f 413/3/6 408/3/6 414/3/6
f 333/3/6 396/3/6 415/3/6
f 396/4/6 403/4/6 416/4/6
f 415/3/6 396/3/6 416/3/6
f 409/3/6 410/3/6 417/3/6
f 416/4/6 403/4/6 417/4/6
f 403/3/6 409/3/6 417/3/6
f 411/4/6 412/4/6 418/4/6
f 417/3/6 410/3/6 418/3/6
f 410/4/6 411/4/6 418/4/6
f 418/4/6 412/4/6 419/4/6
f 415/4/6 416/4/6 420/4/6
f 333/3/6 415/3/6 420/3/6
f 416/3/6 417/3/6 421/3/6
f 420/4/6 416/4/6 421/4/6
f 418/3/6 419/3/6 421/3/6
f 417/3/6 418/3/6 421/3/6
f 419/4/6 412/4/6 422/4/6
f 421/3/6 419/3/6 422/3/6
f 412/3/6 355/3/6 423/3/6
f 422/4/6 412/4/6 423/4/6
f 421/3/6 422/3/6 424/3/6
f 420/3/6 421/3/6 424/3/6
f 422/3/6 423/3/6 424/3/6
f 333/3/6 420/3/6 424/3/6
f 423/3/6 355/3/6 425/3/6
f 424/3/6 423/3/6 425/3/6
f 315/1/6 368/1/6 426/1/6
f 368/1/6 400/1/6 426/1/6
f 400/3/6 413/3/6 427/3/6
f 426/1/6 400/1/6 427/1/6
f 413/1/6 414/1/6 428/1/6
f 427/3/6 413/3/6 428/3/6
f 414/1/6 386/1/6 429/1/6
f 428/1/6 414/1/6 429/1/6
f 375/1/6 316/1/6 429/1/6
f 386/1/6 381/1/6 429/1/6
f 381/1/6 375/1/6 429/1/6
